SplineFontDB: 3.0
FontName: HM_FTXlotoos_Outline
FullName: HM_FTXlotoos_Outline
FamilyName: HM_FTXlotoos_Outline
Weight: Outline
Copyright: Copyright (c) Hossein, 2013. All rights reserved.
Version: 0.1
ItalicAngle: 0
UnderlinePosition: -540
UnderlineWidth: 60
Ascent: 1638
Descent: 410
sfntRevision: 0x00010000
LayerCount: 2
Layer: 0 1 "Back"  1
Layer: 1 1 "Fore"  0
XUID: [1021 102 1371595031 6992056]
FSType: 0
OS2Version: 2
OS2_WeightWidthSlopeOnly: 0
OS2_UseTypoMetrics: 1
CreationTime: 1194658560
ModificationTime: 1360912686
PfmFamily: 17
TTFWeight: 400
TTFWidth: 5
LineGap: 0
VLineGap: 0
Panose: 2 0 5 3 8 0 0 2 0 3
OS2TypoAscent: 2100
OS2TypoAOffset: 0
OS2TypoDescent: -1000
OS2TypoDOffset: 0
OS2TypoLinegap: 0
OS2WinAscent: 2100
OS2WinAOffset: 0
OS2WinDescent: 1000
OS2WinDOffset: 0
HheadAscent: 2100
HheadAOffset: 0
HheadDescent: -1000
HheadDOffset: 0
OS2SubXSize: 1434
OS2SubYSize: 1331
OS2SubXOff: 0
OS2SubYOff: 293
OS2SupXSize: 1434
OS2SupYSize: 1331
OS2SupXOff: 0
OS2SupYOff: 928
OS2StrikeYSize: 102
OS2StrikeYPos: 512
OS2Vendor: 'pars'
OS2CodePages: 20000051.41000000
OS2UnicodeRanges: 00002003.80000000.00000008.00000000
Lookup: 4 0 1 "gsub_ligature_dfl_liga_arab_FAR_Lookup_01"  {"gsub_ligature_dfl_liga_arab_FAR_Lookup_01_Subtable_01"  } ['liga' ('arab' <'FAR ' > ) ]
Lookup: 4 0 1 "gsub_ligature_dfl_liga_arab_FAR_Lookup_02"  {"gsub_ligature_dfl_liga_arab_FAR_Lookup_02_Subtable_01"  } ['liga' ('arab' <'FAR ' > ) ]
Lookup: 3 0 0 "gsub_alternate_dfl_aalt_arab_FAR_Lookup_01"  {"gsub_alternate_dfl_aalt_arab_FAR_Lookup_01_Subtable_01"  } ['aalt' ('arab' <'FAR ' > ) ]
Lookup: 1 1 0 "gsub_single_rtl_fina_arab_FAR_Lookup_01"  {"gsub_single_rtl_fina_arab_FAR_Lookup_01_Subtable_01"  } ['fina' ('arab' <'FAR ' > ) ]
Lookup: 1 1 0 "gsub_single_rtl_init_arab_FAR_Lookup_01"  {"gsub_single_rtl_init_arab_FAR_Lookup_01_Subtable_01"  } ['init' ('arab' <'FAR ' > ) ]

StartChar: .notdef
Encoding: 65536 -1 0
Width: 1122
GlyphClass: 2
Flags: W
LayerCount: 2
Fore
SplineSet
624 299 m 0,0,1
 624 269 624 269 602 246.5 c 128,-1,2
 580 224 580 224 548 224 c 0,3,4
 518 224 518 224 496.5 246.5 c 128,-1,5
 475 269 475 269 475 299 c 0,6,7
 475 331 475 331 496.5 352.5 c 128,-1,8
 518 374 518 374 551 374 c 0,9,10
 581 374 581 374 602.5 352.5 c 128,-1,11
 624 331 624 331 624 299 c 0,0,1
732 780 m 0,12,13
 732 737 732 737 708.5 710 c 128,-1,14
 685 683 685 683 648 683 c 0,15,16
 616 683 616 683 597 701.5 c 128,-1,17
 578 720 578 720 578 749 c 0,18,19
 578 770 578 770 588 785 c 128,-1,20
 598 800 598 800 610.5 810.5 c 128,-1,21
 623 821 623 821 633 829 c 128,-1,22
 643 837 643 837 643 843 c 0,23,24
 643 863 643 863 623.5 875 c 128,-1,25
 604 887 604 887 574 887 c 0,26,27
 536 887 536 887 512 866 c 128,-1,28
 488 845 488 845 488 813 c 0,29,30
 488 795 488 795 498.5 769 c 128,-1,31
 509 743 509 743 521.5 718 c 128,-1,32
 534 693 534 693 545.5 673 c 128,-1,33
 557 653 557 653 559 648 c 0,34,35
 570 619 570 619 576.5 583.5 c 128,-1,36
 583 548 583 548 583 513 c 0,37,38
 583 492 583 492 581.5 470.5 c 128,-1,39
 580 449 580 449 578 424 c 1,40,-1
 539 424 l 1,41,-1
 539 442 l 1,42,-1
 543 472 l 1,43,44
 543 505 543 505 498 544 c 0,45,46
 425 609 425 609 416 620 c 0,47,48
 371 673 371 673 371 740 c 0,49,50
 371 781 371 781 386 815.5 c 128,-1,51
 401 850 401 850 426.5 875.5 c 128,-1,52
 452 901 452 901 486.5 915 c 128,-1,53
 521 929 521 929 560 929 c 0,54,55
 595 929 595 929 626.5 918.5 c 128,-1,56
 658 908 658 908 681.5 888.5 c 128,-1,57
 705 869 705 869 718.5 841.5 c 128,-1,58
 732 814 732 814 732 780 c 0,12,13
132 31 m 1,59,-1
 992 31 l 1,60,-1
 992 1122 l 1,61,-1
 132 1122 l 1,62,-1
 132 31 l 1,59,-1
100 0 m 1,63,-1
 100 1154 l 1,64,-1
 1022 1154 l 1,65,-1
 1022 0 l 1,66,-1
 100 0 l 1,63,-1
EndSplineSet
EndChar

StartChar: exclam
Encoding: 33 33 4
Width: 552
VWidth: 1639
GlyphClass: 2
Flags: W
LayerCount: 2
Fore
SplineSet
187.272460938 201.719726562 m 1,0,1
 175.322265625 472.90234375 175.322265625 472.90234375 149.551757812 656 c 0,2,3
 144.732421875 688.625976562 144.732421875 688.625976562 133.901367188 754.325195312 c 0,4,5
 96.544921875 980.916992188 96.544921875 980.916992188 100.352539062 1093.87988281 c 0,4,5
 104.25390625 1212.68457031 104.25390625 1212.68457031 123.3125 1267.71972656 c 0,6,7
 141.435546875 1320.13183594 141.435546875 1320.13183594 174.15234375 1334.95996094 c 0,8,9
 196.961914062 1344.47070312 196.961914062 1344.47070312 234.83203125 1341.51953125 c 1,10,11
 274.192382812 1336.59960938 274.192382812 1336.59960938 274.192382812 1336.59960938 c 1,12,13
 311.565429688 1322.99511719 311.565429688 1322.99511719 331.591796875 1264.44042969 c 0,14,15
 357.321289062 1183.44726562 357.321289062 1183.44726562 351.272460938 1056.16015625 c 0,16,17
 345.900390625 948.727539062 345.900390625 948.727539062 299.604492188 611.685546875 c 0,18,19
 296.38671875 588.186523438 296.38671875 588.186523438 293.872070312 569.080078125 c 0,18,19
 288.747070312 527.0546875 288.747070312 527.0546875 284.903320312 443.004882812 c 0,20,21
 282.528320312 392.028320312 282.528320312 392.028320312 280.751953125 367.360351562 c 0,20,21
 272.603515625 231.274414062 272.603515625 231.274414062 272.551757812 201.719726562 c 1,22,-1
 187.272460938 201.719726562 l 1,0,1
229.912109375 318.16015625 m 1,23,24
 230.138671875 488.870117188 230.138671875 488.870117188 265.9921875 746.200195312 c 0,25,26
 270.010742188 773.440429688 270.010742188 773.440429688 279.54296875 828.849609375 c 0,27,28
 305.352539062 978.88671875 305.352539062 978.88671875 305.352539062 1052.87988281 c 0,27,28
 304.8046875 1163.75097656 304.8046875 1163.75097656 282.392578125 1228.36035156 c 1,29,30
 263.127929688 1277.47558594 263.127929688 1277.47558594 233.192382812 1289.04003906 c 1,31,32
 209.196289062 1296.32226562 209.196289062 1296.32226562 180.711914062 1249.6796875 c 1,33,34
 148.10546875 1190.55957031 148.10546875 1190.55957031 147.912109375 1075.83984375 c 0,35,36
 148.173828125 1010.3359375 148.173828125 1010.3359375 167.591796875 890.51953125 c 0,37,38
 172.62890625 854.141601562 172.62890625 854.141601562 183.458007812 781.828125 c 0,39,40
 204.325195312 642.021484375 204.325195312 642.021484375 211.872070312 572.360351562 c 0,39,40
 214.33203125 542.01953125 214.33203125 542.01953125 218.432617188 482.16015625 c 0,41,42
 222.591796875 421.733398438 222.591796875 421.733398438 224.9921875 391.959960938 c 0,41,42
 225.533203125 384.9296875 225.533203125 384.9296875 225.180664062 368.004882812 c 0,43,44
 224.965820312 331.283203125 224.965820312 331.283203125 229.912109375 318.16015625 c 1,23,24
203.671875 144.3203125 m 0,43,44
 301.93359375 152.694335938 301.93359375 152.694335938 336.51171875 98.400390625 c 0,45,46
 351.258789062 73.677734375 351.258789062 73.677734375 351.272460938 26.240234375 c 0,47,48
 350.969726562 -17.166015625 350.969726562 -17.166015625 349.631835938 -24.599609375 c 0,49,50
 335.971679688 -74.6884765625 335.971679688 -74.6884765625 287.275390625 -92.3447265625 c 0,51,52
 277.520507812 -95.509765625 277.520507812 -95.509765625 269.272460938 -96.759765625 c 0,51,52
 169.076171875 -107.125 169.076171875 -107.125 129.872070312 -62.3203125 c 1,53,54
 110.329101562 -35.5986328125 110.329101562 -35.5986328125 110.192382812 11.48046875 c 1,55,56
 107.412109375 51.265625 107.412109375 51.265625 111.83203125 68.8798828125 c 0,57,58
 125.77734375 131.633789062 125.77734375 131.633789062 196.615234375 143.346679688 c 0,59,60
 200.951171875 143.983398438 200.951171875 143.983398438 203.671875 144.3203125 c 0,43,44
228.272460938 95.1201171875 m 1,59,60
 193.512695312 91.2578125 193.512695312 91.2578125 168.077148438 51.4501953125 c 0,61,62
 158.3359375 34.669921875 158.3359375 34.669921875 157.751953125 21.3203125 c 0,61,62
 159.602539062 -11.984375 159.602539062 -11.984375 198.934570312 -38.2060546875 c 0,63,64
 217.186523438 -49.2783203125 217.186523438 -49.2783203125 231.551757812 -49.2001953125 c 0,63,64
 266.049804688 -45.3671875 266.049804688 -45.3671875 291.310546875 -7.455078125 c 0,65,66
 302.072265625 8.6962890625 302.072265625 8.6962890625 302.072265625 22.9599609375 c 0,65,66
 302.072265625 54.4111328125 302.072265625 54.4111328125 263.430664062 82.181640625 c 0,67,68
 243.71484375 95.185546875 243.71484375 95.185546875 228.272460938 95.1201171875 c 1,59,60
EndSplineSet
EndChar

StartChar: percent
Encoding: 37 37 8
Width: 1164
VWidth: 1639
GlyphClass: 2
Flags: W
LayerCount: 2
Fore
SplineSet
800.6796875 1431.71972656 m 1,0,-1
 822 1423.51953125 l 1,1,-1
 823.639648438 1431.71972656 l 1,2,-1
 844.959960938 1423.51953125 l 1,3,-1
 846.599609375 1431.71972656 l 1,4,-1
 908.919921875 1407.12011719 l 1,5,-1
 902.359375 1385.79980469 l 1,6,-1
 908.919921875 1384.16015625 l 1,7,-1
 902.359375 1362.83984375 l 1,8,-1
 908.919921875 1361.20019531 l 1,9,-1
 864.639648438 1234.91992188 l 1,10,-1
 772.799804688 970.879882812 l 1,11,-1
 495.639648438 185.3203125 l 1,12,-1
 421.83984375 -24.599609375 l 1,13,-1
 380.83984375 -144.3203125 l 1,14,-1
 359.51953125 -136.120117188 l 1,15,-1
 357.879882812 -144.3203125 l 1,16,-1
 336.559570312 -136.120117188 l 1,17,-1
 334.919921875 -144.3203125 l 1,18,-1
 270.959960938 -121.360351562 l 1,19,-1
 277.51953125 -100.040039062 l 1,20,-1
 270.959960938 -98.400390625 l 1,21,-1
 277.51953125 -77.080078125 l 1,22,-1
 270.959960938 -75.4404296875 l 1,23,-1
 287.359375 -24.599609375 l 1,24,-1
 320.16015625 65.599609375 l 1,25,-1
 430.040039062 380.48046875 l 1,26,-1
 671.120117188 1062.71972656 l 1,27,-1
 800.6796875 1431.71972656 l 1,0,-1
339.83984375 -83.6396484375 m 1,28,29
 341.00390625 -78.984375 341.00390625 -78.984375 384.142578125 44.5830078125 c 0,30,31
 386.116210938 50.302734375 386.116210938 50.302734375 387.399414062 54.1201171875 c 0,30,31
 401.33984375 92.66015625 401.33984375 92.66015625 428.399414062 170.559570312 c 0,32,33
 455.666992188 248.991210938 455.666992188 248.991210938 469.399414062 287 c 0,32,33
 509.112304688 397.311523438 509.112304688 397.311523438 585.91015625 618.62890625 c 0,34,35
 680.626953125 891.493164062 680.626953125 891.493164062 730.16015625 1026.63964844 c 0,34,35
 742.624023438 1061.40820312 742.624023438 1061.40820312 766.501953125 1130.94433594 c 0,36,37
 802.319335938 1235.24804688 802.319335938 1235.24804688 822 1287.40039062 c 1,36,37
 838.181640625 1335.56152344 838.181640625 1335.56152344 843.319335938 1348.08007812 c 1,38,39
 848.069335938 1365.86523438 848.069335938 1365.86523438 841.6796875 1369.40039062 c 1,40,41
 831.069335938 1349.69433594 831.069335938 1349.69433594 795.845703125 1242.97363281 c 0,42,43
 792.977539062 1234.40722656 792.977539062 1234.40722656 790.83984375 1228.36035156 c 0,42,43
 773.620117188 1179.98046875 773.620117188 1179.98046875 740 1084.04003906 c 0,44,45
 706.174804688 987.541015625 706.174804688 987.541015625 689.16015625 939.719726562 c 0,44,45
 648.16015625 823.280273438 648.16015625 823.280273438 566.16015625 589.580078125 c 0,46,47
 483.967773438 355.338867188 483.967773438 355.338867188 443.16015625 239.440429688 c 0,46,47
 430.5859375 203.90625 430.5859375 203.90625 406.168945312 132.475585938 c 0,48,49
 357.078125 -10.9033203125 357.078125 -10.9033203125 330 -80.3603515625 c 1,48,-1
 339.83984375 -83.6396484375 l 1,28,29
208.639648438 1313.63964844 m 1,49,50
 311.500976562 1325.26074219 311.500976562 1325.26074219 351.319335938 1271 c 0,51,52
 367.704101562 1246.31445312 367.704101562 1246.31445312 367.719726562 1197.20019531 c 0,53,54
 367.27734375 1155.08398438 367.27734375 1155.08398438 364.439453125 1144.71972656 c 0,55,56
 349.905273438 1086.58203125 349.905273438 1086.58203125 287.129882812 1073.44140625 c 0,57,58
 284.798828125 1072.953125 284.798828125 1072.953125 282.439453125 1072.55957031 c 0,57,58
 181.0390625 1061.14648438 181.0390625 1061.14648438 141.399414062 1115.20019531 c 1,59,60
 125.1484375 1140.46289062 125.1484375 1140.46289062 125 1182.44042969 c 0,61,62
 127.557617188 1298.38964844 127.557617188 1298.38964844 208.639648438 1313.63964844 c 1,49,50
241.439453125 1264.44042969 m 0,63,64
 205.47265625 1258.4453125 205.47265625 1258.4453125 182.893554688 1220.25683594 c 0,65,66
 174.71875 1204.86523438 174.71875 1204.86523438 174.19921875 1192.28027344 c 0,65,66
 174.19921875 1159.58398438 174.19921875 1159.58398438 214.545898438 1132.78222656 c 0,67,68
 235.006835938 1119.19042969 235.006835938 1119.19042969 251.279296875 1121.75976562 c 0,67,68
 288.225585938 1127.91796875 288.225585938 1127.91796875 310.547851562 1165.94335938 c 0,69,70
 318.61328125 1181.38964844 318.61328125 1181.38964844 318.51953125 1193.91992188 c 0,69,70
 316.750976562 1227.51660156 316.750976562 1227.51660156 278.487304688 1253.41796875 c 0,71,72
 258.436523438 1266.98925781 258.436523438 1266.98925781 241.439453125 1264.44042969 c 0,63,64
882.6796875 224.6796875 m 1,71,72
 983.358398438 236.41015625 983.358398438 236.41015625 1022.08007812 183.6796875 c 0,73,74
 1039.97851562 156.841796875 1039.97851562 156.841796875 1040.12011719 111.51953125 c 0,75,76
 1040.69824219 -1.9736328125 1040.69824219 -1.9736328125 954.83984375 -16.400390625 c 1,77,78
 854.0703125 -25.2607421875 854.0703125 -25.2607421875 817.080078125 21.3203125 c 1,79,80
 797.52734375 49.8173828125 797.52734375 49.8173828125 797.399414062 100.040039062 c 0,81,82
 797.817382812 144.369140625 797.817382812 144.369140625 800.6796875 155.799804688 c 0,83,84
 820.077148438 212.533203125 820.077148438 212.533203125 882.6796875 224.6796875 c 1,71,72
913.83984375 175.48046875 m 0,85,86
 878.71875 169.282226562 878.71875 169.282226562 855.595703125 131.296875 c 0,87,88
 847.138671875 115.837890625 847.138671875 115.837890625 846.599609375 103.3203125 c 0,87,88
 848.368164062 69.7236328125 848.368164062 69.7236328125 886.631835938 43.822265625 c 0,89,90
 907.255859375 31.1328125 907.255859375 31.1328125 923.6796875 32.7998046875 c 0,89,90
 958.59375 38.9609375 958.59375 38.9609375 981.532226562 75.0654296875 c 0,91,92
 990.362304688 90.5498046875 990.362304688 90.5498046875 990.919921875 103.3203125 c 0,91,92
 990.919921875 136.692382812 990.919921875 136.692382812 951.297851562 163.96875 c 0,93,94
 930.8671875 178.034179688 930.8671875 178.034179688 913.83984375 175.48046875 c 0,85,86
EndSplineSet
EndChar

StartChar: parenleft
Encoding: 40 40 11
Width: 736
VWidth: 1639
GlyphClass: 2
Flags: W
LayerCount: 2
Fore
SplineSet
630.483398438 -223.040039062 m 1,0,1
 644.12109375 -232.78125 644.12109375 -232.78125 625.078125 -251.327148438 c 0,2,3
 621.22265625 -254.427734375 621.22265625 -254.427734375 619.00390625 -255.83984375 c 1,2,3
 619.00390625 -259.120117188 619.00390625 -259.120117188 607.5234375 -257.48046875 c 2,4,-1
 596.043945312 -255.83984375 l 1,4,5
 556.12890625 -258.45703125 556.12890625 -258.45703125 543.563476562 -250.919921875 c 0,6,7
 516.553710938 -232.735351562 516.553710938 -232.735351562 458.283203125 -170.559570312 c 0,8,9
 400.565429688 -110.223632812 400.565429688 -110.223632812 343.483398438 -37.7197265625 c 0,10,11
 182.25390625 169.176757812 182.25390625 169.176757812 128.643554688 370.639648438 c 0,12,13
 56.8359375 644.8125 56.8359375 644.8125 165.04296875 932.791992188 c 0,14,15
 178.107421875 967.201171875 178.107421875 967.201171875 192.603515625 998.759765625 c 0,14,15
 286.959960938 1201.9609375 286.959960938 1201.9609375 479.603515625 1371.04003906 c 0,16,17
 532.240234375 1416.15625 532.240234375 1416.15625 547.421875 1422.67871094 c 0,18,19
 554.645507812 1425.46289062 554.645507812 1425.46289062 559.963867188 1426.79980469 c 0,18,19
 573.81640625 1430.11132812 573.81640625 1430.11132812 597.68359375 1426.79980469 c 0,20,21
 601.39453125 1426.38769531 601.39453125 1426.38769531 608.712890625 1426.59667969 c 0,22,23
 629.228515625 1424.81347656 629.228515625 1424.81347656 635.403320312 1413.6796875 c 0,22,23
 636.379882812 1409.75683594 636.379882812 1409.75683594 635.403320312 1392.36035156 c 2,24,25
 635.403320312 1353 l 1,26,27
 629.538085938 1338.25683594 629.538085938 1338.25683594 596.043945312 1302.16015625 c 1,28,29
 491.091796875 1173.1953125 491.091796875 1173.1953125 446.803710938 1107 c 0,30,31
 275.826171875 841.856445312 275.826171875 841.856445312 266.403320312 592.040039062 c 0,32,33
 265.206054688 546.4609375 265.206054688 546.4609375 282.803710938 441.16015625 c 1,34,35
 333.989257812 193.970703125 333.989257812 193.970703125 514.043945312 -37.7197265625 c 0,36,37
 544.946289062 -77.0390625 544.946289062 -77.0390625 605.883789062 -147.599609375 c 0,38,39
 630.94921875 -175.451171875 630.94921875 -175.451171875 632.546875 -182.750976562 c 0,40,41
 633.458007812 -192.030273438 633.458007812 -192.030273438 630.483398438 -200.080078125 c 1,40,41
 637.043945312 -205 637.043945312 -205 631.296875 -221.038085938 c 2,42,-1
 630.483398438 -223.040039062 l 1,0,1
540.283203125 1336.59960938 m 1,42,43
 484.783203125 1297.75878906 484.783203125 1297.75878906 400.883789062 1200.48046875 c 0,44,45
 225.594726562 998.0546875 225.594726562 998.0546875 171.283203125 751.120117188 c 0,46,47
 146.4140625 637.219726562 146.4140625 637.219726562 149.963867188 565.799804688 c 1,48,49
 166.325195312 350.447265625 166.325195312 350.447265625 307.403320312 123 c 1,50,51
 371.642578125 25.58984375 371.642578125 25.58984375 418.923828125 -29.51953125 c 0,52,53
 423.3203125 -34.7958984375 423.3203125 -34.7958984375 432.20703125 -46.4130859375 c 0,54,55
 458.2109375 -79.3671875 458.2109375 -79.3671875 473.043945312 -90.2001953125 c 1,54,55
 462.646484375 -74.1318359375 462.646484375 -74.1318359375 438.51953125 -43.001953125 c 0,56,57
 420.360351562 -19.4296875 420.360351562 -19.4296875 412.36328125 -8.2001953125 c 0,56,57
 341.244140625 97.779296875 341.244140625 97.779296875 297.563476562 198.440429688 c 0,58,59
 164.846679688 510.124023438 164.846679688 510.124023438 253.639648438 837.8359375 c 0,60,61
 275.478515625 917.328125 275.478515625 917.328125 309.043945312 990.559570312 c 0,60,61
 365.501953125 1109.61132812 365.501953125 1109.61132812 455.00390625 1228.36035156 c 0,62,63
 465.181640625 1241.53125 465.181640625 1241.53125 486.865234375 1267.45703125 c 0,64,65
 524.8828125 1313.27832031 524.8828125 1313.27832031 540.283203125 1336.59960938 c 1,42,43
EndSplineSet
EndChar

StartChar: parenright
Encoding: 41 41 12
Width: 832
VWidth: 1639
GlyphClass: 2
Flags: W
LayerCount: 2
Fore
SplineSet
100.379882812 -178.759765625 m 1,0,1
 118.916015625 -165.1328125 118.916015625 -165.1328125 156.139648438 -116.440429688 c 1,2,3
 221.779296875 -39.1162109375 221.779296875 -39.1162109375 262.739257812 18.0400390625 c 0,4,5
 412.522460938 227.9765625 412.522460938 227.9765625 454.619140625 447.719726562 c 1,6,7
 470.87109375 547.166015625 470.87109375 547.166015625 469.379882812 600.240234375 c 0,8,9
 462.133789062 769.331054688 462.133789062 769.331054688 374.259765625 959.400390625 c 1,10,11
 308.008789062 1098.78613281 308.008789062 1098.78613281 161.059570312 1275.91992188 c 0,12,13
 119.807617188 1326.51660156 119.807617188 1326.51660156 118.419921875 1328.40039062 c 0,14,15
 102.8828125 1345.16308594 102.8828125 1345.16308594 100.379882812 1353 c 0,16,17
 99.6201171875 1356.85644531 99.6201171875 1356.85644531 100.379882812 1390.71972656 c 0,18,19
 101.2578125 1413.70898438 101.2578125 1413.70898438 102.01953125 1415.3203125 c 0,20,21
 106.719726562 1427.0703125 106.719726562 1427.0703125 130.696289062 1426.53125 c 0,22,23
 135.150390625 1426.43164062 135.150390625 1426.43164062 138.099609375 1426.79980469 c 0,22,23
 184.522460938 1431.95800781 184.522460938 1431.95800781 236.775390625 1388.08496094 c 0,24,25
 239.83984375 1385.49804688 239.83984375 1385.49804688 241.419921875 1384.16015625 c 0,24,25
 410.4921875 1239.35058594 410.4921875 1239.35058594 513.659179688 1057.79980469 c 1,26,27
 631.739257812 845.73828125 631.739257812 845.73828125 631.739257812 588.759765625 c 0,28,29
 631.36328125 474.418945312 631.36328125 474.418945312 613.69921875 396.879882812 c 0,30,31
 575.114257812 225.181640625 575.114257812 225.181640625 452.979492188 44.2802734375 c 0,32,33
 333.674804688 -130.702148438 333.674804688 -130.702148438 220.099609375 -227.959960938 c 0,34,35
 191.706054688 -251.696289062 191.706054688 -251.696289062 184.01953125 -255.83984375 c 0,36,37
 180.096679688 -256.815429688 180.096679688 -256.815429688 162.69921875 -255.83984375 c 0,38,39
 159.021484375 -255.83984375 159.021484375 -255.83984375 150.162109375 -256.681640625 c 0,40,41
 120.161132812 -258.401367188 120.161132812 -258.401367188 110.219726562 -250.919921875 c 1,40,41
 103.399414062 -242.564453125 103.399414062 -242.564453125 100.379882812 -224.6796875 c 1,42,-1
 105.299804688 -223.040039062 l 1,43,-1
 100.379882812 -201.719726562 l 1,44,-1
 105.299804688 -200.080078125 l 1,45,-1
 100.379882812 -178.759765625 l 1,0,1
197.139648438 1336.59960938 m 1,46,47
 199.239257812 1329.34765625 199.239257812 1329.34765625 221.739257812 1303.79980469 c 0,48,49
 231.579101562 1290.6796875 231.579101562 1290.6796875 252.079101562 1265.25976562 c 0,50,51
 272.965820312 1239.24902344 272.965820312 1239.24902344 282.419921875 1226.71972656 c 0,50,51
 373.181640625 1104.20410156 373.181640625 1104.20410156 431.659179688 980.719726562 c 1,52,53
 568.758789062 681.418945312 568.758789062 681.418945312 487.090820312 348.658203125 c 0,54,55
 464.904296875 259.547851562 464.904296875 259.547851562 428.379882812 177.120117188 c 0,54,55
 386.345703125 83.9931640625 386.345703125 83.9931640625 326.69921875 -3.2802734375 c 0,56,57
 316.859375 -18.0400390625 316.859375 -18.0400390625 295.5390625 -45.919921875 c 0,58,59
 273.900390625 -74.4267578125 273.900390625 -74.4267578125 264.379882812 -88.5595703125 c 1,58,59
 278.604492188 -77.3076171875 278.604492188 -77.3076171875 318.5 -27.8798828125 c 0,60,61
 381.708984375 47.9375 381.708984375 47.9375 433.299804688 131.200195312 c 0,62,63
 549.052734375 318.807617188 549.052734375 318.807617188 577.619140625 485.440429688 c 0,64,65
 622.645507812 757.397460938 622.645507812 757.397460938 444.500976562 1050.68164062 c 0,66,67
 401.840820312 1120.39160156 401.840820312 1120.39160156 351.299804688 1182.44042969 c 1,66,67
 296.58203125 1246.13769531 296.58203125 1246.13769531 197.139648438 1336.59960938 c 1,46,47
EndSplineSet
EndChar

StartChar: plus
Encoding: 43 43 14
Width: 956
VWidth: 1639
GlyphClass: 2
Flags: W
LayerCount: 2
Fore
SplineSet
403.240234375 928.240234375 m 1,0,-1
 554.120117188 928.240234375 l 1,1,-1
 554.120117188 533 l 1,2,-1
 947.719726562 533 l 1,3,-1
 947.719726562 383.759765625 l 1,4,-1
 554.120117188 383.759765625 l 1,5,-1
 554.120117188 -11.48046875 l 1,6,-1
 403.240234375 -11.48046875 l 1,7,-1
 403.240234375 383.759765625 l 1,8,-1
 8 383.759765625 l 1,9,-1
 8 533 l 1,10,-1
 403.240234375 533 l 1,11,-1
 403.240234375 928.240234375 l 1,0,-1
508.200195312 882.3203125 m 1,12,-1
 449.16015625 882.3203125 l 1,13,-1
 449.16015625 487.080078125 l 1,14,-1
 53.919921875 487.080078125 l 1,15,-1
 53.919921875 429.6796875 l 1,16,-1
 449.16015625 429.6796875 l 1,17,-1
 449.16015625 34.4404296875 l 1,18,-1
 508.200195312 34.4404296875 l 1,19,-1
 508.200195312 429.6796875 l 1,20,-1
 901.799804688 429.6796875 l 1,21,-1
 901.799804688 487.080078125 l 1,22,-1
 508.200195312 487.080078125 l 1,23,-1
 508.200195312 882.3203125 l 1,12,-1
EndSplineSet
EndChar

StartChar: hyphen
Encoding: 45 45 16
AltUni2: 002212.ffffffff.0 0000ad.ffffffff.0
Width: 1180
VWidth: 1639
GlyphClass: 2
Flags: W
LayerCount: 2
Fore
SplineSet
120 533 m 1,0,-1
 1059.71972656 533 l 1,1,-1
 1059.71972656 383.759765625 l 1,2,-1
 120 383.759765625 l 1,3,-1
 120 533 l 1,0,-1
1013.79980469 487.080078125 m 1,4,-1
 165.919921875 487.080078125 l 1,5,-1
 165.919921875 429.6796875 l 1,6,-1
 1013.79980469 429.6796875 l 1,7,-1
 1013.79980469 487.080078125 l 1,4,-1
EndSplineSet
EndChar

StartChar: period
Encoding: 46 46 17
Width: 543
VWidth: 1639
GlyphClass: 2
Flags: W
LayerCount: 2
Fore
SplineSet
191.83984375 175.48046875 m 1,0,1
 289.590820312 186.7265625 289.590820312 186.7265625 327.959960938 129.559570312 c 0,2,3
 342.706054688 104.837890625 342.706054688 104.837890625 342.719726562 57.400390625 c 0,4,5
 340.185546875 -53.5087890625 340.185546875 -53.5087890625 260.719726562 -65.599609375 c 1,6,7
 161.728515625 -77.6728515625 161.728515625 -77.6728515625 119.6796875 -29.51953125 c 1,8,9
 100.139648438 -2.9111328125 100.139648438 -2.9111328125 100 49.2001953125 c 0,10,11
 100.4296875 91.9677734375 100.4296875 91.9677734375 103.280273438 103.3203125 c 0,12,13
 121.553710938 163.133789062 121.553710938 163.133789062 191.83984375 175.48046875 c 1,0,1
219.719726562 126.280273438 m 0,14,15
 183.141601562 122.4296875 183.141601562 122.4296875 158.470703125 82.6103515625 c 0,16,17
 149.110351562 65.837890625 149.110351562 65.837890625 149.200195312 52.48046875 c 0,16,17
 151.049804688 19.17578125 151.049804688 19.17578125 190.381835938 -7.0458984375 c 0,18,19
 208.633789062 -18.1181640625 208.633789062 -18.1181640625 223 -18.0400390625 c 0,18,19
 257.497070312 -14.20703125 257.497070312 -14.20703125 282.7578125 23.705078125 c 0,20,21
 293.51953125 39.8564453125 293.51953125 39.8564453125 293.51953125 54.1201171875 c 0,20,21
 293.51953125 85.5712890625 293.51953125 85.5712890625 254.877929688 113.340820312 c 0,22,23
 235.162109375 126.345703125 235.162109375 126.345703125 219.719726562 126.280273438 c 0,14,15
EndSplineSet
EndChar

StartChar: slash
Encoding: 47 47 18
Width: 558
VWidth: 1639
GlyphClass: 2
Flags: W
LayerCount: 2
Fore
SplineSet
7.919921875 -52.48046875 m 0,0,1
 2.060546875 -48.1044921875 2.060546875 -48.1044921875 6.2802734375 -34.4404296875 c 0,2,3
 8.740234375 -26.240234375 8.740234375 -26.240234375 14.48046875 -10.66015625 c 0,4,5
 20.3388671875 5.5361328125 20.3388671875 5.5361328125 22.6796875 13.1201171875 c 0,4,5
 60.462890625 112.540039062 60.462890625 112.540039062 96.48046875 223.040039062 c 0,6,7
 105.206054688 249.049804688 105.206054688 249.049804688 344.172851562 924.984375 c 0,8,9
 354.649414062 954.630859375 354.649414062 954.630859375 363.799804688 980.719726562 c 0,8,9
 374.459960938 1009.41992188 374.459960938 1009.41992188 394.959960938 1067.63964844 c 0,10,11
 415.676757812 1126.38671875 415.676757812 1126.38671875 426.120117188 1154.55957031 c 2,10,-1
 439.240234375 1195.55957031 l 2,11,12
 444.345703125 1206.6171875 444.345703125 1206.6171875 447.440429688 1208.6796875 c 1,13,14
 450.719726562 1208.6796875 450.719726562 1208.6796875 454 1208.6796875 c 0,15,16
 457.280273438 1208.6796875 457.280273438 1208.6796875 462.200195312 1206.21972656 c 2,17,-1
 467.120117188 1203.75976562 l 1,15,16
 469.383789062 1210.54980469 469.383789062 1210.54980469 486.3984375 1204.79296875 c 0,17,18
 488.541015625 1204.06738281 488.541015625 1204.06738281 490.080078125 1203.75976562 c 0,17,18
 495.265625 1210.83886719 495.265625 1210.83886719 506.48046875 1205.40039062 c 0,19,20
 536.385742188 1195.18847656 536.385742188 1195.18847656 549.120117188 1189 c 1,21,-1
 542.560546875 1169.3203125 l 1,22,-1
 549.120117188 1166.04003906 l 1,23,-1
 542.560546875 1146.36035156 l 1,24,-1
 549.120117188 1143.08007812 l 1,25,-1
 509.759765625 1028.28027344 l 1,26,-1
 437.600585938 823.280273438 l 1,27,-1
 208 173.83984375 l 1,28,-1
 130.919921875 -49.2001953125 l 1,29,-1
 112.879882812 -98.400390625 l 1,30,-1
 104.6796875 -118.080078125 l 1,31,-1
 83.3603515625 -113.16015625 l 1,32,33
 81.0966796875 -119.950195312 81.0966796875 -119.950195312 64.08203125 -114.192382812 c 0,34,35
 61.3349609375 -113.418945312 61.3349609375 -113.418945312 60.400390625 -113.16015625 c 0,34,35
 56.4599609375 -121.244140625 56.4599609375 -121.244140625 30.8798828125 -109.879882812 c 0,36,37
 29.060546875 -108.970703125 29.060546875 -108.970703125 23.0595703125 -106.772460938 c 0,38,39
 5.4306640625 -99.3447265625 5.4306640625 -99.3447265625 3 -95.1201171875 c 0,38,39
 3 -91.83984375 3 -91.83984375 3 -88.5595703125 c 0,40,41
 3 -85.2802734375 3 -85.2802734375 5.4599609375 -80.3603515625 c 2,42,-1
 7.919921875 -75.4404296875 l 1,40,41
 1.1298828125 -73.1767578125 1.1298828125 -73.1767578125 6.8876953125 -56.162109375 c 0,42,43
 7.6611328125 -53.4140625 7.6611328125 -53.4140625 7.919921875 -52.48046875 c 0,0,1
488.440429688 1149.63964844 m 1,42,-1
 485.16015625 1149.63964844 l 1,43,-1
 445.799804688 1038.12011719 l 1,44,-1
 357.240234375 783.919921875 l 1,45,-1
 170.280273438 255.83984375 l 1,46,-1
 60.400390625 -57.400390625 l 1,47,48
 66.046875 -53.6455078125 66.046875 -53.6455078125 71.8798828125 -39.3603515625 c 0,49,50
 75.8525390625 -25.361328125 75.8525390625 -25.361328125 89.919921875 13.1201171875 c 0,51,52
 163.719726562 224.6796875 163.719726562 224.6796875 163.719726562 224.6796875 c 1,53,54
 226.3515625 390.991210938 226.3515625 390.991210938 390.040039062 867.559570312 c 0,55,56
 432.874023438 989.427734375 432.874023438 989.427734375 454 1047.95996094 c 0,57,58
 457.166992188 1056.5546875 457.166992188 1056.5546875 464.85546875 1075.00195312 c 0,59,60
 486.064453125 1125.88769531 486.064453125 1125.88769531 488.440429688 1149.63964844 c 1,42,-1
EndSplineSet
EndChar

StartChar: colon
Encoding: 58 58 29
Width: 541
VWidth: 1639
GlyphClass: 2
Flags: W
LayerCount: 2
Fore
SplineSet
183.639648438 839.6796875 m 1,0,1
 284.064453125 851.43359375 284.064453125 851.43359375 323.040039062 800.3203125 c 1,2,3
 338.094726562 777.611328125 338.094726562 777.611328125 341.080078125 728.16015625 c 0,4,5
 344.682617188 613.157226562 344.682617188 613.157226562 255.799804688 598.599609375 c 1,6,7
 156.475585938 586.994140625 156.475585938 586.994140625 116.399414062 639.599609375 c 1,8,9
 100.013671875 664.353515625 100.013671875 664.353515625 100 715.040039062 c 0,10,11
 100.405273438 760.990234375 100.405273438 760.990234375 103.279296875 772.440429688 c 0,12,13
 122.81640625 827.3359375 122.81640625 827.3359375 183.639648438 839.6796875 c 1,0,1
221.359375 790.48046875 m 0,14,15
 187.59765625 790.48046875 187.59765625 790.48046875 160.751953125 751.604492188 c 0,16,17
 149.120117188 733.1171875 149.120117188 733.1171875 149.19921875 718.3203125 c 0,16,17
 149.19921875 683.442382812 149.19921875 683.442382812 190.524414062 658.001953125 c 0,18,19
 206.565429688 648.994140625 206.565429688 648.994140625 219.719726562 647.799804688 c 0,18,19
 254.712890625 647.799804688 254.712890625 647.799804688 282.041992188 688.288085938 c 0,20,21
 292.248046875 704.830078125 292.248046875 704.830078125 293.51953125 718.3203125 c 0,20,21
 293.51953125 753.016601562 293.51953125 753.016601562 252.454101562 779.665039062 c 0,22,23
 235.186523438 789.881835938 235.186523438 789.881835938 221.359375 790.48046875 c 0,14,15
191.83984375 175.48046875 m 1,22,23
 288.706054688 186.653320312 288.706054688 186.653320312 326.319335938 129.559570312 c 0,24,25
 341.063476562 106.427734375 341.063476562 106.427734375 341.080078125 63.9599609375 c 0,26,27
 340.654296875 14.7841796875 340.654296875 14.7841796875 339.439453125 9.83984375 c 0,28,29
 328.143554688 -42.12109375 328.143554688 -42.12109375 276.84765625 -61.216796875 c 0,30,31
 268.03515625 -64.181640625 268.03515625 -64.181640625 260.719726562 -65.599609375 c 0,30,31
 158.778320312 -77.1513671875 158.778320312 -77.1513671875 118.040039062 -26.240234375 c 0,32,33
 100.016601562 -1.5546875 100.016601562 -1.5546875 100 47.5595703125 c 0,34,35
 100.29296875 92.5361328125 100.29296875 92.5361328125 101.639648438 100.040039062 c 0,36,37
 120.260742188 163.295898438 120.260742188 163.295898438 191.83984375 175.48046875 c 1,22,23
218.080078125 126.280273438 m 1,38,39
 181.609375 120.202148438 181.609375 120.202148438 158.23828125 82.0966796875 c 0,40,41
 149.740234375 66.67578125 149.740234375 66.67578125 149.19921875 54.1201171875 c 0,40,41
 147.458007812 22.7724609375 147.458007812 22.7724609375 187.440429688 -4.662109375 c 0,42,43
 207.510742188 -17.251953125 207.510742188 -17.251953125 223 -16.400390625 c 0,42,43
 256.58203125 -14.5341796875 256.58203125 -14.5341796875 282.291992188 23.0703125 c 0,44,45
 293.51953125 39.4912109375 293.51953125 39.4912109375 293.51953125 54.1201171875 c 0,44,45
 293.51953125 85 293.51953125 85 255.10546875 113.068359375 c 0,46,47
 234.142578125 127.137695312 234.142578125 127.137695312 218.080078125 126.280273438 c 1,38,39
EndSplineSet
EndChar

StartChar: equal
Encoding: 61 61 32
Width: 954
VWidth: 1639
GlyphClass: 2
Flags: W
LayerCount: 2
Fore
SplineSet
8 682.240234375 m 1,0,-1
 946.080078125 682.240234375 l 1,1,-1
 946.080078125 533 l 1,2,-1
 8 533 l 1,3,-1
 8 682.240234375 l 1,0,-1
900.159179688 636.3203125 m 1,4,-1
 53.919921875 636.3203125 l 1,5,-1
 53.919921875 578.919921875 l 1,6,-1
 900.159179688 578.919921875 l 1,7,-1
 900.159179688 636.3203125 l 1,4,-1
8 373.919921875 m 1,8,-1
 946.080078125 373.919921875 l 1,9,-1
 946.080078125 223.040039062 l 1,10,-1
 8 223.040039062 l 1,11,-1
 8 373.919921875 l 1,8,-1
900.159179688 328 m 1,12,-1
 53.919921875 328 l 1,13,-1
 53.919921875 268.959960938 l 1,14,-1
 900.159179688 268.959960938 l 1,15,-1
 900.159179688 328 l 1,12,-1
EndSplineSet
EndChar

StartChar: bracketleft
Encoding: 91 91 62
Width: 715
VWidth: 1639
GlyphClass: 2
Flags: W
LayerCount: 2
Fore
SplineSet
100 1372.6796875 m 1,0,-1
 614.959960938 1372.6796875 l 1,1,-1
 614.959960938 1269.36035156 l 1,2,-1
 272.200195312 1269.36035156 l 1,3,-1
 272.200195312 -237.799804688 l 1,4,-1
 614.959960938 -237.799804688 l 1,5,-1
 614.959960938 -342.759765625 l 1,6,-1
 100 -342.759765625 l 1,7,-1
 100 1372.6796875 l 1,0,-1
569.040039062 1326.75976562 m 1,8,-1
 145.919921875 1326.75976562 l 1,9,-1
 145.919921875 -296.83984375 l 1,10,-1
 569.040039062 -296.83984375 l 1,11,-1
 569.040039062 -283.719726562 l 1,12,-1
 226.280273438 -283.719726562 l 1,13,-1
 226.280273438 1315.28027344 l 1,14,-1
 569.040039062 1315.28027344 l 1,15,-1
 569.040039062 1326.75976562 l 1,8,-1
EndSplineSet
EndChar

StartChar: bracketright
Encoding: 93 93 64
Width: 812
VWidth: 1639
GlyphClass: 2
Flags: W
LayerCount: 2
Fore
SplineSet
100 1372.6796875 m 1,0,-1
 611.6796875 1372.6796875 l 1,1,-1
 611.6796875 -342.759765625 l 1,2,-1
 100 -342.759765625 l 1,3,-1
 100 -237.799804688 l 1,4,-1
 441.119140625 -237.799804688 l 1,5,-1
 441.119140625 1269.36035156 l 1,6,-1
 100 1269.36035156 l 1,7,-1
 100 1372.6796875 l 1,0,-1
565.759765625 1326.75976562 m 1,8,-1
 145.919921875 1326.75976562 l 1,9,-1
 145.919921875 1315.28027344 l 1,10,-1
 487.040039062 1315.28027344 l 1,11,-1
 487.040039062 -283.719726562 l 1,12,-1
 145.919921875 -283.719726562 l 1,13,-1
 145.919921875 -296.83984375 l 1,14,-1
 565.759765625 -296.83984375 l 1,15,-1
 565.759765625 1326.75976562 l 1,8,-1
EndSplineSet
EndChar

StartChar: guillemotleft
Encoding: 171 171 175
Width: 776
VWidth: 1639
GlyphClass: 2
Flags: W
LayerCount: 2
Fore
SplineSet
304.209960938 -41 m 1,0,1
 298.325195312 -59.5263671875 298.325195312 -59.5263671875 268.129882812 -29.51953125 c 1,2,3
 226.510742188 8.2119140625 226.510742188 8.2119140625 191.049804688 62.3203125 c 0,4,5
 109.926757812 186.635742188 109.926757812 186.635742188 100.849609375 388.6796875 c 0,6,7
 91.5263671875 598.159179688 91.5263671875 598.159179688 184.489257812 770.799804688 c 0,8,9
 223.528320312 841.79296875 223.528320312 841.79296875 261.569335938 882.3203125 c 1,10,11
 305.64453125 926.39453125 305.64453125 926.39453125 304.209960938 902 c 1,12,13
 326.430664062 919.77734375 326.430664062 919.77734375 327.254882812 905.426757812 c 0,14,15
 327.193359375 902.888671875 327.193359375 902.888671875 327.169921875 902 c 1,14,15
 345.400390625 912.360351562 345.400390625 912.360351562 348.489257812 911.83984375 c 1,16,17
 350.52734375 908.826171875 350.52734375 908.826171875 348.489257812 895.440429688 c 1,18,19
 348.489257812 849.51953125 l 1,20,21
 343.598632812 836.630859375 343.598632812 836.630859375 314.049804688 782.280273438 c 1,22,23
 295.086914062 741.5 295.086914062 741.5 279.609375 695.360351562 c 0,24,25
 213.513671875 484.974609375 213.513671875 484.974609375 259.9296875 250.919921875 c 0,26,27
 281.233398438 144.244140625 281.233398438 144.244140625 325.529296875 57.400390625 c 0,28,29
 326.670898438 54.7373046875 326.670898438 54.7373046875 332.063476562 45.6298828125 c 0,30,31
 354.506835938 5.125 354.506835938 5.125 345.209960938 -3.2802734375 c 1,30,-1
 345.209960938 -4.919921875 l 1,31,32
 352.856445312 -18.162109375 352.856445312 -18.162109375 345.209960938 -26.240234375 c 1,33,-1
 345.209960938 -27.8798828125 l 1,34,35
 358.137695312 -45.65625 358.137695312 -45.65625 342.423828125 -46.6826171875 c 0,36,37
 335.091796875 -47.1611328125 335.091796875 -47.1611328125 327.169921875 -41 c 1,36,37
 321.543945312 -56.103515625 321.543945312 -56.103515625 304.209960938 -41 c 1,0,1
528.889648438 -41 m 1,38,39
 523.004882812 -59.5263671875 523.004882812 -59.5263671875 492.809570312 -29.51953125 c 0,40,41
 444.5546875 19.353515625 444.5546875 19.353515625 417.369140625 60.6796875 c 0,42,43
 334.276367188 192.259765625 334.276367188 192.259765625 325.529296875 391.959960938 c 1,44,45
 318.420898438 605.19921875 318.420898438 605.19921875 409.169921875 769.16015625 c 0,46,47
 450.2265625 843.89453125 450.2265625 843.89453125 486.25 882.3203125 c 0,48,49
 504.588867188 903.186523438 504.588867188 903.186523438 515.76953125 910.200195312 c 0,50,51
 528.661132812 917.934570312 528.661132812 917.934570312 529.1328125 905.37890625 c 0,52,53
 528.954101562 902.864257812 528.954101562 902.864257812 528.889648438 902 c 1,52,53
 547.388671875 920.499023438 547.388671875 920.499023438 551.438476562 908.024414062 c 0,54,55
 551.873046875 904.392578125 551.873046875 904.392578125 551.849609375 902 c 1,54,55
 570.080078125 912.360351562 570.080078125 912.360351562 573.169921875 911.83984375 c 1,56,57
 575.208007812 908.826171875 575.208007812 908.826171875 573.169921875 895.440429688 c 1,58,59
 573.169921875 847.879882812 l 1,60,61
 564.8203125 827.006835938 564.8203125 827.006835938 544.561523438 786.405273438 c 0,62,63
 516.9921875 730.561523438 516.9921875 730.561523438 507.569335938 701.919921875 c 0,62,63
 434.427734375 482.495117188 434.427734375 482.495117188 482.969726562 252.559570312 c 0,64,65
 507.287109375 143.779296875 507.287109375 143.779296875 550.209960938 57.400390625 c 0,66,67
 551.36328125 54.70703125 551.36328125 54.70703125 556.842773438 45.6689453125 c 0,68,69
 581.1875 5.5078125 581.1875 5.5078125 569.889648438 -3.2802734375 c 1,68,-1
 569.889648438 -4.919921875 l 1,69,70
 577.536132812 -18.162109375 577.536132812 -18.162109375 569.889648438 -26.240234375 c 1,71,-1
 569.889648438 -27.8798828125 l 1,72,73
 582.818359375 -45.65625 582.818359375 -45.65625 567.103515625 -46.6826171875 c 0,74,75
 558.970703125 -45.8359375 558.970703125 -45.8359375 551.849609375 -41 c 1,74,75
 546.223632812 -56.103515625 546.223632812 -56.103515625 528.889648438 -41 c 1,38,39
225.489257812 711.759765625 m 1,76,-1
 223.849609375 710.120117188 l 1,77,-1
 225.489257812 711.759765625 l 1,76,-1
450.169921875 711.759765625 m 1,78,79
 447.33203125 707.7890625 447.33203125 707.7890625 428.849609375 669.120117188 c 1,80,81
 407.266601562 616.169921875 407.266601562 616.169921875 397.689453125 582.200195312 c 0,82,83
 345.314453125 396.54296875 345.314453125 396.54296875 409.169921875 218.120117188 c 0,84,85
 418.174804688 191.018554688 418.174804688 191.018554688 463.290039062 104.959960938 c 1,86,-1
 464.9296875 104.959960938 l 1,87,88
 460.454101562 124.78125 460.454101562 124.78125 450.036132812 163.318359375 c 0,89,90
 433.869140625 223.784179688 433.869140625 223.784179688 428.849609375 254.200195312 c 0,89,90
 397.76171875 480.865234375 397.76171875 480.865234375 450.169921875 711.759765625 c 1,78,79
223.849609375 708.48046875 m 1,91,92
 221.291015625 704.38671875 221.291015625 704.38671875 204.169921875 669.120117188 c 0,93,94
 190.51171875 637.979492188 190.51171875 637.979492188 171.369140625 580.559570312 c 1,95,96
 119.362304688 393.626953125 119.362304688 393.626953125 186.129882812 211.559570312 c 0,97,98
 200.151367188 172.267578125 200.151367188 172.267578125 238.609375 104.959960938 c 1,99,-1
 240.25 104.959960938 l 1,100,101
 236.41015625 120.318359375 236.41015625 120.318359375 227.719726562 150.578125 c 0,102,103
 214.056640625 198.657226562 214.056640625 198.657226562 209.08984375 223.040039062 c 0,102,103
 184.46484375 368.115234375 184.46484375 368.115234375 194.330078125 516.599609375 c 0,104,105
 201.0703125 595.866210938 201.0703125 595.866210938 207.44921875 634.6796875 c 0,106,107
 209.41796875 644.51953125 209.41796875 644.51953125 214.403320312 664.200195312 c 0,108,109
 221.830078125 694.266601562 221.830078125 694.266601562 223.849609375 708.48046875 c 1,91,92
EndSplineSet
EndChar

StartChar: guillemotright
Encoding: 187 187 176
Width: 777
VWidth: 1639
GlyphClass: 2
Flags: W
LayerCount: 2
Fore
SplineSet
104.994140625 890.51953125 m 1,0,1
 93.8916015625 911.138671875 93.8916015625 911.138671875 107.469726562 910.875 c 0,2,3
 115.21875 909.333007812 115.21875 909.333007812 123.034179688 903.639648438 c 1,2,3
 126.5234375 918.825195312 126.5234375 918.825195312 145.994140625 903.639648438 c 1,4,5
 148.366210938 925.1796875 148.366210938 925.1796875 188.633789062 883.959960938 c 0,6,7
 233.849609375 835.643554688 233.849609375 835.643554688 268.994140625 765.879882812 c 0,8,9
 363.469726562 574.943359375 363.469726562 574.943359375 349.353515625 364.080078125 c 1,10,11
 334.21484375 172.96875 334.21484375 172.96875 254.233398438 54.1201171875 c 0,12,13
 226.047851562 10.5166015625 226.047851562 10.5166015625 182.07421875 -31.16015625 c 0,14,15
 180.43359375 -32.7998046875 180.43359375 -32.7998046875 177.973632812 -35.259765625 c 0,16,17
 175.513671875 -37.7197265625 175.513671875 -37.7197265625 171.4140625 -41 c 0,18,19
 167.313476562 -44.2802734375 167.313476562 -44.2802734375 164.034179688 -45.919921875 c 0,20,21
 160.75390625 -47.5595703125 160.75390625 -47.5595703125 156.654296875 -48.3798828125 c 0,22,23
 152.553710938 -49.2001953125 152.553710938 -49.2001953125 150.09375 -47.5595703125 c 0,24,25
 147.633789062 -45.919921875 147.633789062 -45.919921875 147.633789062 -41 c 1,16,17
 128.497070312 -52.4501953125 128.497070312 -52.4501953125 124.673828125 -41 c 1,18,19
 107.237304688 -54.94921875 107.237304688 -54.94921875 102.84375 -42.681640625 c 1,20,21
 102.043945312 -35.1318359375 102.043945312 -35.1318359375 106.633789062 -26.240234375 c 1,20,21
 98.8232421875 -19.642578125 98.8232421875 -19.642578125 106.633789062 -3.2802734375 c 1,22,23
 97.5087890625 4.01171875 97.5087890625 4.01171875 116.473632812 39.3603515625 c 0,24,25
 149.787109375 101.637695312 149.787109375 101.637695312 168.954101562 165.639648438 c 0,26,27
 248.828125 427.727539062 248.828125 427.727539062 172.233398438 687.16015625 c 0,28,29
 156.504882812 742.770507812 156.504882812 742.770507812 114.833984375 823.280273438 c 1,30,31
 99.513671875 860.866210938 99.513671875 860.866210938 104.994140625 867.559570312 c 1,32,33
 98.5634765625 884.694335938 98.5634765625 884.694335938 104.994140625 890.51953125 c 1,0,1
350.994140625 -41 m 1,34,35
 335.25 -51.49609375 335.25 -51.49609375 331.313476562 -47.5595703125 c 0,36,37
 328.39453125 -44.1103515625 328.39453125 -44.1103515625 329.673828125 -29.51953125 c 0,38,39
 329.673828125 -24.6142578125 329.673828125 -24.6142578125 328.791992188 -14.4951171875 c 0,40,41
 327.439453125 9.6875 327.439453125 9.6875 331.313476562 19.6796875 c 0,40,41
 493.334960938 338.436523438 493.334960938 338.436523438 406.75390625 660.919921875 c 0,42,43
 390.16015625 718.654296875 390.16015625 718.654296875 332.954101562 839.6796875 c 0,44,45
 329.673828125 847.879882812 329.673828125 847.879882812 328.034179688 855.259765625 c 0,46,47
 326.393554688 862.639648438 326.393554688 862.639648438 327.213867188 878.219726562 c 2,48,-1
 328.034179688 893.799804688 l 2,46,47
 330.572265625 913.461914062 330.572265625 913.461914062 329.673828125 911.83984375 c 1,48,49
 334.59375 915.120117188 334.59375 915.120117188 346.815429688 905.411132812 c 2,50,-1
 349.353515625 903.639648438 l 1,50,51
 352.56640625 916.361328125 352.56640625 916.361328125 372.313476562 903.639648438 c 1,52,53
 374.686523438 925.1796875 374.686523438 925.1796875 414.954101562 883.959960938 c 1,54,55
 455.456054688 836.75390625 455.456054688 836.75390625 498.59375 759.3203125 c 1,56,57
 586.03515625 593.77734375 586.03515625 593.77734375 575.673828125 373.919921875 c 0,58,59
 566.149414062 183.845703125 566.149414062 183.845703125 485.473632812 60.6796875 c 1,60,61
 441.788085938 -0.873046875 441.788085938 -0.873046875 410.034179688 -29.51953125 c 0,62,63
 408.393554688 -31.16015625 408.393554688 -31.16015625 405.93359375 -33.6201171875 c 0,64,65
 403.473632812 -36.080078125 403.473632812 -36.080078125 398.553710938 -39.3603515625 c 0,66,67
 393.633789062 -42.6396484375 393.633789062 -42.6396484375 390.353515625 -45.099609375 c 0,68,69
 387.07421875 -47.5595703125 387.07421875 -47.5595703125 383.793945312 -48.3798828125 c 0,70,71
 380.513671875 -49.2001953125 380.513671875 -49.2001953125 377.233398438 -47.5595703125 c 0,72,73
 373.954101562 -45.919921875 373.954101562 -45.919921875 373.954101562 -41 c 1,64,65
 353.887695312 -50.2333984375 353.887695312 -50.2333984375 350.994140625 -41 c 1,34,35
451.034179688 716.6796875 m 1,66,-1
 449.393554688 715.040039062 l 1,67,-1
 451.034179688 716.6796875 l 1,66,-1
226.353515625 713.400390625 m 1,68,-1
 224.713867188 711.759765625 l 1,69,-1
 226.353515625 713.400390625 l 1,68,-1
452.673828125 713.400390625 m 1,70,71
 451.209960938 706.079101562 451.209960938 706.079101562 464.461914062 656.6640625 c 0,72,73
 465.383789062 652.905273438 465.383789062 652.905273438 465.793945312 651.080078125 c 0,72,73
 476.736328125 591.009765625 476.736328125 591.009765625 482.194335938 518.240234375 c 0,74,75
 497.407226562 296.579101562 497.407226562 296.579101562 436.2734375 104.959960938 c 1,76,-1
 437.9140625 104.959960938 l 1,77,78
 536.3828125 248.561523438 536.3828125 248.561523438 528.819335938 439.818359375 c 0,79,80
 526.9453125 481.091796875 526.9453125 481.091796875 519.9140625 518.240234375 c 0,79,80
 508.067382812 578.5703125 508.067382812 578.5703125 452.673828125 713.400390625 c 1,70,71
227.994140625 710.120117188 m 1,81,82
 225.688476562 702.435546875 225.688476562 702.435546875 239.40625 651.845703125 c 0,83,84
 240.58203125 647.079101562 240.58203125 647.079101562 241.114257812 644.51953125 c 0,83,84
 252.055664062 575.702148438 252.055664062 575.702148438 257.513671875 492 c 0,85,86
 266.63671875 355.96484375 266.63671875 355.96484375 237.833984375 208.280273438 c 0,87,88
 233.96484375 187.965820312 233.96484375 187.965820312 222.7734375 148.375976562 c 0,89,90
 214.866210938 120.150390625 214.866210938 120.150390625 211.59375 106.599609375 c 1,89,-1
 213.233398438 106.599609375 l 1,90,91
 312.245117188 256.169921875 312.245117188 256.169921875 302.196289062 448.392578125 c 0,92,93
 300.008789062 485.990234375 300.008789062 485.990234375 293.59375 519.879882812 c 0,92,93
 282.96875 579.74609375 282.96875 579.74609375 227.994140625 710.120117188 c 1,81,82
211.59375 104.959960938 m 1,94,-1
 209.954101562 103.3203125 l 1,95,-1
 211.59375 104.959960938 l 1,94,-1
EndSplineSet
EndChar

StartChar: guilsinglleft
Encoding: 8249 8249 195
Width: 566
GlyphClass: 2
Flags: W
LayerCount: 2
Fore
SplineSet
350 70 m 1,0,1
 363 48 363 48 363 35 c 0,2,3
 363 26 363 26 352 26 c 0,4,5
 343 26 343 26 326 33 c 1,6,7
 273 73 273 73 230 128 c 128,-1,8
 187 183 187 183 155 255 c 0,9,10
 126 321 126 321 113.5 385 c 128,-1,11
 101 449 101 449 100 513 c 1,12,13
 100 656 100 656 164 783 c 1,14,15
 231 904 231 904 327 958 c 1,16,17
 354 969 354 969 358 969 c 0,18,19
 366 969 366 969 366 963 c 0,20,21
 366 953 366 953 343 912 c 1,22,23
 224 746 224 746 224 513 c 0,24,25
 224 249 224 249 350 70 c 1,0,1
EndSplineSet
EndChar

StartChar: guilsinglright
Encoding: 8250 8250 196
Width: 569
GlyphClass: 2
Flags: W
LayerCount: 2
Fore
SplineSet
115 70 m 1,0,1
 244 249 244 249 244 513 c 0,2,3
 244 751 244 751 122 913 c 1,4,5
 100 954 100 954 100 963 c 0,6,7
 100 969 100 969 108 969 c 0,8,9
 110 969 110 969 118 966.5 c 128,-1,10
 126 964 126 964 137 958 c 0,11,12
 188 931 188 931 228.5 887 c 128,-1,13
 269 843 269 843 301 783 c 0,14,15
 336 718 336 718 352 650.5 c 128,-1,16
 368 583 368 583 369 513 c 0,17,18
 369 450 369 450 353.5 385 c 128,-1,19
 338 320 338 320 309 255 c 0,20,21
 279 188 279 188 235 130 c 128,-1,22
 191 72 191 72 138 33 c 1,23,24
 124 26 124 26 113 26 c 0,25,26
 101 26 101 26 101 35 c 0,27,28
 101 47 101 47 115 70 c 1,0,1
EndSplineSet
EndChar

StartChar: afii57451
Encoding: 1611 1611 311
AltUni2: 00fe70.ffffffff.0
Width: 18
VWidth: 1639
GlyphClass: 2
Flags: HW
AnchorPoint: "GposMark2BaseAnchorHamzaErabAbove_01_01" 185.92 1474.36 mark 0
AnchorPoint: "GposMark2BaseAnchorHamzaErabBelow_01_01" 185.92 1994.24 mark 0
AnchorPoint: "GposMark2BaseAnchorClassErabAbove_01_02" 185.92 1474.36 mark 0
AnchorPoint: "GposMark2MarkAnchorHamzaErabAbove_01_01" 185.92 1474.36 mark 0
AnchorPoint: "GposMark2MarkAnchorHamzaErabBelow_01_01" 185.92 1994.24 mark 0
AnchorPoint: "GposMark2MarkAnchorShaddaErabAbove_01_02" 185.92 1474.36 mark 0
AnchorPoint: "GposMark2MarkAnchorShaddaErabBelow_01_02" 185.92 1994.24 mark 0
LayerCount: 2
Fore
SplineSet
389.280273438 1994.24023438 m 1,0,-1
 386 1981.12011719 l 1,1,-1
 413.879882812 1994.24023438 l 1,2,-1
 408.959960938 1981.12011719 l 1,3,-1
 436.83984375 1994.24023438 l 1,4,-1
 425.360351562 1966.36035156 l 1,5,-1
 436.83984375 1971.28027344 l 1,6,-1
 425.360351562 1943.40039062 l 1,7,-1
 436.83984375 1948.3203125 l 1,8,-1
 408.959960938 1877.79980469 l 1,9,-1
 395.83984375 1843.36035156 l 1,10,-1
 354.83984375 1823.6796875 l 1,11,-1
 267.919921875 1781.04003906 l 1,12,-1
 -5.9599609375 1646.55957031 l 1,13,-1
 -2.6796875 1658.04003906 l 1,14,-1
 -28.919921875 1646.55957031 l 1,15,-1
 -25.6396484375 1658.04003906 l 1,16,-1
 -51.8798828125 1646.55957031 l 1,17,-1
 -42.0400390625 1674.44042969 l 1,18,-1
 -51.8798828125 1669.51953125 l 1,19,-1
 -42.0400390625 1697.40039062 l 1,20,-1
 -51.8798828125 1692.48046875 l 1,21,22
 -50.6650390625 1700.98339844 -50.6650390625 1700.98339844 -27.4912109375 1756.74316406 c 0,23,24
 -26.2119140625 1759.91699219 -26.2119140625 1759.91699219 -25.6396484375 1761.36035156 c 0,25,26
 -23.6259765625 1764.71679688 -23.6259765625 1764.71679688 -20.68359375 1773.1171875 c 0,27,28
 -15.7021484375 1785.36328125 -15.7021484375 1785.36328125 -12.5205078125 1789.24023438 c 0,29,30
 -9.9423828125 1791.44921875 -9.9423828125 1791.44921875 22.3232421875 1806.59472656 c 0,31,32
 25.48046875 1808.203125 25.48046875 1808.203125 26.83984375 1808.91992188 c 0,33,34
 42.8408203125 1817.81933594 42.8408203125 1817.81933594 107.200195312 1849.91992188 c 0,35,36
 136.90234375 1865.03222656 136.90234375 1865.03222656 197.376953125 1894.62988281 c 0,37,38
 328.202148438 1958.80566406 328.202148438 1958.80566406 389.280273438 1994.24023438 c 1,0,-1
386 1981.12011719 m 1,39,-1
 384.360351562 1979.48046875 l 1,40,-1
 386 1981.12011719 l 1,39,-1
408.959960938 1981.12011719 m 1,41,-1
 407.3203125 1979.48046875 l 1,42,-1
 408.959960938 1981.12011719 l 1,41,-1
356.479492188 1907.3203125 m 1,43,44
 319.073242188 1891.91699219 319.073242188 1891.91699219 146.469726562 1801.17675781 c 0,45,46
 126.249023438 1790.58789062 126.249023438 1790.58789062 110.479492188 1782.6796875 c 0,47,48
 101.459960938 1778.58007812 101.459960938 1778.58007812 82.599609375 1768.74023438 c 0,49,50
 63.25390625 1758.74707031 63.25390625 1758.74707031 54.7197265625 1754.79980469 c 0,51,52
 31.189453125 1739.41113281 31.189453125 1739.41113281 28.4794921875 1731.83984375 c 1,53,54
 66.65234375 1747.55761719 66.65234375 1747.55761719 266.344726562 1848.29003906 c 0,55,56
 272.137695312 1851.20605469 272.137695312 1851.20605469 276.120117188 1853.20019531 c 0,57,58
 282.139648438 1856.20996094 282.139648438 1856.20996094 296.79296875 1862.20800781 c 0,59,60
 350.283203125 1885.76367188 350.283203125 1885.76367188 356.479492188 1907.3203125 c 1,43,44
376.16015625 1822.04003906 m 1,61,-1
 374.51953125 1808.91992188 l 1,62,-1
 400.759765625 1822.04003906 l 1,63,-1
 397.479492188 1808.91992188 l 1,64,-1
 423.719726562 1822.04003906 l 1,65,-1
 415.51953125 1795.79980469 l 1,66,-1
 423.719726562 1799.08007812 l 1,67,-1
 415.51953125 1772.83984375 l 1,68,-1
 423.719726562 1776.12011719 l 1,69,-1
 395.83984375 1702.3203125 l 1,70,-1
 382.719726562 1672.79980469 l 1,71,-1
 340.080078125 1649.83984375 l 1,72,-1
 253.16015625 1607.20019531 l 1,73,-1
 -19.080078125 1474.36035156 l 1,74,-1
 -14.16015625 1487.48046875 l 1,75,-1
 -42.0400390625 1474.36035156 l 1,76,-1
 -37.1201171875 1487.48046875 l 1,77,-1
 -65 1474.36035156 l 1,78,-1
 -53.5205078125 1502.24023438 l 1,79,-1
 -65 1497.3203125 l 1,80,-1
 -53.5205078125 1525.20019531 l 1,81,-1
 -65 1520.28027344 l 1,82,83
 -59.2236328125 1536.11523438 -59.2236328125 1536.11523438 -37.1201171875 1587.51953125 c 0,84,85
 -25.8544921875 1614.43457031 -25.8544921875 1614.43457031 -24 1617.04003906 c 0,86,87
 -20.7197265625 1621.95996094 -20.7197265625 1621.95996094 -14.98046875 1625.24023438 c 128,-1,88
 -9.240234375 1628.51953125 -9.240234375 1628.51953125 2.240234375 1632.62011719 c 2,89,-1
 13.7197265625 1636.71972656 l 1,90,91
 26.83984375 1643.28027344 26.83984375 1643.28027344 53.900390625 1657.21972656 c 0,92,93
 81.4638671875 1671.39648438 81.4638671875 1671.39648438 94.080078125 1677.71972656 c 0,94,95
 123.782226562 1692.83203125 123.782226562 1692.83203125 184.256835938 1722.43066406 c 0,96,97
 315.08203125 1786.60546875 315.08203125 1786.60546875 376.16015625 1822.04003906 c 1,61,-1
415.51953125 1795.79980469 m 1,98,-1
 413.879882812 1794.16015625 l 1,99,-1
 415.51953125 1795.79980469 l 1,98,-1
415.51953125 1772.83984375 m 1,100,-1
 413.879882812 1771.20019531 l 1,101,-1
 415.51953125 1772.83984375 l 1,100,-1
345 1735.12011719 m 1,102,103
 334.77734375 1732.11328125 334.77734375 1732.11328125 272.80859375 1699.13378906 c 0,104,105
 268.639648438 1696.9609375 268.639648438 1696.9609375 266.280273438 1695.75976562 c 0,106,107
 238.400390625 1681.8203125 238.400390625 1681.8203125 181.8203125 1653.12011719 c 0,108,109
 124.713867188 1624.16503906 124.713867188 1624.16503906 97.3603515625 1610.48046875 c 0,110,111
 88.33984375 1606.37988281 88.33984375 1606.37988281 69.4794921875 1596.54003906 c 0,112,113
 50.1337890625 1586.546875 50.1337890625 1586.546875 41.599609375 1582.59960938 c 0,114,115
 20.67578125 1570.30859375 20.67578125 1570.30859375 17 1561.28027344 c 1,116,117
 29.572265625 1565.54589844 29.572265625 1565.54589844 108.83984375 1605.55957031 c 0,118,119
 135.080078125 1618.6796875 135.080078125 1618.6796875 187.559570312 1644.09960938 c 0,120,121
 240.586914062 1669.80957031 240.586914062 1669.80957031 266.280273438 1682.63964844 c 0,122,123
 272.46875 1685.734375 272.46875 1685.734375 287.1484375 1691.67773438 c 0,124,125
 337.76953125 1713.82714844 337.76953125 1713.82714844 345 1735.12011719 c 1,102,103
EndSplineSet
EndChar

StartChar: afii57452
Encoding: 1612 1612 312
AltUni2: 00fe72.ffffffff.0
Width: 16
VWidth: 1639
GlyphClass: 2
Flags: HW
AnchorPoint: "GposMark2BaseAnchorHamzaErabAbove_01_01" 150.5 1473.07 mark 0
AnchorPoint: "GposMark2BaseAnchorHamzaErabBelow_01_01" 150.5 1998.13 mark 0
AnchorPoint: "GposMark2BaseAnchorClassErabAbove_01_02" 150.5 1473.07 mark 0
AnchorPoint: "GposMark2MarkAnchorHamzaErabAbove_01_01" 150.5 1473.07 mark 0
AnchorPoint: "GposMark2MarkAnchorHamzaErabBelow_01_01" 150.5 1998.13 mark 0
AnchorPoint: "GposMark2MarkAnchorShaddaErabAbove_01_02" 150.5 1473.07 mark 0
AnchorPoint: "GposMark2MarkAnchorShaddaErabBelow_01_02" 150.5 1998.13 mark 0
LayerCount: 2
Fore
SplineSet
95.5595703125 1644.91992188 m 1,0,1
 116.96875 1655.94921875 116.96875 1655.94921875 131.639648438 1666.24023438 c 0,2,3
 132.870117188 1667.46972656 132.870117188 1667.46972656 136.713867188 1669.9296875 c 0,4,5
 142.055664062 1674.5546875 142.055664062 1674.5546875 143.120117188 1676.08007812 c 0,6,7
 144.759765625 1679.36035156 144.759765625 1679.36035156 139.471679688 1688.56445312 c 2,8,-1
 138.200195312 1690.83984375 l 2,9,10
 128.346679688 1711.28320312 128.346679688 1711.28320312 125.080078125 1722 c 0,11,12
 115.803710938 1763.58300781 115.803710938 1763.58300781 121.799804688 1817.12011719 c 1,13,14
 134.33203125 1892.30957031 134.33203125 1892.30957031 226.973632812 1958.14550781 c 0,15,16
 232.606445312 1962.06542969 232.606445312 1962.06542969 236.599609375 1964.71972656 c 0,17,18
 284.075195312 1998.12890625 284.075195312 1998.12890625 347.793945312 1986.93457031 c 1,19,20
 391.82421875 1977.4609375 391.82421875 1977.4609375 407.16015625 1946.6796875 c 1,21,22
 416.991210938 1920.42675781 416.991210938 1920.42675781 417 1869.59960938 c 0,23,24
 415.91015625 1758.1875 415.91015625 1758.1875 372.719726562 1700.6796875 c 1,25,26
 394.702148438 1695.390625 394.702148438 1695.390625 402.240234375 1687.55957031 c 1,27,28
 403.095703125 1684.0390625 403.095703125 1684.0390625 402.240234375 1649.83984375 c 0,29,30
 401.935546875 1645.11914062 401.935546875 1645.11914062 392.400390625 1546.51953125 c 1,31,-1
 369.440429688 1551.44042969 l 1,32,33
 366.755859375 1544.91894531 366.755859375 1544.91894531 346.479492188 1551.44042969 c 1,34,35
 343.841796875 1544.63476562 343.841796875 1544.63476562 321.879882812 1551.44042969 c 0,36,37
 292.180664062 1562.59667969 292.180664062 1562.59667969 269.400390625 1576.04003906 c 2,38,-1
 251.360351562 1587.51953125 l 1,39,40
 245.619140625 1585.48535156 245.619140625 1585.48535156 230.040039062 1572.75976562 c 0,41,42
 222.66015625 1567.83984375 222.66015625 1567.83984375 208.719726562 1558.8203125 c 0,43,44
 194.15625 1549.36523438 194.15625 1549.36523438 187.400390625 1544.87988281 c 0,45,46
 67.169921875 1473.07421875 67.169921875 1473.07421875 -6.1201171875 1476 c 0,47,48
 -11.8603515625 1476.8203125 -11.8603515625 1476.8203125 -25.7998046875 1475.1796875 c 128,-1,49
 -39.740234375 1473.54003906 -39.740234375 1473.54003906 -45.48046875 1474.36035156 c 0,50,51
 -54.029296875 1476.49707031 -54.029296875 1476.49707031 -90.0830078125 1503.14550781 c 0,52,53
 -96.990234375 1507.96484375 -96.990234375 1507.96484375 -101.240234375 1510.44042969 c 1,54,-1
 -101.240234375 1513.71972656 l 1,55,-1
 -86.48046875 1525.20019531 l 1,56,-1
 -101.240234375 1533.40039062 l 1,57,-1
 -101.240234375 1536.6796875 l 1,58,-1
 -86.48046875 1548.16015625 l 1,59,-1
 -101.240234375 1556.36035156 l 1,60,-1
 -101.240234375 1559.63964844 l 1,61,62
 -49.091796875 1595.8203125 -49.091796875 1595.8203125 -29.080078125 1638.36035156 c 1,63,64
 -17.8662109375 1671.88769531 -17.8662109375 1671.88769531 -29.080078125 1676.08007812 c 1,65,66
 -36.953125 1676.3671875 -36.953125 1676.3671875 -68.4404296875 1659.6796875 c 1,67,-1
 -68.4404296875 1669.51953125 l 1,68,-1
 -91.400390625 1659.6796875 l 1,69,-1
 -91.400390625 1669.51953125 l 1,70,-1
 -114.360351562 1659.6796875 l 1,71,72
 -114.360351562 1668.70019531 -114.360351562 1668.70019531 -115.1796875 1687.55957031 c 0,73,74
 -115.956054688 1706.90625 -115.956054688 1706.90625 -116 1715.44042969 c 0,75,76
 -115.407226562 1737.28515625 -115.407226562 1737.28515625 -114.360351562 1740.04003906 c 0,77,78
 -109.440429688 1748.24023438 -109.440429688 1748.24023438 -90.375 1764.48632812 c 2,79,-1
 -88.1201171875 1766.28027344 l 2,80,81
 -42.412109375 1802.06835938 -42.412109375 1802.06835938 21.759765625 1802.36035156 c 1,82,83
 69.533203125 1800.92089844 69.533203125 1800.92089844 87.3603515625 1782.6796875 c 1,84,85
 110.596679688 1753.63476562 110.596679688 1753.63476562 96.3134765625 1650.50292969 c 0,86,87
 95.7998046875 1646.71972656 95.7998046875 1646.71972656 95.5595703125 1644.91992188 c 1,0,1
333.360351562 1754.79980469 m 1,88,89
 374.243164062 1832.85058594 374.243164062 1832.85058594 369.440429688 1872.87988281 c 1,90,91
 355.165039062 1932.83105469 355.165039062 1932.83105469 320.240234375 1935.20019531 c 0,92,93
 289.3125 1937.26171875 289.3125 1937.26171875 251.616210938 1894.07617188 c 0,94,95
 248.239257812 1889.98339844 248.239257812 1889.98339844 246.440429688 1887.63964844 c 1,96,97
 265.693359375 1894.34863281 265.693359375 1894.34863281 308.759765625 1894.20019531 c 0,98,99
 330.904296875 1892.50488281 330.904296875 1892.50488281 335 1887.63964844 c 0,100,101
 343.443359375 1876.19140625 343.443359375 1876.19140625 343.200195312 1846.63964844 c 0,102,103
 342.850585938 1807.95703125 342.850585938 1807.95703125 331.719726562 1754.79980469 c 1,104,-1
 333.360351562 1754.79980469 l 1,88,89
271.040039062 1769.55957031 m 1,105,106
 284.801757812 1793.43457031 284.801757812 1793.43457031 292.360351562 1820.40039062 c 1,107,108
 291.212890625 1837.828125 291.212890625 1837.828125 290.719726562 1838.44042969 c 0,109,110
 287.440429688 1840.08007812 287.440429688 1840.08007812 280.908203125 1836.03613281 c 2,111,-1
 279.240234375 1835.16015625 l 1,112,113
 253.579101562 1816.59765625 253.579101562 1816.59765625 249.719726562 1807.28027344 c 1,114,115
 246.407226562 1790.85742188 246.407226562 1790.85742188 271.040039062 1769.55957031 c 1,105,106
195.599609375 1828.59960938 m 1,116,117
 153.291015625 1792.43164062 153.291015625 1792.43164062 187.400390625 1728.55957031 c 0,118,119
 189.860351562 1724.87011719 189.860351562 1724.87011719 196.1640625 1717.49023438 c 0,120,121
 206.356445312 1704.64355469 206.356445312 1704.64355469 208.719726562 1699.04003906 c 0,122,123
 209.657226562 1696.22851562 209.657226562 1696.22851562 207.247070312 1690.60546875 c 0,124,125
 205.7421875 1685.84179688 205.7421875 1685.84179688 205.440429688 1684.28027344 c 0,126,127
 205.440429688 1682.07714844 205.440429688 1682.07714844 207.368164062 1679.05566406 c 0,128,129
 209.625976562 1675.51757812 209.625976562 1675.51757812 208.719726562 1672.79980469 c 0,130,131
 208.719726562 1670.33984375 208.719726562 1670.33984375 207.080078125 1667.05957031 c 0,132,133
 205.7265625 1662.79003906 205.7265625 1662.79003906 205.440429688 1661.3203125 c 0,134,135
 205.440429688 1659.1171875 205.440429688 1659.1171875 207.368164062 1656.09570312 c 0,136,137
 209.625976562 1652.55761719 209.625976562 1652.55761719 208.719726562 1649.83984375 c 0,138,139
 207.080078125 1640 207.080078125 1640 178.5234375 1620.40136719 c 2,140,-1
 175.919921875 1618.6796875 l 2,141,142
 168.122070312 1613.71777344 168.122070312 1613.71777344 74.1689453125 1567.85449219 c 0,143,144
 66.4892578125 1564.0546875 66.4892578125 1564.0546875 61.1201171875 1561.28027344 c 1,145,-1
 66.0400390625 1572.75976562 l 1,146,-1
 38.16015625 1561.28027344 l 1,147,-1
 43.080078125 1572.75976562 l 1,148,-1
 15.2001953125 1561.28027344 l 1,149,-1
 28.3203125 1589.16015625 l 1,150,-1
 13.5595703125 1585.87988281 l 1,151,152
 1.6494140625 1561.66601562 1.6494140625 1561.66601562 -24.16015625 1538.3203125 c 1,153,-1
 -24.16015625 1536.6796875 l 1,154,155
 -2.359375 1523.64160156 -2.359375 1523.64160156 49.6396484375 1546.51953125 c 1,156,157
 116.03125 1571.62402344 116.03125 1571.62402344 175.919921875 1613.75976562 c 1,158,159
 216.321289062 1640.08691406 216.321289062 1640.08691406 230.040039062 1654.75976562 c 1,160,-1
 231.6796875 1654.75976562 l 1,161,162
 241.579101562 1644.48144531 241.579101562 1644.48144531 253 1654.75976562 c 1,163,-1
 254.639648438 1654.75976562 l 1,164,165
 264.5390625 1644.48144531 264.5390625 1644.48144531 275.959960938 1654.75976562 c 1,166,-1
 277.599609375 1654.75976562 l 1,167,168
 301.713867188 1621.83203125 301.713867188 1621.83203125 348.120117188 1605.55957031 c 1,169,-1
 353.040039062 1644.91992188 l 1,170,-1
 298.919921875 1667.87988281 l 1,171,-1
 312.040039062 1685.91992188 l 1,172,-1
 298.919921875 1690.83984375 l 1,173,-1
 312.040039062 1708.87988281 l 1,174,175
 306.495117188 1710.86035156 306.495117188 1710.86035156 262.703125 1710.671875 c 0,176,177
 249.828125 1711.16699219 249.828125 1711.16699219 241.51953125 1713.79980469 c 0,178,179
 230.087890625 1718.35058594 230.087890625 1718.35058594 216.919921875 1735.12011719 c 0,180,181
 195.455078125 1766.4921875 195.455078125 1766.4921875 195.599609375 1828.59960938 c 1,116,117
29.9599609375 1636.71972656 m 1,182,183
 54.7177734375 1692.55859375 54.7177734375 1692.55859375 51.2802734375 1713.79980469 c 0,184,185
 43.65234375 1758.04101562 43.65234375 1758.04101562 3.0771484375 1749.09179688 c 0,186,187
 -16.2607421875 1744.82617188 -16.2607421875 1744.82617188 -30.7197265625 1728.55957031 c 1,188,189
 9.33203125 1727.75195312 9.33203125 1727.75195312 16.83984375 1723.63964844 c 1,190,191
 32.552734375 1704.26074219 32.552734375 1704.26074219 28.3203125 1636.71972656 c 1,192,-1
 29.9599609375 1636.71972656 l 1,182,183
95.5595703125 1644.91992188 m 1,193,-1
 93.919921875 1643.28027344 l 1,194,-1
 95.5595703125 1644.91992188 l 1,193,-1
28.3203125 1612.12011719 m 1,195,-1
 25.0400390625 1612.12011719 l 1,196,-1
 20.1201171875 1597.36035156 l 1,197,-1
 21.759765625 1597.36035156 l 1,198,-1
 28.3203125 1612.12011719 l 1,195,-1
20.1201171875 1595.71972656 m 1,199,-1
 18.4794921875 1594.08007812 l 1,200,-1
 20.1201171875 1595.71972656 l 1,199,-1
18.4794921875 1592.44042969 m 1,201,-1
 16.83984375 1590.79980469 l 1,202,-1
 18.4794921875 1592.44042969 l 1,201,-1
16.83984375 1589.16015625 m 1,203,-1
 15.2001953125 1587.51953125 l 1,204,-1
 16.83984375 1589.16015625 l 1,203,-1
EndSplineSet
EndChar

StartChar: afii57453
Encoding: 1613 1613 313
AltUni2: 00fe74.ffffffff.0
Width: 16
VWidth: 1639
GlyphClass: 2
Flags: HW
AnchorPoint: "GposMark2BaseAnchorClassErabBelow_01_02" -37.0801 -114.8 mark 0
LayerCount: 2
Fore
SplineSet
166.280273438 -114.799804688 m 1,0,-1
 163 -127.919921875 l 1,1,-1
 190.879882812 -114.799804688 l 1,2,-1
 185.959960938 -127.919921875 l 1,3,-1
 213.83984375 -114.799804688 l 1,4,-1
 202.360351562 -142.6796875 l 1,5,-1
 213.83984375 -137.759765625 l 1,6,-1
 202.360351562 -165.639648438 l 1,7,-1
 213.83984375 -160.719726562 l 1,8,-1
 185.959960938 -231.240234375 l 1,9,-1
 172.83984375 -265.6796875 l 1,10,-1
 131.83984375 -285.360351562 l 1,11,-1
 44.919921875 -328 l 1,12,-1
 -228.959960938 -462.48046875 l 1,13,-1
 -225.6796875 -451 l 1,14,-1
 -251.919921875 -462.48046875 l 1,15,-1
 -248.639648438 -451 l 1,16,-1
 -274.879882812 -462.48046875 l 1,17,-1
 -265.040039062 -434.599609375 l 1,18,-1
 -274.879882812 -439.51953125 l 1,19,-1
 -265.040039062 -411.639648438 l 1,20,-1
 -274.879882812 -416.559570312 l 1,21,22
 -273.665039062 -408.056640625 -273.665039062 -408.056640625 -250.491210938 -352.296875 c 0,23,24
 -249.211914062 -349.123046875 -249.211914062 -349.123046875 -248.639648438 -347.6796875 c 0,25,26
 -246.625976562 -344.323242188 -246.625976562 -344.323242188 -243.68359375 -335.922851562 c 0,27,28
 -238.702148438 -323.676757812 -238.702148438 -323.676757812 -235.520507812 -319.799804688 c 0,29,30
 -232.942382812 -317.590820312 -232.942382812 -317.590820312 -200.676757812 -302.4453125 c 0,31,32
 -197.51953125 -300.836914062 -197.51953125 -300.836914062 -196.16015625 -300.120117188 c 0,33,34
 -180.159179688 -291.220703125 -180.159179688 -291.220703125 -115.799804688 -259.120117188 c 0,35,36
 -86.09765625 -244.0078125 -86.09765625 -244.0078125 -25.623046875 -214.41015625 c 0,37,38
 105.202148438 -150.234375 105.202148438 -150.234375 166.280273438 -114.799804688 c 1,0,-1
163 -127.919921875 m 1,39,-1
 161.360351562 -129.559570312 l 1,40,-1
 163 -127.919921875 l 1,39,-1
185.959960938 -127.919921875 m 1,41,-1
 184.3203125 -129.559570312 l 1,42,-1
 185.959960938 -127.919921875 l 1,41,-1
133.479492188 -201.719726562 m 1,43,44
 96.0732421875 -217.123046875 96.0732421875 -217.123046875 -76.5302734375 -307.86328125 c 0,45,46
 -96.7509765625 -318.452148438 -96.7509765625 -318.452148438 -112.520507812 -326.360351562 c 0,47,48
 -121.540039062 -330.459960938 -121.540039062 -330.459960938 -140.400390625 -340.299804688 c 0,49,50
 -159.74609375 -350.29296875 -159.74609375 -350.29296875 -168.280273438 -354.240234375 c 0,51,52
 -191.810546875 -369.62890625 -191.810546875 -369.62890625 -194.520507812 -377.200195312 c 1,53,54
 -156.34765625 -361.481445312 -156.34765625 -361.481445312 43.3447265625 -260.75 c 0,55,56
 49.1376953125 -257.833984375 49.1376953125 -257.833984375 53.1201171875 -255.83984375 c 0,57,58
 59.1396484375 -252.830078125 59.1396484375 -252.830078125 73.79296875 -246.83203125 c 0,59,60
 127.283203125 -223.276367188 127.283203125 -223.276367188 133.479492188 -201.719726562 c 1,43,44
153.16015625 -287 m 1,61,-1
 151.51953125 -300.120117188 l 1,62,-1
 177.759765625 -287 l 1,63,-1
 174.479492188 -300.120117188 l 1,64,-1
 200.719726562 -287 l 1,65,-1
 192.51953125 -313.240234375 l 1,66,-1
 200.719726562 -309.959960938 l 1,67,-1
 192.51953125 -336.200195312 l 1,68,-1
 200.719726562 -332.919921875 l 1,69,-1
 172.83984375 -406.719726562 l 1,70,-1
 159.719726562 -436.240234375 l 1,71,-1
 117.080078125 -459.200195312 l 1,72,-1
 30.16015625 -501.83984375 l 1,73,-1
 -242.080078125 -634.6796875 l 1,74,-1
 -237.16015625 -621.559570312 l 1,75,-1
 -265.040039062 -634.6796875 l 1,76,-1
 -260.120117188 -621.559570312 l 1,77,-1
 -288 -634.6796875 l 1,78,-1
 -276.520507812 -606.799804688 l 1,79,-1
 -288 -611.719726562 l 1,80,-1
 -276.520507812 -583.83984375 l 1,81,-1
 -288 -588.759765625 l 1,82,83
 -282.223632812 -572.924804688 -282.223632812 -572.924804688 -260.120117188 -521.51953125 c 0,84,85
 -248.854492188 -494.60546875 -248.854492188 -494.60546875 -247 -492 c 0,86,87
 -243.719726562 -487.080078125 -243.719726562 -487.080078125 -237.98046875 -483.799804688 c 128,-1,88
 -232.240234375 -480.51953125 -232.240234375 -480.51953125 -220.759765625 -476.419921875 c 2,89,-1
 -209.280273438 -472.3203125 l 1,90,91
 -196.16015625 -465.759765625 -196.16015625 -465.759765625 -169.099609375 -451.8203125 c 0,92,93
 -141.536132812 -437.643554688 -141.536132812 -437.643554688 -128.919921875 -431.3203125 c 0,94,95
 -99.2177734375 -416.208007812 -99.2177734375 -416.208007812 -38.7431640625 -386.609375 c 0,96,97
 92.08203125 -322.434570312 92.08203125 -322.434570312 153.16015625 -287 c 1,61,-1
192.51953125 -313.240234375 m 1,98,-1
 190.879882812 -314.879882812 l 1,99,-1
 192.51953125 -313.240234375 l 1,98,-1
192.51953125 -336.200195312 m 1,100,-1
 190.879882812 -337.83984375 l 1,101,-1
 192.51953125 -336.200195312 l 1,100,-1
122 -373.919921875 m 1,102,103
 111.77734375 -376.926757812 111.77734375 -376.926757812 49.80859375 -409.90625 c 0,104,105
 45.6396484375 -412.079101562 45.6396484375 -412.079101562 43.2802734375 -413.280273438 c 0,106,107
 15.400390625 -427.219726562 15.400390625 -427.219726562 -41.1796875 -455.919921875 c 0,108,109
 -98.2861328125 -484.875 -98.2861328125 -484.875 -125.639648438 -498.559570312 c 0,110,111
 -134.66015625 -502.66015625 -134.66015625 -502.66015625 -153.520507812 -512.5 c 0,112,113
 -172.866210938 -522.493164062 -172.866210938 -522.493164062 -181.400390625 -526.440429688 c 0,114,115
 -202.32421875 -538.731445312 -202.32421875 -538.731445312 -206 -547.759765625 c 1,116,117
 -193.427734375 -543.494140625 -193.427734375 -543.494140625 -114.16015625 -503.48046875 c 0,118,119
 -87.919921875 -490.360351562 -87.919921875 -490.360351562 -35.4404296875 -464.940429688 c 0,120,121
 17.5869140625 -439.23046875 17.5869140625 -439.23046875 43.2802734375 -426.400390625 c 0,122,123
 49.46875 -423.305664062 49.46875 -423.305664062 64.1484375 -417.362304688 c 0,124,125
 114.76953125 -395.212890625 114.76953125 -395.212890625 122 -373.919921875 c 1,102,103
EndSplineSet
EndChar

StartChar: afii57454
Encoding: 1614 1614 314
AltUni2: 00fe76.ffffffff.0
Width: 16
VWidth: 1639
GlyphClass: 2
Flags: HW
AnchorPoint: "GposMark2BaseAnchorHamzaErabAbove_01_01" 151.36 1474.36 mark 0
AnchorPoint: "GposMark2BaseAnchorHamzaErabBelow_01_01" 151.36 1822.04 mark 0
AnchorPoint: "GposMark2BaseAnchorClassErabAbove_01_02" 151.36 1474.36 mark 0
AnchorPoint: "GposMark2MarkAnchorHamzaErabAbove_01_01" 151.36 1474.36 mark 0
AnchorPoint: "GposMark2MarkAnchorHamzaErabBelow_01_01" 151.36 1822.04 mark 0
AnchorPoint: "GposMark2MarkAnchorShaddaErabAbove_01_02" 151.36 1474.36 mark 0
AnchorPoint: "GposMark2MarkAnchorShaddaErabBelow_01_02" 151.36 1822.04 mark 0
LayerCount: 2
Fore
SplineSet
348.16015625 1822.04003906 m 1,0,-1
 346.51953125 1808.91992188 l 1,1,-1
 372.759765625 1822.04003906 l 1,2,-1
 369.479492188 1808.91992188 l 1,3,-1
 395.719726562 1822.04003906 l 1,4,-1
 387.51953125 1795.79980469 l 1,5,-1
 395.719726562 1799.08007812 l 1,6,-1
 387.51953125 1772.83984375 l 1,7,-1
 395.719726562 1776.12011719 l 1,8,-1
 367.83984375 1702.3203125 l 1,9,-1
 354.719726562 1672.79980469 l 1,10,-1
 312.080078125 1649.83984375 l 1,11,-1
 225.16015625 1607.20019531 l 1,12,-1
 -47.080078125 1474.36035156 l 1,13,-1
 -42.16015625 1487.48046875 l 1,14,-1
 -70.0400390625 1474.36035156 l 1,15,-1
 -65.1201171875 1487.48046875 l 1,16,-1
 -93 1474.36035156 l 1,17,-1
 -81.5205078125 1502.24023438 l 1,18,-1
 -93 1497.3203125 l 1,19,-1
 -81.5205078125 1525.20019531 l 1,20,-1
 -93 1520.28027344 l 1,21,22
 -87.2236328125 1536.11523438 -87.2236328125 1536.11523438 -65.1201171875 1587.51953125 c 0,23,24
 -53.8544921875 1614.43457031 -53.8544921875 1614.43457031 -52 1617.04003906 c 0,25,26
 -48.7197265625 1621.95996094 -48.7197265625 1621.95996094 -42.98046875 1625.24023438 c 128,-1,27
 -37.240234375 1628.51953125 -37.240234375 1628.51953125 -25.759765625 1632.62011719 c 2,28,-1
 -14.2802734375 1636.71972656 l 1,29,30
 -1.16015625 1643.28027344 -1.16015625 1643.28027344 25.900390625 1657.21972656 c 0,31,32
 53.4638671875 1671.39648438 53.4638671875 1671.39648438 66.080078125 1677.71972656 c 0,33,34
 95.7822265625 1692.83203125 95.7822265625 1692.83203125 156.256835938 1722.43066406 c 0,35,36
 287.08203125 1786.60546875 287.08203125 1786.60546875 348.16015625 1822.04003906 c 1,0,-1
387.51953125 1795.79980469 m 1,37,-1
 385.879882812 1794.16015625 l 1,38,-1
 387.51953125 1795.79980469 l 1,37,-1
387.51953125 1772.83984375 m 1,39,-1
 385.879882812 1771.20019531 l 1,40,-1
 387.51953125 1772.83984375 l 1,39,-1
317 1735.12011719 m 1,41,42
 306.77734375 1732.11328125 306.77734375 1732.11328125 244.80859375 1699.13378906 c 0,43,44
 240.639648438 1696.9609375 240.639648438 1696.9609375 238.280273438 1695.75976562 c 0,45,46
 210.400390625 1681.8203125 210.400390625 1681.8203125 153.8203125 1653.12011719 c 0,47,48
 96.7138671875 1624.16503906 96.7138671875 1624.16503906 69.3603515625 1610.48046875 c 0,49,50
 60.33984375 1606.37988281 60.33984375 1606.37988281 41.4794921875 1596.54003906 c 0,51,52
 22.1337890625 1586.546875 22.1337890625 1586.546875 13.599609375 1582.59960938 c 0,53,54
 -7.32421875 1570.30859375 -7.32421875 1570.30859375 -11 1561.28027344 c 1,55,56
 1.572265625 1565.54589844 1.572265625 1565.54589844 80.83984375 1605.55957031 c 0,57,58
 107.080078125 1618.6796875 107.080078125 1618.6796875 159.559570312 1644.09960938 c 0,59,60
 212.586914062 1669.80957031 212.586914062 1669.80957031 238.280273438 1682.63964844 c 0,61,62
 244.46875 1685.734375 244.46875 1685.734375 259.1484375 1691.67773438 c 0,63,64
 309.76953125 1713.82714844 309.76953125 1713.82714844 317 1735.12011719 c 1,41,42
EndSplineSet
EndChar

StartChar: afii57455
Encoding: 1615 1615 315
AltUni2: 00fe78.ffffffff.0
Width: 16
VWidth: 1639
GlyphClass: 2
Flags: HW
AnchorPoint: "GposMark2BaseAnchorHamzaErabAbove_01_01" 112.311 1467.92 mark 0
AnchorPoint: "GposMark2BaseAnchorHamzaErabBelow_01_01" 112.311 1984.64 mark 0
AnchorPoint: "GposMark2BaseAnchorClassErabAbove_01_02" 112.311 1467.92 mark 0
AnchorPoint: "GposMark2MarkAnchorHamzaErabAbove_01_01" 112.311 1467.92 mark 0
AnchorPoint: "GposMark2MarkAnchorHamzaErabBelow_01_01" 112.311 1984.64 mark 0
AnchorPoint: "GposMark2MarkAnchorShaddaErabAbove_01_02" 112.311 1467.92 mark 0
AnchorPoint: "GposMark2MarkAnchorShaddaErabBelow_01_02" 112.311 1984.64 mark 0
LayerCount: 2
Fore
SplineSet
-144.267578125 1541.59960938 m 1,0,1
 -151.143554688 1554.56835938 -151.143554688 1554.56835938 -149.1875 1561.28027344 c 0,2,3
 -147.546875 1566.20019531 -147.546875 1566.20019531 -136.971679688 1568.68847656 c 2,4,-1
 -134.426757812 1569.48046875 l 2,5,6
 -127.046875 1571.94042969 -127.046875 1571.94042969 -113.107421875 1576.86035156 c 0,7,8
 -98.5439453125 1581.96875 -98.5439453125 1581.96875 -91.787109375 1584.24023438 c 0,9,10
 -22.9072265625 1608.83984375 -22.9072265625 1608.83984375 41.052734375 1643.28027344 c 0,11,12
 90.8310546875 1670.43164062 90.8310546875 1670.43164062 96.1748046875 1675.39257812 c 0,13,14
 98.96875 1678.20507812 98.96875 1678.20507812 100.092773438 1679.36035156 c 0,15,16
 103.19921875 1684.87109375 103.19921875 1684.87109375 93.533203125 1700.6796875 c 1,17,18
 79.212890625 1733.87988281 79.212890625 1733.87988281 78.7724609375 1756.44042969 c 0,19,20
 79.14453125 1813.16113281 79.14453125 1813.16113281 80.4130859375 1818.75976562 c 0,21,22
 89.669921875 1863.95019531 89.669921875 1863.95019531 134.533203125 1912.24023438 c 0,23,24
 187.447265625 1970.09667969 187.447265625 1970.09667969 234.573242188 1982.75976562 c 0,25,26
 245.543945312 1984.640625 245.543945312 1984.640625 287.052734375 1984.40039062 c 0,27,28
 352.434570312 1982.171875 352.434570312 1982.171875 369.052734375 1938.48046875 c 0,29,30
 375.765625 1919.33789062 375.765625 1919.33789062 375.61328125 1871.24023438 c 0,31,32
 374.998046875 1791.98925781 374.998046875 1791.98925781 360.852539062 1754.79980469 c 0,33,34
 357.404296875 1744.45605469 357.404296875 1744.45605469 346.09375 1725.77148438 c 0,35,36
 336.099609375 1708.63574219 336.099609375 1708.63574219 332.97265625 1700.6796875 c 1,37,-1
 360.852539062 1689.20019531 l 1,38,-1
 354.29296875 1549.79980469 l 1,39,-1
 331.333007812 1556.36035156 l 1,40,-1
 331.333007812 1549.79980469 l 1,41,-1
 308.373046875 1556.36035156 l 1,42,-1
 308.373046875 1549.79980469 l 1,43,44
 280.076171875 1554.16308594 280.076171875 1554.16308594 236.212890625 1577.6796875 c 0,45,46
 207.9296875 1593.90722656 207.9296875 1593.90722656 206.692382812 1594.08007812 c 0,47,48
 201.961914062 1592.33789062 201.961914062 1592.33789062 182.092773438 1576.04003906 c 0,49,50
 162.39453125 1561.95703125 162.39453125 1561.95703125 124.692382812 1539.95996094 c 0,51,52
 37.2216796875 1488.76171875 37.2216796875 1488.76171875 -49.1474609375 1474.36035156 c 1,53,54
 -100.381835938 1467.91796875 -100.381835938 1467.91796875 -129.506835938 1482.55957031 c 1,55,56
 -148.780273438 1494.12402344 -148.780273438 1494.12402344 -150 1510.01269531 c 1,57,58
 -148.134765625 1516.05566406 -148.134765625 1516.05566406 -144.267578125 1518.63964844 c 1,59,60
 -149.57421875 1537.69628906 -149.57421875 1537.69628906 -144.267578125 1541.59960938 c 1,0,1
291.97265625 1756.44042969 m 1,61,62
 335.891601562 1822.62304688 335.891601562 1822.62304688 328.052734375 1876.16015625 c 1,63,64
 316.913085938 1928.14453125 316.913085938 1928.14453125 283.393554688 1934.63085938 c 0,65,66
 280.30078125 1935.04492188 280.30078125 1935.04492188 278.852539062 1935.20019531 c 0,67,68
 247.645507812 1935.20019531 247.645507812 1935.20019531 207.514648438 1893.046875 c 0,69,70
 202.731445312 1887.70410156 202.731445312 1887.70410156 200.1328125 1884.36035156 c 1,71,72
 227.138671875 1895.02832031 227.138671875 1895.02832031 265.732421875 1892.55957031 c 0,73,74
 289.25 1891.22949219 289.25 1891.22949219 293.61328125 1887.63964844 c 0,75,76
 300.716796875 1877.68554688 300.716796875 1877.68554688 300.172851562 1848.28027344 c 0,77,78
 299.655273438 1786.93066406 299.655273438 1786.93066406 290.333007812 1756.44042969 c 1,79,-1
 291.97265625 1756.44042969 l 1,61,62
249.333007812 1840.08007812 m 1,80,81
 210.47265625 1816.45605469 210.47265625 1816.45605469 206.692382812 1805.63964844 c 1,82,83
 205.749023438 1789.90234375 205.749023438 1789.90234375 229.65234375 1769.55957031 c 1,84,85
 259.869140625 1815.0390625 259.869140625 1815.0390625 249.333007812 1840.08007812 c 1,80,81
152.573242188 1830.24023438 m 1,86,87
 129.217773438 1805.27148438 129.217773438 1805.27148438 127.97265625 1781.04003906 c 0,88,89
 127.97265625 1744.50683594 127.97265625 1744.50683594 167.368164062 1708.86425781 c 0,90,91
 172.323242188 1704.6875 172.323242188 1704.6875 175.533203125 1702.3203125 c 1,92,-1
 175.533203125 1700.6796875 l 1,93,-1
 164.052734375 1692.48046875 l 1,94,-1
 175.533203125 1679.36035156 l 1,95,-1
 175.533203125 1677.71972656 l 1,96,-1
 164.052734375 1669.51953125 l 1,97,-1
 175.533203125 1656.40039062 l 1,98,-1
 175.533203125 1654.75976562 l 1,99,-1
 172.252929688 1651.48046875 l 1,100,101
 183.178710938 1655.02246094 183.178710938 1655.02246094 195.212890625 1653.12011719 c 0,102,103
 197.6171875 1653.12011719 197.6171875 1653.12011719 201.442382812 1656.09667969 c 0,104,105
 205.524414062 1657.828125 205.524414062 1657.828125 206.692382812 1658.04003906 c 0,106,107
 209.15234375 1658.04003906 209.15234375 1658.04003906 213.252929688 1655.58007812 c 128,-1,108
 217.352539062 1653.12011719 217.352539062 1653.12011719 219.8125 1653.12011719 c 0,109,110
 221.739257812 1653.76171875 221.739257812 1653.76171875 224.4765625 1655.96386719 c 0,111,112
 229.3984375 1658.0078125 229.3984375 1658.0078125 231.29296875 1658.04003906 c 0,113,114
 235.190429688 1655.89648438 235.190429688 1655.89648438 252.61328125 1641.63964844 c 1,115,116
 290.500976562 1615.99316406 290.500976562 1615.99316406 310.012695312 1612.12011719 c 1,117,-1
 310.012695312 1641.63964844 l 1,118,-1
 296.892578125 1651.48046875 l 1,119,-1
 259.172851562 1671.16015625 l 1,120,-1
 272.29296875 1687.55957031 l 1,121,-1
 259.172851562 1694.12011719 l 1,122,-1
 272.29296875 1710.51953125 l 1,123,124
 264.536132812 1714.3984375 264.536132812 1714.3984375 222.859375 1710.78710938 c 0,125,126
 209.44921875 1710.18457031 209.44921875 1710.18457031 201.772460938 1712.16015625 c 0,127,128
 188.853515625 1715.38183594 188.853515625 1715.38183594 175.533203125 1731.83984375 c 0,129,130
 157.784179688 1755.50488281 157.784179688 1755.50488281 154.383789062 1810.39550781 c 0,131,132
 153.52734375 1822.43945312 153.52734375 1822.43945312 152.573242188 1830.24023438 c 1,86,87
165.692382812 1646.55957031 m 1,133,-1
 162.413085938 1643.28027344 l 1,134,-1
 165.692382812 1646.55957031 l 1,133,-1
159.1328125 1641.63964844 m 1,135,-1
 154.212890625 1636.71972656 l 1,136,-1
 159.1328125 1641.63964844 l 1,135,-1
152.573242188 1636.71972656 m 1,137,-1
 147.65234375 1631.79980469 l 1,138,-1
 152.573242188 1636.71972656 l 1,137,-1
146.012695312 1631.79980469 m 1,139,140
 14.931640625 1557.72753906 14.931640625 1557.72753906 -77.02734375 1526.83984375 c 1,141,-1
 -77.02734375 1525.20019531 l 1,142,143
 -11.455078125 1531.56542969 -11.455078125 1531.56542969 90.2529296875 1592.44042969 c 0,144,145
 133.083984375 1616.59375 133.083984375 1616.59375 146.012695312 1631.79980469 c 1,139,140
EndSplineSet
EndChar

StartChar: afii57456
Encoding: 1616 1616 316
AltUni2: 00fe7a.ffffffff.0
Width: 14
VWidth: 1639
GlyphClass: 2
Flags: HW
AnchorPoint: "GposMark2BaseAnchorClassErabBelow_01_02" -37.6401 -116.44 mark 0
LayerCount: 2
Fore
SplineSet
-282 -416.559570312 m 1,0,1
 -277.900390625 -405.900390625 -277.900390625 -405.900390625 -268.879882812 -384.580078125 c 0,2,3
 -259.688476562 -362.712890625 -259.688476562 -362.712890625 -255.759765625 -352.599609375 c 0,4,5
 -245.942382812 -325.451171875 -245.942382812 -325.451171875 -241 -319.799804688 c 0,6,7
 -237.026367188 -315.954101562 -237.026367188 -315.954101562 -206.559570312 -301.759765625 c 0,8,9
 -193.440429688 -295.200195312 -193.440429688 -295.200195312 -166.379882812 -281.259765625 c 0,10,11
 -138.81640625 -267.083984375 -138.81640625 -267.083984375 -126.200195312 -260.759765625 c 0,12,13
 -95.8603515625 -245.1796875 -95.8603515625 -245.1796875 -35.1796875 -214.83984375 c 0,14,15
 26.046875 -184.205078125 26.046875 -184.205078125 55.83984375 -168.919921875 c 0,16,17
 137.748046875 -123.870117188 137.748046875 -123.870117188 152.345703125 -119.005859375 c 0,18,19
 157.444335938 -117.396484375 157.444335938 -117.396484375 160.799804688 -116.440429688 c 1,20,-1
 157.51953125 -127.919921875 l 1,21,-1
 183.759765625 -116.440429688 l 1,22,-1
 180.479492188 -127.919921875 l 1,23,-1
 206.719726562 -116.440429688 l 1,24,-1
 196.879882812 -142.6796875 l 1,25,-1
 206.719726562 -139.400390625 l 1,26,-1
 196.879882812 -165.639648438 l 1,27,-1
 206.719726562 -162.360351562 l 1,28,-1
 180.479492188 -232.879882812 l 1,29,-1
 167.360351562 -264.040039062 l 1,30,-1
 129.639648438 -283.719726562 l 1,31,-1
 46 -324.719726562 l 1,32,-1
 -134.400390625 -413.280273438 l 1,33,-1
 -236.080078125 -462.48046875 l 1,34,-1
 -231.16015625 -449.360351562 l 1,35,-1
 -259.040039062 -462.48046875 l 1,36,-1
 -254.120117188 -449.360351562 l 1,37,-1
 -282 -462.48046875 l 1,38,-1
 -270.520507812 -434.599609375 l 1,39,-1
 -282 -439.51953125 l 1,40,-1
 -270.520507812 -411.639648438 l 1,41,-1
 -282 -416.559570312 l 1,0,1
157.51953125 -127.919921875 m 1,42,-1
 155.879882812 -129.559570312 l 1,43,-1
 157.51953125 -127.919921875 l 1,42,-1
180.479492188 -127.919921875 m 1,44,-1
 178.83984375 -129.559570312 l 1,45,-1
 180.479492188 -127.919921875 l 1,44,-1
128 -201.719726562 m 1,46,47
 113.076171875 -206.728515625 113.076171875 -206.728515625 49.2802734375 -241.080078125 c 0,48,49
 18.380859375 -256.135742188 18.380859375 -256.135742188 -121.280273438 -328 c 1,50,-1
 -175.400390625 -354.240234375 l 1,51,52
 -197.030273438 -368.672851562 -197.030273438 -368.672851562 -200 -377.200195312 c 1,53,54
 -176.719726562 -367.614257812 -176.719726562 -367.614257812 -19.6630859375 -287.39453125 c 0,55,56
 15.85546875 -269.3671875 15.85546875 -269.3671875 42.7197265625 -257.48046875 c 1,57,58
 116.901367188 -229.662109375 116.901367188 -229.662109375 126.419921875 -206.69921875 c 0,59,60
 127.524414062 -203.387695312 127.524414062 -203.387695312 128 -201.719726562 c 1,46,47
EndSplineSet
EndChar

StartChar: afii57457
Encoding: 1617 1617 317
AltUni2: 00fe7c.ffffffff.0
Width: 21
VWidth: 1639
GlyphClass: 2
Flags: HW
AnchorPoint: "GposMark2BaseAnchorHamzaErabAbove_01_01" 159.537 1474.36 mark 0
AnchorPoint: "GposMark2BaseAnchorHamzaErabBelow_01_01" 159.537 1914.65 mark 0
AnchorPoint: "GposMark2BaseAnchorClassErabAbove_01_02" 159.537 1474.36 mark 0
AnchorPoint: "GposMark2MarkAnchorHamzaErabAbove_01_01" 159.537 1474.36 mark 0
AnchorPoint: "GposMark2MarkAnchorHamzaErabBelow_01_01" 159.537 1914.65 mark 0
AnchorPoint: "GposMark2MarkAnchorShaddaErabAbove_01_02" 159.537 2064.65 basemark 0
AnchorPoint: "GposMark2MarkAnchorShaddaErabBelow_01_02" 159.537 1324.36 basemark 0
LayerCount: 2
Fore
SplineSet
250.0703125 1738.40039062 m 1,0,1
 271.874023438 1779.26464844 271.874023438 1779.26464844 282.870117188 1841.71972656 c 1,2,3
 288.083984375 1890.85253906 288.083984375 1890.85253906 297.630859375 1905.6796875 c 1,4,5
 305.3125 1912.546875 305.3125 1912.546875 318.950195312 1899.12011719 c 1,6,7
 324.129882812 1912.89160156 324.129882812 1912.89160156 341.91015625 1899.12011719 c 1,8,9
 346.475585938 1914.64746094 346.475585938 1914.64746094 361.590820312 1902.40039062 c 1,10,11
 367.110351562 1894.71679688 367.110351562 1894.71679688 374.7109375 1866.3203125 c 1,12,13
 379.627929688 1830.25683594 379.627929688 1830.25683594 379.630859375 1763 c 0,14,15
 379.387695312 1708.86523438 379.387695312 1708.86523438 377.990234375 1699.04003906 c 0,16,17
 357.811523438 1609.67675781 357.811523438 1609.67675781 297.350585938 1581.74023438 c 0,18,19
 288.588867188 1578.03417969 288.588867188 1578.03417969 281.23046875 1576.04003906 c 0,20,21
 270.219726562 1574.16113281 270.219726562 1574.16113281 230.390625 1574.40039062 c 0,22,23
 211.467773438 1573.44335938 211.467773438 1573.44335938 207.430664062 1571.12011719 c 0,24,25
 201.263671875 1566.63476562 201.263671875 1566.63476562 173.830078125 1528.27148438 c 0,26,27
 167.530273438 1519.99804688 167.530273438 1519.99804688 163.150390625 1515.36035156 c 0,28,29
 116.622070312 1474.64160156 116.622070312 1474.64160156 38.5107421875 1474.36035156 c 0,30,31
 -3.8876953125 1475.3125 -3.8876953125 1475.3125 -18.8896484375 1484.20019531 c 1,32,33
 -43.490234375 1502.90429688 -43.490234375 1502.90429688 -50.0498046875 1549.79980469 c 0,34,35
 -60.556640625 1640.20605469 -60.556640625 1640.20605469 -33.6494140625 1708.87988281 c 0,36,37
 -12.83203125 1758.84277344 -12.83203125 1758.84277344 -0.814453125 1766.50878906 c 0,38,39
 3.2490234375 1768.60351562 3.2490234375 1768.60351562 5.7109375 1769.55957031 c 1,40,-1
 12.2705078125 1758.08007812 l 1,41,-1
 28.6708984375 1769.55957031 l 1,42,-1
 35.23046875 1758.08007812 l 1,43,-1
 51.630859375 1769.55957031 l 1,44,45
 62.05859375 1754.39160156 62.05859375 1754.39160156 57.837890625 1697.64355469 c 0,46,47
 56.8330078125 1679.60839844 56.8330078125 1679.60839844 58.1904296875 1669.51953125 c 0,48,49
 65.384765625 1640.00097656 65.384765625 1640.00097656 71.310546875 1636.71972656 c 0,50,51
 79.5107421875 1633.44042969 79.5107421875 1633.44042969 90.1708984375 1647.37988281 c 128,-1,52
 100.830078125 1661.3203125 100.830078125 1661.3203125 105.010742188 1671.91210938 c 0,53,54
 105.750976562 1672.79980469 105.750976562 1672.79980469 106.5703125 1674.44042969 c 2,55,-1
 107.390625 1676.08007812 l 2,56,57
 116.157226562 1692.8828125 116.157226562 1692.8828125 144.78515625 1786.14746094 c 0,58,59
 146.89453125 1792.890625 146.89453125 1792.890625 148.390625 1797.44042969 c 0,60,61
 161.579101562 1837.00585938 161.579101562 1837.00585938 162.370117188 1838.05761719 c 0,62,63
 165.237304688 1840.72753906 165.237304688 1840.72753906 166.430664062 1841.71972656 c 0,64,65
 174.991210938 1843.16503906 174.991210938 1843.16503906 181.190429688 1825.3203125 c 1,66,67
 190.182617188 1852.29589844 190.182617188 1852.29589844 202.393554688 1828.93261719 c 0,68,69
 203.670898438 1826.31347656 203.670898438 1826.31347656 204.150390625 1825.3203125 c 1,70,71
 214.983398438 1853.484375 214.983398438 1853.484375 224.719726562 1829.53710938 c 0,72,73
 226.239257812 1825.16796875 226.239257812 1825.16796875 227.110351562 1822.04003906 c 0,74,75
 230.110351562 1811.24023438 230.110351562 1811.24023438 233.444335938 1790.71777344 c 0,76,77
 239.7578125 1755.48730469 239.7578125 1755.48730469 248.430664062 1738.40039062 c 1,78,-1
 250.0703125 1738.40039062 l 1,0,1
330.430664062 1804 m 1,79,80
 327.241210938 1797.30273438 327.241210938 1797.30273438 316.864257812 1740.09375 c 0,81,82
 310.360351562 1710.16210938 310.360351562 1710.16210938 295.990234375 1694.12011719 c 1,83,84
 283.793945312 1683.83886719 283.793945312 1683.83886719 258.270507812 1684.28027344 c 1,85,86
 194.7109375 1681.23535156 194.7109375 1681.23535156 189.390625 1728.55957031 c 1,87,-1
 187.750976562 1728.55957031 l 1,88,89
 181.190429688 1713.79980469 181.190429688 1713.79980469 172.079101562 1682.09375 c 0,90,91
 152.788085938 1618.56640625 152.788085938 1618.56640625 128.7109375 1595.71972656 c 1,92,93
 107.294921875 1577.81640625 107.294921875 1577.81640625 59.830078125 1580.95996094 c 0,94,95
 32.8515625 1582.50195312 32.8515625 1582.50195312 25.390625 1589.16015625 c 0,96,97
 10.6533203125 1607.140625 10.6533203125 1607.140625 10.630859375 1649.83984375 c 1,98,99
 2.4306640625 1643.28027344 2.4306640625 1643.28027344 -0.525390625 1622.29394531 c 2,100,-1
 -0.849609375 1620.3203125 l 1,101,102
 -14.2001953125 1564.24609375 -14.2001953125 1564.24609375 22.3662109375 1533.47851562 c 0,103,104
 29.28515625 1528.27539062 29.28515625 1528.27539062 35.23046875 1525.20019531 c 0,105,106
 53.291015625 1518.63964844 53.291015625 1518.63964844 82.7900390625 1536.6796875 c 0,107,108
 138.450195312 1567.29296875 138.450195312 1567.29296875 161.110351562 1618.83203125 c 0,109,110
 163.440429688 1624.54492188 163.440429688 1624.54492188 164.790039062 1628.51953125 c 1,111,-1
 186.110351562 1621.95996094 l 1,112,-1
 187.750976562 1628.51953125 l 1,113,-1
 209.0703125 1621.95996094 l 1,114,-1
 210.7109375 1628.51953125 l 1,115,116
 214.103515625 1627.84179688 214.103515625 1627.84179688 220.278320312 1625.38085938 c 0,117,118
 228.86328125 1621.95996094 228.86328125 1621.95996094 233.670898438 1621.95996094 c 0,119,120
 259.581054688 1625.20996094 259.581054688 1625.20996094 287.790039062 1656.40039062 c 0,121,122
 340.2578125 1717.75292969 340.2578125 1717.75292969 330.430664062 1804 c 1,79,80
EndSplineSet
EndChar

StartChar: afii57458
Encoding: 1618 1618 318
AltUni2: 00fe7e.ffffffff.0
Width: 24
VWidth: 1639
GlyphClass: 2
Flags: HW
AnchorPoint: "GposMark2BaseAnchorHamzaErabAbove_01_01" 149.98 1457.18 mark 0
AnchorPoint: "GposMark2BaseAnchorHamzaErabBelow_01_01" 149.98 1903.86 mark 0
AnchorPoint: "GposMark2BaseAnchorClassErabAbove_01_02" 149.98 1457.18 mark 0
AnchorPoint: "GposMark2MarkAnchorHamzaErabAbove_01_01" 149.98 1457.18 mark 0
AnchorPoint: "GposMark2MarkAnchorHamzaErabBelow_01_01" 149.98 1903.86 mark 0
AnchorPoint: "GposMark2MarkAnchorShaddaErabAbove_01_02" 149.98 1457.18 mark 0
AnchorPoint: "GposMark2MarkAnchorShaddaErabBelow_01_02" 149.98 1903.86 mark 0
LayerCount: 2
Fore
SplineSet
108.16015625 1889.28027344 m 1,0,1
 226.4765625 1903.85546875 226.4765625 1903.85546875 288.559570312 1843.36035156 c 1,2,3
 345.680664062 1784.41992188 345.680664062 1784.41992188 345.959960938 1666.24023438 c 0,4,5
 345.11328125 1598.17382812 345.11328125 1598.17382812 326.280273438 1562.91992188 c 0,6,7
 284.989257812 1492.48242188 284.989257812 1492.48242188 195.642578125 1476.640625 c 0,8,9
 192.901367188 1476.18164062 192.901367188 1476.18164062 191.799804688 1476 c 0,10,11
 34.3359375 1457.17871094 34.3359375 1457.17871094 -21.400390625 1538.3203125 c 0,12,13
 -45.7060546875 1576.46777344 -45.7060546875 1576.46777344 -46 1638.36035156 c 0,14,15
 -44.984375 1731.92480469 -44.984375 1731.92480469 6.4794921875 1812.20019531 c 1,16,17
 53.216796875 1878.03417969 53.216796875 1878.03417969 108.16015625 1889.28027344 c 1,0,1
22.8798828125 1713.79980469 m 1,18,19
 1.3837890625 1662.20996094 1.3837890625 1662.20996094 1.4345703125 1649.93066406 c 0,20,21
 1.44140625 1648.21972656 1.44140625 1648.21972656 1.5595703125 1646.55957031 c 0,22,23
 4.7509765625 1581.13867188 4.7509765625 1581.13867188 67.9091796875 1541.62792969 c 0,24,25
 104.569335938 1519.87109375 104.569335938 1519.87109375 140.959960938 1521.91992188 c 0,26,27
 217.978515625 1526.32128906 217.978515625 1526.32128906 268.567382812 1591.85058594 c 0,28,29
 277.640625 1604.15039062 277.640625 1604.15039062 283.639648438 1615.40039062 c 0,30,31
 320.922851562 1688.10058594 320.922851562 1688.10058594 267.09765625 1767.52441406 c 0,32,33
 251.978515625 1788.80761719 251.978515625 1788.80761719 234.440429688 1804 c 0,34,35
 154.938476562 1868.92382812 154.938476562 1868.92382812 91.759765625 1812.20019531 c 1,36,37
 68.1240234375 1787.84082031 68.1240234375 1787.84082031 63.8798828125 1781.04003906 c 1,38,39
 81.0517578125 1789.40332031 81.0517578125 1789.40332031 116.360351562 1789.24023438 c 0,40,41
 193.109375 1789.24023438 193.109375 1789.24023438 240.75 1736.09863281 c 0,42,43
 265.047851562 1707.22460938 265.047851562 1707.22460938 267.240234375 1674.44042969 c 1,44,45
 266.458007812 1632.8203125 266.458007812 1632.8203125 262.3203125 1625.24023438 c 0,46,47
 252.224609375 1609.67675781 252.224609375 1609.67675781 224.599609375 1597.36035156 c 0,48,49
 171.932617188 1574.18554688 171.932617188 1574.18554688 86.83984375 1590.79980469 c 0,50,51
 50.5546875 1598.56054688 50.5546875 1598.56054688 36 1613.75976562 c 0,52,53
 15.9033203125 1637.04492188 15.9033203125 1637.04492188 24.51953125 1713.79980469 c 1,54,-1
 22.8798828125 1713.79980469 l 1,18,19
214.759765625 1667.87988281 m 1,55,56
 197.540039062 1690.01953125 197.540039062 1690.01953125 175.400390625 1707.24023438 c 1,57,58
 129.552734375 1736.859375 129.552734375 1736.859375 118 1738.40039062 c 1,59,60
 109.127929688 1736.8828125 109.127929688 1736.8828125 101.599609375 1726.91992188 c 0,61,62
 70.3388671875 1688.54882812 70.3388671875 1688.54882812 73.7197265625 1671.16015625 c 1,63,64
 81.166015625 1652.15429688 81.166015625 1652.15429688 111.440429688 1641.63964844 c 0,65,66
 162.946289062 1623.61328125 162.946289062 1623.61328125 200.462890625 1652.09277344 c 0,67,68
 209.5703125 1660.00683594 209.5703125 1660.00683594 214.759765625 1667.87988281 c 1,55,56
EndSplineSet
EndChar

StartChar: uni0654
Encoding: 1620 1620 320
Width: 39
VWidth: 1639
GlyphClass: 2
Flags: HW
AnchorPoint: "GposMark2BaseAnchorClassErabAbove_01_02" 167.54 1474.36 mark 0
AnchorPoint: "GposMark2MarkAnchorHamzaErabAbove_01_01" 167.54 2054.04 basemark 0
AnchorPoint: "GposMark2MarkAnchorHamzaErabBelow_01_01" 167.54 1324.36 basemark 0
LayerCount: 2
Fore
SplineSet
35.51953125 1608.83984375 m 1,0,1
 -7.140625 1625.02148438 -7.140625 1625.02148438 -7.263671875 1693.01660156 c 0,2,3
 -7.2705078125 1696.97265625 -7.2705078125 1696.97265625 -7.19140625 1704.85253906 c 0,4,5
 -7.1201171875 1711.95117188 -7.1201171875 1711.95117188 -7.1201171875 1715.44042969 c 0,6,7
 -7.1201171875 1794.14648438 -7.1201171875 1794.14648438 66.6494140625 1858.1796875 c 0,8,9
 120.268554688 1903.24609375 120.268554688 1903.24609375 174.919921875 1904.04003906 c 0,10,11
 234.7578125 1904.04003906 234.7578125 1904.04003906 248.703125 1896.52832031 c 0,12,13
 259.331054688 1889.48242188 259.331054688 1889.48242188 265.120117188 1881.08007812 c 0,14,15
 273.297851562 1866.40234375 273.297851562 1866.40234375 273.3203125 1835.16015625 c 0,16,17
 272.848632812 1773.23242188 272.848632812 1773.23242188 266.759765625 1751.51953125 c 0,18,19
 258.143554688 1717.05273438 258.143554688 1717.05273438 244.159179688 1717.15722656 c 1,20,21
 237.907226562 1720.234375 237.907226562 1720.234375 233.959960938 1726.91992188 c 1,22,23
 220.104492188 1712.11230469 220.104492188 1712.11230469 211 1726.91992188 c 1,24,25
 202.181640625 1717.13867188 202.181640625 1717.13867188 196.240234375 1717.08007812 c 1,26,27
 192.635742188 1719.41503906 192.635742188 1719.41503906 181.479492188 1736.75976562 c 0,28,29
 171.16015625 1752.47949219 171.16015625 1752.47949219 153.599609375 1763 c 1,30,31
 136.65234375 1769.28125 136.65234375 1769.28125 127.360351562 1761.36035156 c 0,32,33
 125.719726562 1759.71972656 125.719726562 1759.71972656 124.900390625 1756.44042969 c 128,-1,34
 124.080078125 1753.16015625 124.080078125 1753.16015625 124.900390625 1749.87988281 c 128,-1,35
 125.719726562 1746.59960938 125.719726562 1746.59960938 128.1796875 1743.3203125 c 128,-1,36
 130.639648438 1740.04003906 130.639648438 1740.04003906 133.099609375 1736.75976562 c 128,-1,37
 135.559570312 1733.48046875 135.559570312 1733.48046875 138.83984375 1730.20019531 c 128,-1,38
 142.120117188 1726.91992188 142.120117188 1726.91992188 146.219726562 1723.63964844 c 128,-1,39
 150.3203125 1720.36035156 150.3203125 1720.36035156 151.959960938 1718.71972656 c 128,-1,40
 153.599609375 1717.08007812 153.599609375 1717.08007812 157.700195312 1713.79980469 c 2,41,-1
 161.799804688 1710.51953125 l 1,42,43
 202.9375 1681.73144531 202.9375 1681.73144531 225.759765625 1679.36035156 c 0,44,45
 237.85546875 1678.15039062 237.85546875 1678.15039062 301.200195312 1690.99902344 c 0,46,47
 314.767578125 1693.51269531 314.767578125 1693.51269531 324.16015625 1694.12011719 c 1,48,-1
 322.51953125 1690.83984375 l 1,49,-1
 347.120117188 1694.12011719 l 1,50,-1
 345.479492188 1690.83984375 l 1,51,-1
 370.080078125 1694.12011719 l 1,52,-1
 360.240234375 1669.51953125 l 1,53,-1
 370.080078125 1671.16015625 l 1,54,-1
 360.240234375 1646.55957031 l 1,55,-1
 370.080078125 1648.20019531 l 1,56,-1
 340.559570312 1580.95996094 l 1,57,-1
 327.440429688 1554.71972656 l 1,58,-1
 296.280273438 1548.16015625 l 1,59,-1
 225.759765625 1535.04003906 l 1,60,-1
 104.400390625 1507.16015625 l 1,61,-1
 10.919921875 1474.36035156 l 1,62,-1
 14.2001953125 1484.20019531 l 1,63,-1
 -12.0400390625 1474.36035156 l 1,64,-1
 -8.759765625 1484.20019531 l 1,65,-1
 -35 1474.36035156 l 1,66,-1
 -26.7998046875 1500.59960938 l 1,67,-1
 -35 1497.3203125 l 1,68,-1
 -26.7998046875 1523.55957031 l 1,69,-1
 -35 1520.28027344 l 1,70,71
 -21.8173828125 1575.6484375 -21.8173828125 1575.6484375 24.0947265625 1601.78027344 c 0,72,73
 30.609375 1605.19628906 30.609375 1605.19628906 35.51953125 1607.20019531 c 1,74,-1
 35.51953125 1608.83984375 l 1,0,1
220.83984375 1794.16015625 m 1,75,76
 223.997070312 1822.63085938 223.997070312 1822.63085938 222.479492188 1826.95996094 c 0,77,78
 207.712890625 1871.26074219 207.712890625 1871.26074219 155.490234375 1844.39648438 c 0,79,80
 134.336914062 1832.58203125 134.336914062 1832.58203125 122.440429688 1817.12011719 c 1,81,82
 188.795898438 1815.99121094 188.795898438 1815.99121094 220.83984375 1794.16015625 c 1,75,76
69.9599609375 1756.44042969 m 1,83,84
 60.587890625 1746.04003906 60.587890625 1746.04003906 55.2001953125 1733.48046875 c 0,85,86
 41.5888671875 1704.43359375 41.5888671875 1704.43359375 42.080078125 1695.75976562 c 0,87,88
 45.3603515625 1664.59960938 45.3603515625 1664.59960938 118.985351562 1631.00585938 c 2,89,-1
 120.799804688 1630.16015625 l 1,90,-1
 120.799804688 1628.51953125 l 1,91,-1
 99.4794921875 1620.3203125 l 1,92,-1
 99.4794921875 1618.6796875 l 1,93,-1
 120.799804688 1607.20019531 l 1,94,-1
 120.799804688 1605.55957031 l 1,95,-1
 99.4794921875 1597.36035156 l 1,96,-1
 99.4794921875 1595.71972656 l 1,97,-1
 120.799804688 1584.24023438 l 1,98,-1
 120.799804688 1582.59960938 l 1,99,-1
 76.51953125 1559.63964844 l 1,100,-1
 76.51953125 1558 l 1,101,102
 110.60546875 1569.10742188 110.60546875 1569.10742188 214.280273438 1587.51953125 c 0,103,104
 220.046875 1588.56835938 220.046875 1588.56835938 234.693359375 1589.69335938 c 0,105,106
 268.661132812 1592.9140625 268.661132812 1592.9140625 279.879882812 1599 c 1,107,108
 288.525390625 1605.859375 288.525390625 1605.859375 297.919921875 1635.08007812 c 1,109,110
 198.676757812 1630.56933594 198.676757812 1630.56933594 170.567382812 1637.83691406 c 0,111,112
 133.364257812 1648.49414062 133.364257812 1648.49414062 104.400390625 1674.44042969 c 1,113,114
 81.3974609375 1698.36621094 81.3974609375 1698.36621094 76.51953125 1707.24023438 c 0,115,116
 72.42578125 1718.17285156 72.42578125 1718.17285156 69.9599609375 1756.44042969 c 1,83,84
EndSplineSet
EndChar

StartChar: uni0655
Encoding: 1621 1621 321
Width: 40
VWidth: 1639
GlyphClass: 2
Flags: HW
AnchorPoint: "GposMark2BaseAnchorClassErabBelow_01_02" -52.46 -114.8 mark 0
LayerCount: 2
Fore
SplineSet
-184.48046875 -410 m 1,0,1
 -227.140625 -393.818359375 -227.140625 -393.818359375 -227.263671875 -325.82421875 c 0,2,3
 -227.270507812 -321.8671875 -227.270507812 -321.8671875 -227.19140625 -313.98828125 c 0,4,5
 -227.120117188 -306.889648438 -227.120117188 -306.889648438 -227.120117188 -303.400390625 c 0,6,7
 -227.120117188 -224.694335938 -227.120117188 -224.694335938 -153.350585938 -160.66015625 c 0,8,9
 -100.518554688 -114.799804688 -100.518554688 -114.799804688 -45.080078125 -114.799804688 c 0,10,11
 14.7578125 -114.799804688 14.7578125 -114.799804688 28.703125 -122.311523438 c 0,12,13
 39.3310546875 -129.357421875 39.3310546875 -129.357421875 45.1201171875 -137.759765625 c 0,14,15
 53.2978515625 -152.438476562 53.2978515625 -152.438476562 53.3203125 -183.6796875 c 0,16,17
 52.8486328125 -245.607421875 52.8486328125 -245.607421875 46.759765625 -267.3203125 c 0,18,19
 38.1435546875 -301.787109375 38.1435546875 -301.787109375 24.1591796875 -301.68359375 c 1,20,21
 17.9072265625 -298.60546875 17.9072265625 -298.60546875 13.9599609375 -291.919921875 c 1,22,23
 0.1044921875 -306.727539062 0.1044921875 -306.727539062 -9 -291.919921875 c 1,24,25
 -17.818359375 -301.702148438 -17.818359375 -301.702148438 -23.759765625 -301.759765625 c 1,26,27
 -27.3642578125 -299.424804688 -27.3642578125 -299.424804688 -38.5205078125 -282.080078125 c 0,28,29
 -48.83984375 -266.360351562 -48.83984375 -266.360351562 -66.400390625 -255.83984375 c 1,30,31
 -83.34765625 -249.55859375 -83.34765625 -249.55859375 -92.6396484375 -257.48046875 c 0,32,33
 -94.2802734375 -259.120117188 -94.2802734375 -259.120117188 -95.099609375 -262.400390625 c 128,-1,34
 -95.919921875 -265.6796875 -95.919921875 -265.6796875 -95.099609375 -268.959960938 c 128,-1,35
 -94.2802734375 -272.240234375 -94.2802734375 -272.240234375 -91.8203125 -275.51953125 c 128,-1,36
 -89.3603515625 -278.799804688 -89.3603515625 -278.799804688 -86.900390625 -282.080078125 c 128,-1,37
 -84.4404296875 -285.360351562 -84.4404296875 -285.360351562 -81.16015625 -288.639648438 c 128,-1,38
 -77.8798828125 -291.919921875 -77.8798828125 -291.919921875 -73.7802734375 -295.200195312 c 128,-1,39
 -69.6796875 -298.48046875 -69.6796875 -298.48046875 -68.0400390625 -300.120117188 c 128,-1,40
 -66.400390625 -301.759765625 -66.400390625 -301.759765625 -62.2998046875 -305.040039062 c 2,41,-1
 -58.2001953125 -308.3203125 l 1,42,43
 -17.0625 -337.109375 -17.0625 -337.109375 5.759765625 -339.48046875 c 0,44,45
 17.85546875 -340.689453125 17.85546875 -340.689453125 81.2001953125 -327.840820312 c 0,46,47
 94.767578125 -325.328125 94.767578125 -325.328125 104.16015625 -324.719726562 c 1,48,-1
 102.51953125 -328 l 1,49,-1
 127.120117188 -324.719726562 l 1,50,-1
 125.479492188 -328 l 1,51,-1
 150.080078125 -324.719726562 l 1,52,-1
 140.240234375 -349.3203125 l 1,53,-1
 150.080078125 -347.6796875 l 1,54,-1
 140.240234375 -372.280273438 l 1,55,-1
 150.080078125 -370.639648438 l 1,56,-1
 120.559570312 -437.879882812 l 1,57,-1
 107.440429688 -464.120117188 l 1,58,-1
 76.2802734375 -470.6796875 l 1,59,-1
 5.759765625 -483.799804688 l 1,60,-1
 -115.599609375 -511.6796875 l 1,61,-1
 -209.080078125 -544.48046875 l 1,62,-1
 -205.799804688 -534.639648438 l 1,63,-1
 -232.040039062 -544.48046875 l 1,64,-1
 -228.759765625 -534.639648438 l 1,65,-1
 -255 -544.48046875 l 1,66,-1
 -246.799804688 -518.240234375 l 1,67,-1
 -255 -521.51953125 l 1,68,-1
 -246.799804688 -495.280273438 l 1,69,-1
 -255 -498.559570312 l 1,70,71
 -241.817382812 -443.192382812 -241.817382812 -443.192382812 -195.905273438 -417.059570312 c 0,72,73
 -189.390625 -413.643554688 -189.390625 -413.643554688 -184.48046875 -411.639648438 c 1,74,-1
 -184.48046875 -410 l 1,0,1
0.83984375 -224.6796875 m 1,75,76
 3.9970703125 -196.208984375 3.9970703125 -196.208984375 2.4794921875 -191.879882812 c 0,77,78
 -12.287109375 -147.579101562 -12.287109375 -147.579101562 -64.509765625 -174.444335938 c 0,79,80
 -85.6630859375 -186.2578125 -85.6630859375 -186.2578125 -97.5595703125 -201.719726562 c 1,81,82
 -31.2041015625 -202.848632812 -31.2041015625 -202.848632812 0.83984375 -224.6796875 c 1,75,76
-150.040039062 -262.400390625 m 1,83,84
 -159.412109375 -272.80078125 -159.412109375 -272.80078125 -164.799804688 -285.360351562 c 0,85,86
 -178.411132812 -314.40625 -178.411132812 -314.40625 -177.919921875 -323.080078125 c 0,87,88
 -174.639648438 -354.240234375 -174.639648438 -354.240234375 -101.014648438 -387.833984375 c 2,89,-1
 -99.2001953125 -388.6796875 l 1,90,-1
 -99.2001953125 -390.3203125 l 1,91,-1
 -120.520507812 -398.51953125 l 1,92,-1
 -120.520507812 -400.16015625 l 1,93,-1
 -99.2001953125 -411.639648438 l 1,94,-1
 -99.2001953125 -413.280273438 l 1,95,-1
 -120.520507812 -421.48046875 l 1,96,-1
 -120.520507812 -423.120117188 l 1,97,-1
 -99.2001953125 -434.599609375 l 1,98,-1
 -99.2001953125 -436.240234375 l 1,99,-1
 -143.48046875 -459.200195312 l 1,100,-1
 -143.48046875 -460.83984375 l 1,101,102
 -109.39453125 -449.733398438 -109.39453125 -449.733398438 -5.7197265625 -431.3203125 c 0,103,104
 0.046875 -430.271484375 0.046875 -430.271484375 14.693359375 -429.146484375 c 0,105,106
 48.6611328125 -425.92578125 48.6611328125 -425.92578125 59.8798828125 -419.83984375 c 1,107,108
 68.525390625 -412.98046875 68.525390625 -412.98046875 77.919921875 -383.759765625 c 1,109,110
 -21.3232421875 -388.271484375 -21.3232421875 -388.271484375 -49.4326171875 -381.002929688 c 0,111,112
 -86.6357421875 -370.346679688 -86.6357421875 -370.346679688 -115.599609375 -344.400390625 c 1,113,114
 -138.602539062 -320.473632812 -138.602539062 -320.473632812 -143.48046875 -311.599609375 c 0,115,116
 -147.57421875 -300.666992188 -147.57421875 -300.666992188 -150.040039062 -262.400390625 c 1,83,84
EndSplineSet
EndChar

StartChar: uni0656
Encoding: 1622 1622 322
Width: 70
VWidth: 1639
GlyphClass: 2
Flags: HW
AnchorPoint: "GposMark2BaseAnchorClassErabBelow_01_02" -21.8774 -114.8 mark 0
LayerCount: 2
Fore
SplineSet
12.640625 -114.799804688 m 1,0,1
 13.52734375 -118.346679688 13.52734375 -118.346679688 13.9345703125 -167.419921875 c 0,2,3
 14.083984375 -172.467773438 14.083984375 -172.467773438 14.2802734375 -175.48046875 c 0,4,5
 19.44140625 -221.38671875 19.44140625 -221.38671875 32.3203125 -308.3203125 c 0,6,7
 40.2890625 -363.697265625 40.2890625 -363.697265625 55.2802734375 -447.719726562 c 1,8,9
 68.2451171875 -533.634765625 68.2451171875 -533.634765625 52 -580.559570312 c 1,10,11
 38.1943359375 -613.349609375 38.1943359375 -613.349609375 19.2001953125 -621.559570312 c 0,12,13
 19.2001953125 -623.200195312 19.2001953125 -623.200195312 10.1806640625 -622.379882812 c 2,14,-1
 1.16015625 -621.559570312 l 2,15,16
 -1.419921875 -621.559570312 -1.419921875 -621.559570312 -9.0615234375 -622.279296875 c 0,17,18
 -34.908203125 -623.930664062 -34.908203125 -623.930664062 -41.4794921875 -619.919921875 c 0,19,20
 -43.1201171875 -618.280273438 -43.1201171875 -618.280273438 -44.759765625 -615 c 128,-1,21
 -46.3994140625 -611.719726562 -46.3994140625 -611.719726562 -46.3994140625 -606.799804688 c 128,-1,22
 -46.3994140625 -601.879882812 -46.3994140625 -601.879882812 -46.3994140625 -599.419921875 c 128,-1,23
 -46.3994140625 -596.959960938 -46.3994140625 -596.959960938 -46.3994140625 -591.219726562 c 2,24,-1
 -46.3994140625 -585.48046875 l 1,25,26
 -50.375 -551.311523438 -50.375 -551.311523438 -62.7998046875 -495.280273438 c 0,27,28
 -90.40234375 -373.827148438 -90.40234375 -373.827148438 -105.439453125 -277.16015625 c 0,29,30
 -108.838867188 -252.62890625 -108.838867188 -252.62890625 -112 -211.559570312 c 1,31,-1
 -112 -177.120117188 l 1,32,33
 -109.196289062 -170.54296875 -109.196289062 -170.54296875 -92.3193359375 -159.080078125 c 1,34,35
 -45.6337890625 -120.8828125 -45.6337890625 -120.8828125 -42.068359375 -118.922851562 c 0,36,37
 -36.7705078125 -116.2578125 -36.7705078125 -116.2578125 -33.279296875 -114.799804688 c 1,38,-1
 -31.6396484375 -127.919921875 l 1,39,-1
 -10.3193359375 -114.799804688 l 1,40,-1
 -8.6796875 -127.919921875 l 1,41,-1
 12.640625 -114.799804688 l 1,0,1
-33.279296875 -195.16015625 m 1,42,43
 -55.556640625 -209.904296875 -55.556640625 -209.904296875 -59.51953125 -218.120117188 c 0,44,45
 -62.7998046875 -224.6796875 -62.7998046875 -224.6796875 -58.5244140625 -238.595703125 c 2,46,-1
 -57.8798828125 -241.080078125 l 1,47,-1
 -49.6796875 -293.559570312 l 2,48,49
 -44.2626953125 -324.254882812 -44.2626953125 -324.254882812 -28.9912109375 -385.727539062 c 0,50,51
 -2.759765625 -492.702148438 -2.759765625 -492.702148438 -0.4794921875 -546.120117188 c 1,52,-1
 1.16015625 -546.120117188 l 1,53,54
 14.9345703125 -511.685546875 14.9345703125 -511.685546875 -1.3955078125 -433.221679688 c 0,55,56
 -2.9033203125 -425.866210938 -2.9033203125 -425.866210938 -3.759765625 -421.48046875 c 0,57,58
 -30.9931640625 -245.237304688 -30.9931640625 -245.237304688 -33.279296875 -195.16015625 c 1,42,43
EndSplineSet
EndChar

StartChar: uni0670
Encoding: 1648 1648 326
Width: 70
VWidth: 1639
GlyphClass: 2
Flags: HW
AnchorPoint: "GposMark2BaseAnchorHamzaErabAbove_01_01" 145.123 1473.63 mark 0
AnchorPoint: "GposMark2BaseAnchorHamzaErabBelow_01_01" 145.123 1982.76 mark 0
AnchorPoint: "GposMark2BaseAnchorClassErabAbove_01_02" 145.123 1473.63 mark 0
AnchorPoint: "GposMark2MarkAnchorHamzaErabAbove_01_01" 145.123 1473.63 mark 0
AnchorPoint: "GposMark2MarkAnchorHamzaErabBelow_01_01" 145.123 1982.76 mark 0
AnchorPoint: "GposMark2MarkAnchorShaddaErabAbove_01_02" 145.123 1473.63 mark 0
AnchorPoint: "GposMark2MarkAnchorShaddaErabBelow_01_02" 145.123 1982.76 mark 0
LayerCount: 2
Fore
SplineSet
179.640625 1982.75976562 m 1,0,1
 180.52734375 1979.21289062 180.52734375 1979.21289062 180.934570312 1930.13964844 c 0,2,3
 180.970703125 1925.79882812 180.970703125 1925.79882812 181.280273438 1922.08007812 c 0,4,5
 186.44140625 1876.17285156 186.44140625 1876.17285156 199.3203125 1789.24023438 c 0,6,7
 207.2890625 1733.86230469 207.2890625 1733.86230469 222.280273438 1649.83984375 c 1,8,9
 235.245117188 1563.92480469 235.245117188 1563.92480469 219 1517 c 1,10,11
 205.194335938 1484.20996094 205.194335938 1484.20996094 186.200195312 1476 c 0,12,13
 186.200195312 1474.36035156 186.200195312 1474.36035156 177.180664062 1475.1796875 c 2,14,-1
 168.16015625 1476 l 2,15,16
 165.580078125 1476 165.580078125 1476 157.938476562 1475.28125 c 0,17,18
 132.091796875 1473.62890625 132.091796875 1473.62890625 125.520507812 1477.63964844 c 0,19,20
 123.879882812 1479.28027344 123.879882812 1479.28027344 122.240234375 1482.55957031 c 128,-1,21
 120.600585938 1485.83984375 120.600585938 1485.83984375 120.600585938 1490.75976562 c 128,-1,22
 120.600585938 1495.6796875 120.600585938 1495.6796875 120.600585938 1498.13964844 c 128,-1,23
 120.600585938 1500.59960938 120.600585938 1500.59960938 120.600585938 1506.33984375 c 2,24,-1
 120.600585938 1512.08007812 l 1,25,26
 116.625 1546.24804688 116.625 1546.24804688 104.200195312 1602.28027344 c 0,27,28
 76.59765625 1723.73242188 76.59765625 1723.73242188 61.560546875 1820.40039062 c 0,29,30
 58.1611328125 1844.93066406 58.1611328125 1844.93066406 55 1886 c 1,31,-1
 55 1920.44042969 l 1,32,33
 57.8037109375 1927.01757812 57.8037109375 1927.01757812 74.6806640625 1938.48046875 c 1,34,35
 121.366210938 1976.67773438 121.366210938 1976.67773438 124.931640625 1978.63671875 c 0,36,37
 130.229492188 1981.30273438 130.229492188 1981.30273438 133.720703125 1982.75976562 c 1,38,-1
 135.360351562 1969.63964844 l 1,39,-1
 156.680664062 1982.75976562 l 1,40,-1
 158.3203125 1969.63964844 l 1,41,-1
 179.640625 1982.75976562 l 1,0,1
133.720703125 1902.40039062 m 1,42,43
 111.443359375 1887.65527344 111.443359375 1887.65527344 107.48046875 1879.44042969 c 0,44,45
 104.200195312 1872.87988281 104.200195312 1872.87988281 108.475585938 1858.96386719 c 2,46,-1
 109.120117188 1856.48046875 l 1,47,-1
 117.3203125 1804 l 2,48,49
 122.737304688 1773.3046875 122.737304688 1773.3046875 138.008789062 1711.83300781 c 0,50,51
 164.240234375 1604.85742188 164.240234375 1604.85742188 166.520507812 1551.44042969 c 1,52,-1
 168.16015625 1551.44042969 l 1,53,54
 181.934570312 1585.87402344 181.934570312 1585.87402344 165.604492188 1664.33789062 c 0,55,56
 164.096679688 1671.69335938 164.096679688 1671.69335938 163.240234375 1676.08007812 c 0,57,58
 136.006835938 1852.32324219 136.006835938 1852.32324219 133.720703125 1902.40039062 c 1,42,43
EndSplineSet
EndChar

StartChar: uni0674
Encoding: 1652 1652 327
Width: 110
GlyphClass: 2
Flags: HW
AnchorPoint: "GposMark2BaseAnchorClassErabAbove_01_02" 359.5 1014 mark 0
AnchorPoint: "GposMark2MarkAnchorHamzaErabAbove_01_01" 359.5 1579 basemark 0
AnchorPoint: "GposMark2MarkAnchorHamzaErabBelow_01_01" 359.5 864 basemark 0
LayerCount: 2
Fore
SplineSet
533 1178 m 2,0,1
 528 1160 528 1160 521 1145 c 128,-1,2
 514 1130 514 1130 509 1129 c 0,3,4
 461 1118 461 1118 421 1109 c 128,-1,5
 381 1100 381 1100 363 1095 c 0,6,7
 317 1082 317 1082 274 1062 c 128,-1,8
 231 1042 231 1042 196 1018 c 1,9,10
 192 1014 192 1014 188 1014 c 0,11,12
 185 1014 185 1014 180 1018 c 128,-1,13
 175 1022 175 1022 175 1025 c 256,14,15
 175 1028 175 1028 180 1032 c 1,16,-1
 180 1031 l 1,17,18
 191 1051 191 1051 217 1076 c 128,-1,19
 243 1101 243 1101 283 1136 c 1,20,21
 195 1171 195 1171 195 1233 c 0,22,23
 195 1282 195 1282 269 1355 c 1,24,25
 346 1429 346 1429 410 1429 c 0,26,27
 421 1429 421 1429 433.5 1425.5 c 128,-1,28
 446 1422 446 1422 456 1415.5 c 128,-1,29
 466 1409 466 1409 472.5 1400.5 c 128,-1,30
 479 1392 479 1392 479 1382 c 0,31,32
 479 1368 479 1368 475.5 1353.5 c 128,-1,33
 472 1339 472 1339 466 1327 c 128,-1,34
 460 1315 460 1315 452.5 1307.5 c 128,-1,35
 445 1300 445 1300 437 1300 c 0,36,37
 433 1300 433 1300 425.5 1307.5 c 128,-1,38
 418 1315 418 1315 408 1323.5 c 128,-1,39
 398 1332 398 1332 385.5 1339.5 c 128,-1,40
 373 1347 373 1347 359 1347 c 256,41,42
 345 1347 345 1347 329 1339.5 c 128,-1,43
 313 1332 313 1332 299 1321.5 c 128,-1,44
 285 1311 285 1311 276 1299 c 128,-1,45
 267 1287 267 1287 267 1277 c 0,46,47
 267 1259 267 1259 279 1244 c 128,-1,48
 291 1229 291 1229 309.5 1218 c 128,-1,49
 328 1207 328 1207 352 1201 c 128,-1,50
 376 1195 376 1195 400 1195 c 0,51,52
 403 1195 403 1195 424 1200 c 128,-1,53
 445 1205 445 1205 470 1210.5 c 128,-1,54
 495 1216 495 1216 517 1221 c 128,-1,55
 539 1226 539 1226 544 1226 c 1,56,-1
 533 1178 l 2,0,1
EndSplineSet
EndChar

StartChar: afii57388
Encoding: 1548 1548 329
Width: 650
VWidth: 1639
GlyphClass: 2
Flags: W
LayerCount: 2
Fore
SplineSet
248.319335938 200.080078125 m 1,0,1
 271.291992188 204.994140625 271.291992188 204.994140625 310.639648438 205 c 0,2,3
 384.961914062 203.890625 384.961914062 203.890625 410.6796875 183.6796875 c 1,4,5
 442.78125 141.815429688 442.78125 141.815429688 441.83984375 63.9599609375 c 0,6,7
 441.13671875 9.458984375 441.13671875 9.458984375 430.359375 -14.759765625 c 0,8,9
 401.810546875 -69.884765625 401.810546875 -69.884765625 322.120117188 -70.51953125 c 0,10,11
 263.885742188 -70.2939453125 263.885742188 -70.2939453125 253.239257812 -68.8798828125 c 0,12,13
 198.787109375 -54.470703125 198.787109375 -54.470703125 154.83984375 3.2802734375 c 1,14,15
 104.303710938 73.759765625 104.303710938 73.759765625 104 191.879882812 c 0,16,17
 105.032226562 342.540039062 105.032226562 342.540039062 167.959960938 432.959960938 c 1,18,19
 217.979492188 500.564453125 217.979492188 500.564453125 295.879882812 547.759765625 c 0,20,21
 298.48828125 548.877929688 298.48828125 548.877929688 306.471679688 553.470703125 c 0,22,23
 341.197265625 571.750976562 341.197265625 571.750976562 348.359375 562.51953125 c 1,22,23
 365.704101562 570.362304688 365.704101562 570.362304688 371.319335938 562.51953125 c 1,24,25
 388.061523438 572.564453125 388.061523438 572.564453125 393.045898438 562.51953125 c 1,26,27
 394.109375 554.973632812 394.109375 554.973632812 387.719726562 546.120117188 c 1,26,27
 398.568359375 537.377929688 398.568359375 537.377929688 387.719726562 523.16015625 c 1,28,29
 399.913085938 514.299804688 399.913085938 514.299804688 389.359375 501.83984375 c 0,30,31
 381.485351562 494.840820312 381.485351562 494.840820312 362.782226562 483.548828125 c 0,32,33
 346.170898438 473.520507812 346.170898438 473.520507812 338.51953125 467.400390625 c 0,32,33
 257.869140625 398.96875 257.869140625 398.96875 237.8359375 305.803710938 c 0,34,35
 233.739257812 285.163085938 233.739257812 285.163085938 233.559570312 267.3203125 c 0,34,35
 234.313476562 256.149414062 234.313476562 256.149414062 248.319335938 200.080078125 c 1,0,1
194.19921875 350.959960938 m 1,36,37
 181.124023438 333.971679688 181.124023438 333.971679688 166.319335938 285.360351562 c 0,38,39
 125.57421875 150.614257812 125.57421875 150.614257812 202.399414062 45.919921875 c 0,40,41
 259.811523438 -31.75390625 259.811523438 -31.75390625 318.948242188 -21.1279296875 c 0,42,43
 325.524414062 -19.6630859375 325.524414062 -19.6630859375 330.319335938 -18.0400390625 c 0,42,43
 380.483398438 -0.0322265625 380.483398438 -0.0322265625 391.818359375 56.33984375 c 1,44,45
 401.09765625 112.419921875 401.09765625 112.419921875 358.19921875 141.040039062 c 0,44,45
 321.458007812 166.090820312 321.458007812 166.090820312 261.6953125 142.163085938 c 0,46,47
 257.756835938 140.573242188 257.756835938 140.573242188 254.879882812 139.400390625 c 1,46,-1
 251.599609375 147.599609375 l 1,47,-1
 231.919921875 139.400390625 l 1,48,-1
 228.639648438 147.599609375 l 1,49,-1
 208.959960938 139.400390625 l 1,50,51
 171.173828125 238.739257812 171.173828125 238.739257812 194.19921875 350.959960938 c 1,36,37
EndSplineSet
EndChar

StartChar: afii57403
Encoding: 1563 1563 334
Width: 650
VWidth: 1639
GlyphClass: 2
Flags: W
LayerCount: 2
Fore
SplineSet
387.935546875 951.200195312 m 1,0,1
 392.85546875 946.280273438 392.85546875 946.280273438 395.315429688 942.1796875 c 0,2,3
 397.775390625 938.080078125 397.775390625 938.080078125 389.575195312 931.51953125 c 0,4,5
 381.375 924.959960938 381.375 924.959960938 376.455078125 920.860351562 c 0,6,7
 371.53515625 916.759765625 371.53515625 916.759765625 361.6953125 911.01953125 c 2,8,-1
 351.85546875 905.280273438 l 1,2,3
 246.81640625 819.997070312 246.81640625 819.997070312 233.775390625 698.639648438 c 0,4,5
 232.868164062 683.162109375 232.868164062 683.162109375 243.615234375 647.799804688 c 1,6,7
 244.876953125 635.108398438 244.876953125 635.108398438 250.17578125 629.759765625 c 1,8,9
 255.2890625 627.71484375 255.2890625 627.71484375 274.857421875 631.125976562 c 0,10,11
 285.83203125 633.040039062 285.83203125 633.040039062 289.53515625 633.040039062 c 0,10,11
 371.918945312 632.307617188 371.918945312 632.307617188 397.775390625 619.919921875 c 1,12,13
 445.151367188 592.84765625 445.151367188 592.84765625 442.237304688 499.04296875 c 0,14,15
 442.125 495.638671875 442.125 495.638671875 442.055664062 493.639648438 c 0,14,15
 441.657226562 453.733398438 441.657226562 453.733398438 437.135742188 434.599609375 c 0,16,17
 419.864257812 361.67578125 419.864257812 361.67578125 320.411132812 357.678710938 c 0,18,19
 317.2890625 357.569335938 317.2890625 357.569335938 315.775390625 357.51953125 c 0,18,19
 233.94140625 355.866210938 233.94140625 355.866210938 191.135742188 390.3203125 c 0,20,21
 105.880859375 462.201171875 105.880859375 462.201171875 104.046875 629.96484375 c 0,22,23
 103.900390625 647.34375 103.900390625 647.34375 104.215820312 667.48046875 c 0,22,23
 108.720703125 811.641601562 108.720703125 811.641601562 216.64453125 915.845703125 c 0,24,25
 229.76953125 928.239257812 229.76953125 928.239257812 241.975585938 938.080078125 c 0,24,25
 268.228515625 958.684570312 268.228515625 958.684570312 319.055664062 987.280273438 c 0,26,27
 342.040039062 998.650390625 342.040039062 998.650390625 348.575195312 990.559570312 c 1,28,29
 365.919921875 998.40234375 365.919921875 998.40234375 371.53515625 990.559570312 c 1,30,31
 388.27734375 1000.60449219 388.27734375 1000.60449219 393.26171875 990.559570312 c 1,32,33
 394.325195312 983.013671875 394.325195312 983.013671875 387.935546875 974.16015625 c 1,32,33
 398.784179688 965.41796875 398.784179688 965.41796875 387.935546875 951.200195312 c 1,0,1
194.415039062 779 m 1,34,35
 179.655273438 760.959960938 179.655273438 760.959960938 165.352539062 710.08203125 c 2,36,-1
 164.895507812 708.48046875 l 1,36,37
 130.00390625 578.685546875 130.00390625 578.685546875 200.975585938 475.599609375 c 1,38,39
 262.760742188 392.0078125 262.760742188 392.0078125 324.745117188 408.217773438 c 0,40,41
 327.662109375 408.98046875 327.662109375 408.98046875 330.53515625 410 c 0,40,41
 381.985351562 428.0078125 381.985351562 428.0078125 392.216796875 485.403320312 c 0,42,43
 402.446289062 542.791015625 402.446289062 542.791015625 355.135742188 572.360351562 c 1,42,43
 318.63671875 591.606445312 318.63671875 591.606445312 255.095703125 567.440429688 c 1,44,-1
 251.815429688 575.639648438 l 1,45,-1
 232.135742188 567.440429688 l 1,46,-1
 228.85546875 575.639648438 l 1,47,-1
 209.17578125 567.440429688 l 1,48,49
 171.389648438 666.779296875 171.389648438 666.779296875 194.415039062 779 c 1,34,35
240.3359375 175.48046875 m 0,50,51
 338.0859375 186.7265625 338.0859375 186.7265625 376.455078125 129.559570312 c 0,52,53
 391.201171875 104.837890625 391.201171875 104.837890625 391.215820312 57.400390625 c 0,54,55
 388.6171875 -53.810546875 388.6171875 -53.810546875 309.215820312 -65.599609375 c 1,56,57
 207.591796875 -74.619140625 207.591796875 -74.619140625 169.815429688 -31.16015625 c 1,58,59
 151.4921875 -6.162109375 151.4921875 -6.162109375 148.495117188 44.2802734375 c 1,60,61
 147.447265625 137.806640625 147.447265625 137.806640625 205.895507812 165.639648438 c 0,62,63
 223.115234375 173.01953125 223.115234375 173.01953125 240.3359375 175.48046875 c 0,50,51
268.215820312 126.280273438 m 0,64,65
 229.641601562 120.189453125 229.641601562 120.189453125 206.223632812 79.98046875 c 0,66,67
 198.763671875 65.7529296875 198.763671875 65.7529296875 197.6953125 54.1201171875 c 0,66,67
 197.6953125 22.6689453125 197.6953125 22.6689453125 236.336914062 -5.1015625 c 0,68,69
 255.51171875 -18.880859375 255.51171875 -18.880859375 271.495117188 -18.0400390625 c 0,68,69
 308.616210938 -14.1328125 308.616210938 -14.1328125 332.745117188 24.9033203125 c 0,70,71
 342.119140625 41.7744140625 342.119140625 41.7744140625 342.015625 55.759765625 c 0,70,71
 340.217773438 88.1142578125 340.217773438 88.1142578125 302.973632812 114.541992188 c 0,72,73
 283.512695312 127.107421875 283.512695312 127.107421875 268.215820312 126.280273438 c 0,64,65
EndSplineSet
EndChar

StartChar: afii57407
Encoding: 1567 1567 335
Width: 1023
VWidth: 1639
GlyphClass: 2
Flags: W
LayerCount: 2
Fore
SplineSet
559.919921875 211.559570312 m 1,0,1
 513.453125 211.674804688 513.453125 211.674804688 491.040039062 213.200195312 c 0,2,3
 466.05078125 214.029296875 466.05078125 214.029296875 464.799804688 214.83984375 c 0,4,5
 460.50390625 219.573242188 460.50390625 219.573242188 461.51953125 237.799804688 c 0,6,7
 461.73828125 285.990234375 461.73828125 285.990234375 464.799804688 309.959960938 c 0,8,9
 470.196289062 384.869140625 470.196289062 384.869140625 415.599609375 447.719726562 c 0,10,11
 392.375976562 473.36328125 392.375976562 473.36328125 282.993164062 568.918945312 c 0,12,13
 203.323242188 639.37890625 203.323242188 639.37890625 167.959960938 695.360351562 c 0,12,13
 104.354492188 800.176757812 104.354492188 800.176757812 104 946.280273438 c 0,14,15
 104.595703125 1038.19335938 104.595703125 1038.19335938 125.3203125 1093.87988281 c 0,16,17
 174.596679688 1229.39160156 174.596679688 1229.39160156 300.579101562 1300.73144531 c 0,18,19
 307.225585938 1304.42285156 307.225585938 1304.42285156 312.280273438 1307.08007812 c 0,18,19
 380.145507812 1341.23730469 380.145507812 1341.23730469 474.639648438 1341.51953125 c 0,20,21
 676.006835938 1341.51953125 676.006835938 1341.51953125 768.865234375 1209.51464844 c 0,22,23
 776.809570312 1197.91699219 776.809570312 1197.91699219 782.959960938 1187.36035156 c 0,22,23
 819.90234375 1119.41210938 819.90234375 1119.41210938 814.120117188 1005.3203125 c 0,24,25
 809.3203125 909.3203125 809.3203125 909.3203125 749.577148438 853.96875 c 0,26,27
 731.33203125 837.981445312 731.33203125 837.981445312 712.440429688 829.83984375 c 0,26,27
 692.521484375 822.989257812 692.521484375 822.989257812 633.719726562 823.280273438 c 1,28,29
 588.458007812 821.116210938 588.458007812 821.116210938 559.919921875 834.759765625 c 1,30,31
 517.501953125 859.670898438 517.501953125 859.670898438 517.280273438 934.799804688 c 0,32,33
 517.280273438 1019.81738281 517.280273438 1019.81738281 546.299804688 1053.62011719 c 0,34,35
 548.926757812 1056.53808594 548.926757812 1056.53808594 550.080078125 1057.79980469 c 0,34,35
 601.631835938 1107.484375 601.631835938 1107.484375 705.879882812 1087.3203125 c 1,36,37
 642.862304688 1189.11816406 642.862304688 1189.11816406 535.538085938 1213.87792969 c 0,38,39
 520.686523438 1217.09375 520.686523438 1217.09375 507.440429688 1218.51953125 c 0,38,39
 488.125 1219.58984375 488.125 1219.58984375 448.400390625 1208.6796875 c 1,40,41
 368.916015625 1182.18554688 368.916015625 1182.18554688 329.5859375 1110.08105469 c 0,42,43
 311.102539062 1074.49023438 311.102539062 1074.49023438 310.639648438 1039.75976562 c 0,42,43
 310.639648438 998.604492188 310.639648438 998.604492188 360.854492188 903.051757812 c 0,44,45
 362.069335938 900.741210938 362.069335938 900.741210938 363.120117188 898.719726562 c 0,44,45
 376.443359375 872.90625 376.443359375 872.90625 474.046875 715.319335938 c 0,46,47
 514.27734375 649.954101562 514.27734375 649.954101562 536.959960938 601.879882812 c 0,46,47
 586.610351562 491.161132812 586.610351562 491.161132812 579.599609375 365.719726562 c 0,48,49
 578.072265625 342.033203125 578.072265625 342.033203125 570.02734375 293.923828125 c 0,50,51
 560.922851562 238.190429688 560.922851562 238.190429688 559.919921875 211.559570312 c 1,0,1
643.559570312 1238.20019531 m 1,50,51
 555.299804688 1297.81835938 555.299804688 1297.81835938 471.360351562 1293.95996094 c 1,52,53
 330.015625 1284.66113281 330.015625 1284.66113281 229.036132812 1150.7734375 c 0,54,55
 204.946289062 1118.26464844 204.946289062 1118.26464844 187.639648438 1084.04003906 c 0,54,55
 147.624023438 1002.13476562 147.624023438 1002.13476562 151.559570312 929.879882812 c 1,56,57
 163.875 786.674804688 163.875 786.674804688 249.959960938 692.080078125 c 0,58,59
 281.1875 658.904296875 281.1875 658.904296875 397.559570312 554.3203125 c 0,60,61
 476.178710938 481.546875 476.178710938 481.546875 499.240234375 439.51953125 c 1,62,63
 519.5234375 398.953125 519.5234375 398.953125 512.548828125 300.198242188 c 0,64,65
 510.79296875 273.774414062 510.79296875 273.774414062 510.719726562 259.120117188 c 1,64,-1
 514 259.120117188 l 1,65,66
 514.78125 283.329101562 514.78125 283.329101562 523.780273438 331.749023438 c 0,67,68
 533.6796875 385.009765625 533.6796875 385.009765625 533.6796875 411.639648438 c 0,67,68
 533.040039062 459.931640625 533.040039062 459.931640625 499.240234375 537.919921875 c 0,69,70
 474.552734375 594.34765625 474.552734375 594.34765625 377.984375 748.122070312 c 0,71,72
 347.330078125 797.165039062 347.330078125 797.165039062 328.6796875 831.48046875 c 0,71,72
 270.712890625 935.93359375 270.712890625 935.93359375 263.080078125 1002.04003906 c 1,73,74
 257.436523438 1080.43164062 257.436523438 1080.43164062 272.919921875 1128.3203125 c 0,75,76
 315.53515625 1253.50195312 315.53515625 1253.50195312 468.625 1265.18359375 c 0,77,78
 558.783203125 1271.34667969 558.783203125 1271.34667969 643.559570312 1236.55957031 c 1,77,-1
 643.559570312 1238.20019531 l 1,50,51
648.48046875 1234.91992188 m 1,78,-1
 646.83984375 1233.28027344 l 1,79,-1
 648.48046875 1234.91992188 l 1,78,-1
723.919921875 1018.44042969 m 1,80,81
 692.196289062 1035.1171875 692.196289062 1035.1171875 666.51953125 1039.75976562 c 0,82,83
 623.239257812 1048.71484375 623.239257812 1048.71484375 585.846679688 1000.86328125 c 0,84,85
 563.733398438 970.81640625 563.733398438 970.81640625 564.83984375 943 c 0,84,85
 568.122070312 897.05078125 568.122070312 897.05078125 612.650390625 877.204101562 c 0,86,87
 638.276367188 867.05078125 638.276367188 867.05078125 661.599609375 874.120117188 c 1,86,87
 685.374023438 883.846679688 685.374023438 883.846679688 697.6796875 895.440429688 c 0,88,89
 716.55078125 913.02734375 716.55078125 913.02734375 733.759765625 941.360351562 c 0,90,91
 752.694335938 969.76171875 752.694335938 969.76171875 764.919921875 1021.71972656 c 1,92,-1
 748.51953125 1028.28027344 l 1,93,-1
 746.879882812 1018.44042969 l 1,94,-1
 725.559570312 1028.28027344 l 1,95,-1
 723.919921875 1018.44042969 l 1,80,81
459.879882812 136.120117188 m 0,96,97
 562.49609375 148.651367188 562.49609375 148.651367188 600.919921875 98.400390625 c 1,98,99
 620.471679688 69.90234375 620.471679688 69.90234375 620.599609375 19.6796875 c 0,100,101
 620.306640625 -25.33984375 620.306640625 -25.33984375 618.959960938 -32.7998046875 c 0,102,103
 604.921875 -84.271484375 604.921875 -84.271484375 553.208007812 -100.518554688 c 0,104,105
 546.755859375 -102.340820312 546.755859375 -102.340820312 541.879882812 -103.3203125 c 0,104,105
 436.982421875 -119.130859375 436.982421875 -119.130859375 397.559570312 -65.599609375 c 0,106,107
 379.53515625 -39.2451171875 379.53515625 -39.2451171875 379.51953125 11.48046875 c 0,108,109
 379.822265625 54.8857421875 379.822265625 54.8857421875 381.16015625 62.3203125 c 0,110,111
 395.422851562 116.994140625 395.422851562 116.994140625 448.322265625 133.338867188 c 0,112,113
 454.880859375 135.15625 454.880859375 135.15625 459.879882812 136.120117188 c 0,96,97
499.240234375 86.919921875 m 0,112,113
 464.54296875 86.919921875 464.54296875 86.919921875 437.89453125 45.8544921875 c 0,114,115
 427.677734375 28.5869140625 427.677734375 28.5869140625 427.080078125 14.759765625 c 0,114,115
 428.9296875 -20.3896484375 428.9296875 -20.3896484375 470.421875 -45.7626953125 c 0,116,117
 486.768554688 -55.759765625 486.768554688 -55.759765625 500.879882812 -55.759765625 c 0,116,117
 533.849609375 -53.9287109375 533.849609375 -53.9287109375 559.913085938 -16.5078125 c 0,118,119
 571.470703125 1.7470703125 571.470703125 1.7470703125 571.400390625 16.400390625 c 0,118,119
 571.400390625 48.8193359375 571.400390625 48.8193359375 532.524414062 75.4326171875 c 0,120,121
 514.567382812 87.7265625 514.567382812 87.7265625 499.240234375 86.919921875 c 0,112,113
EndSplineSet
EndChar

StartChar: afii57409
Encoding: 1569 1569 336
AltUni2: 00fe80.ffffffff.0
Width: 792
VWidth: 1639
GlyphClass: 2
Flags: HW
AnchorPoint: "GposMark2BaseAnchorHamzaErabAbove_01_01" 318.16 655.12 basechar 0
AnchorPoint: "GposMark2BaseAnchorHamzaErabBelow_01_01" 318.16 -238.56 basechar 0
LayerCount: 2
Fore
SplineSet
129.559570312 88.5595703125 m 1,0,1
 52.931640625 116.146484375 52.931640625 116.146484375 59.0478515625 222.205078125 c 0,2,3
 61.8291015625 261.59765625 61.8291015625 261.59765625 75.439453125 295.200195312 c 0,4,5
 91.109375 330.786132812 91.109375 330.786132812 134.479492188 380.48046875 c 0,6,7
 244.984375 504.071289062 244.984375 504.071289062 360.799804688 505.120117188 c 0,8,9
 419.829101562 504.483398438 419.829101562 504.483398438 434.599609375 498.559570312 c 1,10,11
 470.341796875 477.537109375 470.341796875 477.537109375 470.6796875 418.200195312 c 0,12,13
 470.172851562 343.862304688 470.172851562 343.862304688 459.19921875 308.3203125 c 1,14,15
 441.583007812 259.874023438 441.583007812 259.874023438 424.93359375 260.149414062 c 0,16,17
 418.266601562 261.712890625 418.266601562 261.712890625 413.279296875 265.6796875 c 1,18,19
 402.075195312 253.28125 402.075195312 253.28125 391.959960938 265.6796875 c 1,20,-1
 390.319335938 265.6796875 l 1,21,22
 377.340820312 248.807617188 377.340820312 248.807617188 360.358398438 279.819335938 c 0,23,24
 355.6484375 288.106445312 355.6484375 288.106445312 354.239257812 290.280273438 c 0,25,26
 320.173828125 335.701171875 320.173828125 335.701171875 278.799804688 334.985351562 c 1,27,28
 255.302734375 332.657226562 255.302734375 332.657226562 241.079101562 313.240234375 c 1,29,30
 235.294921875 302.489257812 235.294921875 302.489257812 246 278.799804688 c 1,31,32
 268.618164062 245.344726562 268.618164062 245.344726562 305.040039062 221.400390625 c 0,33,34
 350.49609375 193.078125 350.49609375 193.078125 383.759765625 188.599609375 c 0,35,36
 390.89453125 188.39453125 390.89453125 188.39453125 447.719726562 198.440429688 c 0,37,38
 547.436523438 215.809570312 547.436523438 215.809570312 590.399414062 227.959960938 c 1,39,-1
 588.759765625 223.040039062 l 1,40,-1
 613.359375 227.959960938 l 1,41,-1
 611.719726562 223.040039062 l 1,42,-1
 636.319335938 227.959960938 l 1,43,-1
 624.83984375 201.719726562 l 1,44,-1
 636.319335938 205 l 1,45,-1
 624.83984375 178.759765625 l 1,46,-1
 636.319335938 182.040039062 l 1,47,48
 628.119140625 152.51953125 628.119140625 152.51953125 592.986328125 96.6337890625 c 2,49,-1
 592.040039062 95.1201171875 l 1,50,51
 577.31640625 67.521484375 577.31640625 67.521484375 570.719726562 62.3203125 c 0,52,53
 565.915039062 58.2021484375 565.915039062 58.2021484375 525.775390625 51.6923828125 c 0,54,55
 522.756835938 51.099609375 522.756835938 51.099609375 521.51953125 50.83984375 c 0,56,57
 451.982421875 36.2841796875 451.982421875 36.2841796875 405.079101562 24.599609375 c 0,58,59
 286.784179688 -4.513671875 286.784179688 -4.513671875 167.279296875 -44.2802734375 c 0,60,61
 148.872070312 -50.1708984375 148.872070312 -50.1708984375 112.750976562 -64.5830078125 c 0,62,63
 67.93359375 -82.271484375 67.93359375 -82.271484375 45.919921875 -88.5595703125 c 1,64,-1
 47.5595703125 -80.3603515625 l 1,65,-1
 22.9599609375 -88.5595703125 l 1,66,-1
 24.599609375 -80.3603515625 l 1,67,-1
 0 -88.5595703125 l 1,68,-1
 6.5595703125 -63.9599609375 l 1,69,-1
 0 -65.599609375 l 1,70,-1
 6.5595703125 -41 l 1,71,-1
 0 -42.6396484375 l 1,72,73
 4.896484375 -5.2646484375 4.896484375 -5.2646484375 16.3994140625 11.48046875 c 0,74,75
 42.06640625 54.2578125 42.06640625 54.2578125 116.2421875 81.0283203125 c 0,76,77
 123.955078125 83.68359375 123.955078125 83.68359375 129.559570312 85.2802734375 c 1,78,-1
 129.559570312 88.5595703125 l 1,0,1
403.439453125 332.919921875 m 1,79,80
 438.30859375 391.928710938 438.30859375 391.928710938 412.951171875 431.657226562 c 0,81,82
 403.374023438 444.315429688 403.374023438 444.315429688 390.319335938 451 c 0,83,84
 376.555664062 457.052734375 376.555664062 457.052734375 367.359375 457.559570312 c 0,85,86
 306.172851562 455.450195312 306.172851562 455.450195312 236.234375 388.754882812 c 0,87,88
 231.159179688 383.778320312 231.159179688 383.778320312 227.959960938 380.48046875 c 1,89,90
 347.892578125 395.856445312 347.892578125 395.856445312 395.604492188 340.654296875 c 0,91,92
 399.41015625 336.03515625 399.41015625 336.03515625 401.799804688 332.919921875 c 1,93,-1
 403.439453125 332.919921875 l 1,79,80
186.959960938 341.120117188 m 1,94,95
 121.090820312 285.384765625 121.090820312 285.384765625 113.19921875 224.081054688 c 0,96,97
 110.376953125 191.524414062 110.376953125 191.524414062 127.919921875 168.919921875 c 0,98,99
 137.92578125 156.913085938 137.92578125 156.913085938 188.10546875 126.858398438 c 0,100,101
 207.979492188 114.2421875 207.979492188 114.2421875 218.119140625 103.3203125 c 1,102,-1
 198.439453125 95.1201171875 l 1,103,-1
 218.119140625 80.3603515625 l 1,104,-1
 198.439453125 72.16015625 l 1,105,-1
 218.119140625 57.400390625 l 1,106,107
 195.205078125 53.2216796875 195.205078125 53.2216796875 126.279296875 16.400390625 c 0,108,109
 99.8212890625 0.580078125 99.8212890625 0.580078125 91.83984375 -8.2001953125 c 1,110,111
 96.560546875 -6.9169921875 96.560546875 -6.9169921875 195.159179688 26.240234375 c 0,112,113
 249.268554688 43.046875 249.268554688 43.046875 352.599609375 68.8798828125 c 0,114,115
 372.279296875 73.7998046875 372.279296875 73.7998046875 412.459960938 82.8203125 c 0,116,117
 453.157226562 91.99609375 453.157226562 91.99609375 472.319335938 96.759765625 c 0,118,119
 477.520507812 97.916015625 477.520507812 97.916015625 489.323242188 99.435546875 c 0,120,121
 512.25390625 102.827148438 512.25390625 102.827148438 521.51953125 106.599609375 c 0,122,123
 538.775390625 114.6875 538.775390625 114.6875 559.239257812 165.639648438 c 1,124,125
 359.28515625 109.390625 359.28515625 109.390625 255.83984375 177.120117188 c 1,126,127
 207.70703125 213.780273438 207.70703125 213.780273438 193.51953125 246 c 1,128,129
 185.944335938 270.432617188 185.944335938 270.432617188 186.959960938 341.120117188 c 1,94,95
90.19921875 -8.2001953125 m 1,130,-1
 88.5595703125 -9.83984375 l 1,131,-1
 90.19921875 -8.2001953125 l 1,130,-1
EndSplineSet
EndChar

StartChar: afii57410
Encoding: 1570 1570 337
AltUni2: 00fe81.ffffffff.0
Width: 274
VWidth: 1639
GlyphClass: 2
Flags: W
LayerCount: 2
Fore
SplineSet
-145.040039062 1484.20019531 m 1,0,1
 -158.267578125 1473.23242188 -158.267578125 1473.23242188 -164.719726562 1474.36035156 c 1,2,3
 -167.604492188 1478.04785156 -167.604492188 1478.04785156 -166.359375 1489.12011719 c 0,4,5
 -165.369140625 1497.04296875 -165.369140625 1497.04296875 -166.965820312 1513.96191406 c 0,6,7
 -167.911132812 1525.40625 -167.911132812 1525.40625 -168 1530.12011719 c 0,6,7
 -157.430664062 1608.94042969 -157.430664062 1608.94042969 -113.879882812 1651.48046875 c 0,8,9
 -89.150390625 1674.75488281 -89.150390625 1674.75488281 -20.935546875 1680.38867188 c 0,10,11
 -16.876953125 1680.72363281 -16.876953125 1680.72363281 -13.83984375 1681 c 0,10,11
 8.08203125 1683.08789062 8.08203125 1683.08789062 52.2666015625 1684.93847656 c 0,12,13
 147.4609375 1689.32226562 147.4609375 1689.32226562 192.799804688 1702.3203125 c 0,12,13
 248.216796875 1718.80175781 248.216796875 1718.80175781 289.560546875 1748.24023438 c 0,14,15
 295.493164062 1752.98632812 295.493164062 1752.98632812 307.025390625 1765.58789062 c 0,16,17
 328.639648438 1787.87011719 328.639648438 1787.87011719 340.400390625 1792.51953125 c 1,16,-1
 340.400390625 1774.48046875 l 1,17,-1
 363.360351562 1792.51953125 l 1,18,-1
 363.360351562 1774.48046875 l 1,19,-1
 386.3203125 1792.51953125 l 1,20,21
 398.165039062 1744.99121094 398.165039062 1744.99121094 366.640625 1681 c 0,22,23
 341.985351562 1633.27734375 341.985351562 1633.27734375 307.600585938 1600.63964844 c 0,24,25
 234.986328125 1536.27734375 234.986328125 1536.27734375 51.984375 1535.09667969 c 0,26,27
 42.0185546875 1535.04296875 42.0185546875 1535.04296875 30.4404296875 1535.04003906 c 0,26,27
 -31.4140625 1534.06835938 -31.4140625 1534.06835938 -67.9599609375 1510.44042969 c 0,28,29
 -75.33984375 1505.51953125 -75.33984375 1505.51953125 -87.6396484375 1494.04003906 c 0,30,31
 -100.735351562 1482.27050781 -100.735351562 1482.27050781 -107.3203125 1477.63964844 c 0,30,31
 -118.654296875 1472.13867188 -118.654296875 1472.13867188 -122.080078125 1484.20019531 c 1,32,33
 -141.235351562 1468.71289062 -141.235351562 1468.71289062 -145.040039062 1484.20019531 c 1,0,1
286.280273438 1672.79980469 m 1,34,35
 203.498046875 1646.77636719 203.498046875 1646.77636719 178.040039062 1643.28027344 c 0,36,37
 148.520507812 1640 148.520507812 1640 89.48046875 1638.36035156 c 0,38,39
 29.8935546875 1636.5703125 29.8935546875 1636.5703125 0.919921875 1633.44042969 c 1,38,39
 -76.3740234375 1618.57519531 -76.3740234375 1618.57519531 -94.2001953125 1567.83984375 c 1,40,41
 -61.888671875 1576.69238281 -61.888671875 1576.69238281 70.8974609375 1584.71289062 c 0,42,43
 212.397460938 1593.25976562 212.397460938 1593.25976562 269.139648438 1652.11816406 c 0,44,45
 278.905273438 1662.69628906 278.905273438 1662.69628906 286.280273438 1672.79980469 c 1,34,35
-143.399414062 1485.83984375 m 1,42,-1
 -145.040039062 1484.20019531 l 1,43,-1
 -143.399414062 1485.83984375 l 1,42,-1
-120.439453125 1485.83984375 m 1,44,-1
 -122.080078125 1484.20019531 l 1,45,-1
 -120.439453125 1485.83984375 l 1,44,-1
125.560546875 -18.0400390625 m 1,46,47
 120.057617188 -34.5478515625 120.057617188 -34.5478515625 109.40625 -28.87890625 c 0,48,49
 105.959960938 -25.484375 105.959960938 -25.484375 104.240234375 -22.9599609375 c 0,48,49
 100.935546875 -13.044921875 100.935546875 -13.044921875 102.747070312 48.453125 c 0,50,51
 102.83203125 55.9931640625 102.83203125 55.9931640625 102.600585938 60.6796875 c 0,50,51
 100.643554688 87.4267578125 100.643554688 87.4267578125 97.76953125 140.348632812 c 0,52,53
 93.3291015625 220.833984375 93.3291015625 220.833984375 89.48046875 260.759765625 c 0,52,53
 40.302734375 802.529296875 40.302734375 802.529296875 30.4404296875 1018.44042969 c 0,54,55
 29.734375 1038.89941406 29.734375 1038.89941406 26.505859375 1079.16699219 c 0,56,57
 22.32421875 1132.953125 22.32421875 1132.953125 22.240234375 1159.48046875 c 0,56,57
 22.69140625 1205.86328125 22.69140625 1205.86328125 23.8798828125 1210.3203125 c 0,58,59
 28.130859375 1231.57519531 28.130859375 1231.57519531 70.5927734375 1305.94628906 c 0,60,61
 72.3232421875 1309.01367188 72.3232421875 1309.01367188 73.080078125 1310.36035156 c 0,60,61
 77.1796875 1319.37988281 77.1796875 1319.37988281 86.2001953125 1336.59960938 c 0,62,63
 95.4296875 1354.43066406 95.4296875 1354.43066406 99.3203125 1362.83984375 c 0,62,63
 111.661132812 1381.68945312 111.661132812 1381.68945312 117.360351562 1385.79980469 c 1,64,-1
 119 1356.28027344 l 1,65,-1
 120.640625 1356.28027344 l 1,66,67
 129.51953125 1378.99804688 129.51953125 1378.99804688 140.3203125 1385.79980469 c 1,68,-1
 141.959960938 1356.28027344 l 1,69,-1
 143.600585938 1356.28027344 l 1,70,71
 152.479492188 1378.99804688 152.479492188 1378.99804688 163.280273438 1385.79980469 c 1,72,73
 168.583984375 1356.62792969 168.583984375 1356.62792969 163.87109375 1241.28320312 c 0,74,75
 163.31640625 1226.15722656 163.31640625 1226.15722656 163.280273438 1215.24023438 c 0,74,75
 163.375976562 1182.25976562 163.375976562 1182.25976562 176.400390625 962.6796875 c 0,76,77
 181.3203125 891.33984375 181.3203125 891.33984375 190.33984375 748.66015625 c 0,78,79
 199.404296875 605.43359375 199.404296875 605.43359375 204.280273438 534.639648438 c 0,78,79
 206.002929688 508.368164062 206.002929688 508.368164062 210.360351562 455.514648438 c 0,80,81
 222.5 305.668945312 222.5 305.668945312 219.040039062 231.240234375 c 0,80,81
 212.04296875 99.529296875 212.04296875 99.529296875 192.799804688 36.080078125 c 0,82,83
 182.901367188 -1.591796875 182.901367188 -1.591796875 171.48046875 -21.3203125 c 1,84,85
 158.3125 -39.75390625 158.3125 -39.75390625 151.568359375 -23.81640625 c 0,86,87
 150.561523438 -20.2265625 150.561523438 -20.2265625 150.16015625 -18.0400390625 c 1,86,-1
 148.520507812 -18.0400390625 l 1,87,88
 142.139648438 -35.0546875 142.139648438 -35.0546875 131.771484375 -27.8759765625 c 1,89,90
 128.274414062 -23.328125 128.274414062 -23.328125 127.200195312 -18.0400390625 c 1,89,-1
 125.560546875 -18.0400390625 l 1,46,47
117.360351562 1259.51953125 m 1,90,91
 108.484375 1249.74804688 108.484375 1249.74804688 92.759765625 1213.59960938 c 1,92,93
 71.2529296875 1173.82519531 71.2529296875 1173.82519531 69.7998046875 1167.6796875 c 0,94,95
 67.654296875 1157.66503906 67.654296875 1157.66503906 74.15625 1098.37011719 c 0,96,97
 74.54296875 1094.37304688 74.54296875 1094.37304688 74.7197265625 1092.24023438 c 0,96,97
 76.3603515625 1066.8203125 76.3603515625 1066.8203125 79.640625 1015.16015625 c 0,98,99
 82.955078125 962.975585938 82.955078125 962.975585938 84.560546875 938.080078125 c 0,98,99
 98.9775390625 722.360351562 98.9775390625 722.360351562 119 496.919921875 c 1,100,101
 148.418945312 193.762695312 148.418945312 193.762695312 148.520507812 90.2001953125 c 1,102,-1
 150.16015625 90.2001953125 l 1,103,104
 152.654296875 108.905273438 152.654296875 108.905273438 159.0546875 145.786132812 c 0,105,106
 169.373046875 206.241210938 169.373046875 206.241210938 171.48046875 236.16015625 c 0,105,106
 173.861328125 271.59375 173.861328125 271.59375 166.560546875 369 c 2,107,-1
 153.440429688 562.51953125 l 2,108,109
 117.360351562 1071.24804688 117.360351562 1071.24804688 117.360351562 1259.51953125 c 1,90,91
EndSplineSet
AlternateSubs2: "gsub_alternate_dfl_aalt_arab_FAR_Lookup_01_Subtable_01" uniFE82 afii57410
Substitution2: "gsub_single_rtl_fina_arab_FAR_Lookup_01_Subtable_01" uniFE82
PairPos2: "gpos_pair_dfl_kern_arab_FAR_Lookup_01_Subtable_01" gafarabic dx=0 dy=0 dh=0 dv=0 dx=0 dy=0 dh=0 dv=0
EndChar

StartChar: uniFE83
Encoding: 1571 1571 339
AltUni2: 00fe83.ffffffff.0
Width: 483
VWidth: 1639
GlyphClass: 2
Flags: W
LayerCount: 2
Fore
SplineSet
210.640625 -18.0400390625 m 1,0,1
 205.137695312 -34.5478515625 205.137695312 -34.5478515625 194.486328125 -28.87890625 c 0,2,3
 191.040039062 -25.484375 191.040039062 -25.484375 189.3203125 -22.9599609375 c 0,2,3
 185.79296875 -13.0849609375 185.79296875 -13.0849609375 187.801757812 43.55078125 c 0,4,5
 187.919921875 51.13671875 187.919921875 51.13671875 187.680664062 55.759765625 c 0,4,5
 180.783203125 182.557617188 180.783203125 182.557617188 176.200195312 239.440429688 c 0,6,7
 168.984375 343.087890625 168.984375 343.087890625 150.353515625 550.383789062 c 0,8,9
 122.43359375 861.875 122.43359375 861.875 115.520507812 1016.79980469 c 0,8,9
 114.817382812 1037.18261719 114.817382812 1037.18261719 111.604492188 1077.94824219 c 0,10,11
 107.404296875 1132.84960938 107.404296875 1132.84960938 107.3203125 1159.48046875 c 2,10,11
 107.3203125 1210.3203125 l 1,12,13
 110.467773438 1220.85742188 110.467773438 1220.85742188 125.360351562 1246.40039062 c 1,14,15
 155.426757812 1306.53320312 155.426757812 1306.53320312 159.80078125 1313.63964844 c 0,16,17
 162.245117188 1318.52929688 162.245117188 1318.52929688 167.5625 1331.70214844 c 0,18,19
 187.225585938 1377.56054688 187.225585938 1377.56054688 202.440429688 1385.79980469 c 1,18,-1
 204.080078125 1356.28027344 l 1,19,-1
 205.720703125 1356.28027344 l 1,20,21
 214.599609375 1378.99804688 214.599609375 1378.99804688 225.400390625 1385.79980469 c 1,22,-1
 227.040039062 1356.28027344 l 1,23,-1
 228.680664062 1356.28027344 l 1,24,25
 237.559570312 1378.99804688 237.559570312 1378.99804688 248.360351562 1385.79980469 c 1,26,27
 253.634765625 1359.42675781 253.634765625 1359.42675781 248.91796875 1254.01660156 c 0,28,29
 248.400390625 1240.91503906 248.400390625 1240.91503906 248.360351562 1231.63964844 c 0,28,29
 248.459960938 1172.40136719 248.459960938 1172.40136719 259.83984375 987.280273438 c 0,30,31
 264.760742188 915.940429688 264.760742188 915.940429688 273.780273438 772.440429688 c 0,32,33
 282.84375 628.401367188 282.84375 628.401367188 287.720703125 557.599609375 c 0,32,33
 306.030273438 319.567382812 306.030273438 319.567382812 305.008789062 263.932617188 c 0,34,35
 304.748046875 249.758789062 304.748046875 249.758789062 304.120117188 236.16015625 c 0,34,35
 297.169921875 101.205078125 297.169921875 101.205078125 279.520507812 37.7197265625 c 1,36,37
 264.560546875 -6.2314453125 264.560546875 -6.2314453125 256.560546875 -21.3203125 c 1,38,39
 243.392578125 -39.75390625 243.392578125 -39.75390625 236.6484375 -23.81640625 c 0,40,41
 235.641601562 -20.2265625 235.641601562 -20.2265625 235.240234375 -18.0400390625 c 1,40,-1
 233.600585938 -18.0400390625 l 1,41,42
 227.219726562 -35.0546875 227.219726562 -35.0546875 216.8515625 -27.8759765625 c 1,43,44
 213.354492188 -23.328125 213.354492188 -23.328125 212.280273438 -18.0400390625 c 1,43,-1
 210.640625 -18.0400390625 l 1,0,1
202.440429688 1261.16015625 m 1,44,45
 193.103515625 1248.80957031 193.103515625 1248.80957031 172.919921875 1203.75976562 c 1,46,47
 156.92578125 1174.82519531 156.92578125 1174.82519531 154.879882812 1167.6796875 c 0,48,49
 152.690429688 1157.45996094 152.690429688 1157.45996094 159.250976562 1096.62988281 c 0,50,51
 159.627929688 1092.68359375 159.627929688 1092.68359375 159.80078125 1090.59960938 c 0,50,51
 166.70703125 967.083007812 166.70703125 967.083007812 171.280273438 911.83984375 c 0,52,53
 184.82421875 698.20703125 184.82421875 698.20703125 209 442.799804688 c 0,54,55
 233.600585938 193.286132812 233.600585938 193.286132812 233.600585938 90.2001953125 c 1,56,-1
 235.240234375 90.2001953125 l 1,57,58
 237.680664062 109.116210938 237.680664062 109.116210938 244.358398438 145.924804688 c 0,59,60
 255.393554688 208.120117188 255.393554688 208.120117188 256.560546875 239.440429688 c 0,59,60
 257.573242188 275.7890625 257.573242188 275.7890625 250 391.959960938 c 2,61,-1
 235.240234375 610.080078125 l 2,62,63
 202.440429688 1091.14648438 202.440429688 1091.14648438 202.440429688 1261.16015625 c 1,44,45
74.5205078125 1602.28027344 m 1,0,1
 31.859375 1618.46191406 31.859375 1618.46191406 31.736328125 1686.45605469 c 0,2,3
 31.7294921875 1690.41210938 31.7294921875 1690.41210938 31.80859375 1698.29199219 c 0,4,5
 31.8720703125 1705.91894531 31.8720703125 1705.91894531 31.8798828125 1708.87988281 c 0,2,3
 31.8798828125 1787.5859375 31.8798828125 1787.5859375 105.649414062 1851.62011719 c 0,4,5
 159.268554688 1896.68652344 159.268554688 1896.68652344 213.919921875 1897.48046875 c 0,4,5
 273.7578125 1897.48046875 273.7578125 1897.48046875 287.703125 1889.96875 c 0,6,7
 298.331054688 1882.92285156 298.331054688 1882.92285156 304.120117188 1874.51953125 c 0,6,7
 312.298828125 1859.84179688 312.298828125 1859.84179688 312.3203125 1828.59960938 c 0,8,9
 311.849609375 1766.67285156 311.849609375 1766.67285156 305.760742188 1744.95996094 c 0,10,11
 297.143554688 1710.4921875 297.143554688 1710.4921875 283.159179688 1710.59667969 c 1,12,13
 276.907226562 1713.67382812 276.907226562 1713.67382812 272.959960938 1720.36035156 c 1,12,13
 259.10546875 1705.55175781 259.10546875 1705.55175781 250 1720.36035156 c 1,14,15
 241.182617188 1710.578125 241.182617188 1710.578125 235.240234375 1710.51953125 c 1,16,17
 231.63671875 1712.85546875 231.63671875 1712.85546875 220.48046875 1730.20019531 c 0,18,19
 210.16015625 1745.91992188 210.16015625 1745.91992188 192.600585938 1756.44042969 c 1,20,21
 175.65234375 1762.72070312 175.65234375 1762.72070312 166.360351562 1754.79980469 c 0,22,23
 164.720703125 1753.16015625 164.720703125 1753.16015625 163.900390625 1749.87988281 c 0,24,25
 163.080078125 1746.59960938 163.080078125 1746.59960938 163.900390625 1743.3203125 c 0,26,27
 164.720703125 1740.04003906 164.720703125 1740.04003906 167.180664062 1736.75976562 c 0,28,29
 169.640625 1733.48046875 169.640625 1733.48046875 172.100585938 1730.20019531 c 0,30,31
 174.560546875 1726.91992188 174.560546875 1726.91992188 177.83984375 1723.63964844 c 0,32,33
 181.120117188 1720.36035156 181.120117188 1720.36035156 185.220703125 1717.08007812 c 0,34,35
 189.3203125 1713.79980469 189.3203125 1713.79980469 190.959960938 1712.16015625 c 0,36,37
 192.600585938 1710.51953125 192.600585938 1710.51953125 196.700195312 1707.24023438 c 2,38,-1
 200.80078125 1703.95996094 l 1,24,25
 241.938476562 1675.17089844 241.938476562 1675.17089844 264.760742188 1672.79980469 c 0,26,27
 276.856445312 1671.59082031 276.856445312 1671.59082031 340.200195312 1684.43847656 c 0,28,29
 353.768554688 1686.95214844 353.768554688 1686.95214844 363.16015625 1687.55957031 c 1,28,-1
 361.520507812 1684.28027344 l 1,29,-1
 386.120117188 1687.55957031 l 1,30,-1
 384.48046875 1684.28027344 l 1,31,-1
 409.080078125 1687.55957031 l 1,32,-1
 399.240234375 1662.95996094 l 1,33,-1
 409.080078125 1664.59960938 l 1,34,-1
 399.240234375 1640 l 1,35,-1
 409.080078125 1641.63964844 l 1,36,-1
 379.560546875 1574.40039062 l 1,37,-1
 366.440429688 1548.16015625 l 1,38,-1
 335.280273438 1541.59960938 l 1,39,-1
 264.760742188 1528.48046875 l 1,40,-1
 143.400390625 1500.59960938 l 1,41,-1
 49.919921875 1467.79980469 l 1,42,-1
 53.2001953125 1477.63964844 l 1,43,-1
 26.9599609375 1467.79980469 l 1,44,-1
 30.240234375 1477.63964844 l 1,45,-1
 4 1467.79980469 l 1,46,-1
 12.2001953125 1494.04003906 l 1,47,-1
 4 1490.75976562 l 1,48,-1
 12.2001953125 1517 l 1,49,-1
 4 1513.71972656 l 1,50,51
 17.18359375 1569.08789062 17.18359375 1569.08789062 63.0947265625 1595.22070312 c 0,52,53
 69.6103515625 1598.63671875 69.6103515625 1598.63671875 74.5205078125 1600.63964844 c 1,52,-1
 74.5205078125 1602.28027344 l 1,0,1
259.83984375 1787.59960938 m 1,53,54
 262.997070312 1816.07128906 262.997070312 1816.07128906 261.48046875 1820.40039062 c 0,55,56
 246.712890625 1864.70117188 246.712890625 1864.70117188 194.490234375 1837.8359375 c 0,57,58
 173.336914062 1826.02148438 173.336914062 1826.02148438 161.440429688 1810.55957031 c 1,57,58
 227.796875 1809.43066406 227.796875 1809.43066406 259.83984375 1787.59960938 c 1,53,54
108.959960938 1749.87988281 m 1,59,60
 99.5888671875 1739.47949219 99.5888671875 1739.47949219 94.2001953125 1726.91992188 c 0,61,62
 80.58984375 1697.87304688 80.58984375 1697.87304688 81.080078125 1689.20019531 c 0,63,64
 84.3603515625 1658.04003906 84.3603515625 1658.04003906 157.985351562 1624.44628906 c 2,65,-1
 159.80078125 1623.59960938 l 1,65,-1
 159.80078125 1621.95996094 l 1,66,-1
 138.48046875 1613.75976562 l 1,67,-1
 138.48046875 1612.12011719 l 1,68,-1
 159.80078125 1600.63964844 l 1,69,-1
 159.80078125 1599 l 1,70,-1
 138.48046875 1590.79980469 l 1,71,-1
 138.48046875 1589.16015625 l 1,72,-1
 159.80078125 1577.6796875 l 1,73,-1
 159.80078125 1576.04003906 l 1,74,-1
 115.520507812 1553.08007812 l 1,75,-1
 115.520507812 1551.44042969 l 1,76,77
 149.60546875 1562.546875 149.60546875 1562.546875 253.280273438 1580.95996094 c 0,78,79
 259.047851562 1582.00878906 259.047851562 1582.00878906 273.694335938 1583.1328125 c 0,80,81
 307.661132812 1586.35351562 307.661132812 1586.35351562 318.879882812 1592.44042969 c 1,80,81
 327.526367188 1599.29882812 327.526367188 1599.29882812 336.919921875 1628.51953125 c 1,82,83
 237.676757812 1624.00878906 237.676757812 1624.00878906 209.568359375 1631.27734375 c 0,84,85
 172.365234375 1641.93359375 172.365234375 1641.93359375 143.400390625 1667.87988281 c 1,84,85
 120.397460938 1691.80664062 120.397460938 1691.80664062 115.520507812 1700.6796875 c 0,86,87
 111.426757812 1711.61328125 111.426757812 1711.61328125 108.959960938 1749.87988281 c 1,59,60
EndSplineSet
AlternateSubs2: "gsub_alternate_dfl_aalt_arab_FAR_Lookup_01_Subtable_01" uniFE84 uniFE83
Substitution2: "gsub_single_rtl_fina_arab_FAR_Lookup_01_Subtable_01" uniFE84
EndChar

StartChar: uniFE84
Encoding: 65156 65156 340
Width: 422
VWidth: 1639
GlyphClass: 2
Flags: W
LayerCount: 2
Fore
SplineSet
454.159179688 -22.9599609375 m 1,0,1
 438.109375 -22.9599609375 438.109375 -22.9599609375 404.627929688 -24.08984375 c 0,2,3
 269.62890625 -28.6435546875 269.62890625 -28.6435546875 213.76953125 1.19921875 c 0,4,5
 189.779296875 14.7646484375 189.779296875 14.7646484375 172.079101562 32.7998046875 c 0,2,3
 104.372070312 103.329101562 104.372070312 103.329101562 88.1455078125 284.599609375 c 0,4,5
 87.046875 296.87109375 87.046875 296.87109375 85.1083984375 320.9140625 c 0,6,7
 82.9638671875 347.282226562 82.9638671875 347.282226562 81.8798828125 359.16015625 c 0,4,5
 66.9462890625 506.547851562 66.9462890625 506.547851562 37.599609375 939.719726562 c 0,6,7
 35.1396484375 973.33984375 35.1396484375 973.33984375 30.2197265625 1041.40039062 c 0,8,9
 25.259765625 1109.98925781 25.259765625 1109.98925781 22.83984375 1143.08007812 c 0,8,9
 15.0869140625 1232.25585938 15.0869140625 1232.25585938 17.919921875 1254.59960938 c 0,10,11
 20.548828125 1264.5234375 20.548828125 1264.5234375 40.8798828125 1284.12011719 c 0,12,13
 57.4248046875 1302.30175781 57.4248046875 1302.30175781 93.359375 1344.79980469 c 0,14,15
 113.987304688 1368.68652344 113.987304688 1368.68652344 119.599609375 1371.04003906 c 0,16,17
 124.51953125 1372.6796875 124.51953125 1372.6796875 125.33984375 1369.40039062 c 0,18,19
 126.159179688 1366.12011719 126.159179688 1366.12011719 126.219726562 1360.11523438 c 2,20,-1
 126.159179688 1357.91992188 l 1,18,19
 147.3203125 1374.80761719 147.3203125 1374.80761719 149.119140625 1357.91992188 c 1,20,21
 163.333007812 1372.13378906 163.333007812 1372.13378906 168.799804688 1371.04003906 c 1,22,23
 172.654296875 1368.13085938 172.654296875 1368.13085938 172.079101562 1354.63964844 c 1,24,25
 175.354492188 1335.07714844 175.354492188 1335.07714844 175.359375 1297.24023438 c 0,26,27
 175.42578125 1293.94921875 175.42578125 1293.94921875 185.19921875 1052.87988281 c 0,28,29
 187.932617188 992.200195312 187.932617188 992.200195312 192.306640625 870.83984375 c 0,30,31
 201.131835938 627.573242188 201.131835938 627.573242188 209.799804688 506.759765625 c 0,30,31
 218.637695312 362.403320312 218.637695312 362.403320312 234.064453125 314.749023438 c 0,32,33
 246.2578125 278.88671875 246.2578125 278.88671875 263.919921875 254.200195312 c 0,32,33
 309.716796875 191.03125 309.716796875 191.03125 416.509765625 187.42578125 c 0,34,35
 431.700195312 186.96875 431.700195312 186.96875 454.159179688 186.959960938 c 1,34,-1
 454.159179688 141.040039062 l 1,35,36
 341.729492188 141.040039062 341.729492188 141.040039062 323.860351562 143.922851562 c 0,37,38
 264.793945312 154.698242188 264.793945312 154.698242188 231.119140625 190.240234375 c 1,37,38
 194.161132812 232.336914062 194.161132812 232.336914062 178.639648438 321.440429688 c 0,39,40
 166.458984375 397.633789062 166.458984375 397.633789062 160.599609375 505.120117188 c 0,41,42
 160.3203125 509.993164062 160.3203125 509.993164062 140.919921875 962.6796875 c 0,43,44
 127.828125 1247.95214844 127.828125 1247.95214844 127.799804688 1284.12011719 c 1,45,46
 121.239257812 1276.74023438 121.239257812 1276.74023438 108.119140625 1261.16015625 c 0,47,48
 94.53125 1245.10546875 94.53125 1245.10546875 88.439453125 1238.20019531 c 0,47,48
 71.5302734375 1220.0859375 71.5302734375 1220.0859375 68.759765625 1213.59960938 c 0,49,50
 67.119140625 1213.59960938 67.119140625 1213.59960938 67.939453125 1201.29980469 c 2,51,-1
 68.759765625 1189 l 1,51,52
 73.6796875 1120.12011719 l 2,53,54
 75.6298828125 1073.00097656 75.6298828125 1073.00097656 91.7197265625 872.48046875 c 1,55,56
 120.037109375 458.330078125 120.037109375 458.330078125 132.34375 359.034179688 c 0,57,58
 136.533203125 325.514648438 136.533203125 325.514648438 140.919921875 295.200195312 c 0,57,58
 160.41015625 144.840820312 160.41015625 144.840820312 213.696289062 84.4951171875 c 0,59,60
 229.931640625 66.8818359375 229.931640625 66.8818359375 247.51953125 54.1201171875 c 0,59,60
 298.385742188 19.7509765625 298.385742188 19.7509765625 415.76953125 22.345703125 c 0,61,62
 443.57421875 22.9599609375 443.57421875 22.9599609375 454.159179688 22.9599609375 c 1,61,-1
 454.159179688 -22.9599609375 l 1,0,1
83.51953125 1595.71972656 m 1,0,1
 40.859375 1611.90136719 40.859375 1611.90136719 40.7353515625 1679.89648438 c 0,2,3
 40.728515625 1683.85253906 40.728515625 1683.85253906 40.8076171875 1691.73242188 c 0,4,5
 40.8798828125 1698.83105469 40.8798828125 1698.83105469 40.8798828125 1702.3203125 c 0,2,3
 40.8798828125 1781.02636719 40.8798828125 1781.02636719 114.649414062 1845.05957031 c 0,4,5
 168.268554688 1890.12695312 168.268554688 1890.12695312 222.919921875 1890.91992188 c 0,4,5
 282.756835938 1890.91992188 282.756835938 1890.91992188 296.702148438 1883.40820312 c 0,6,7
 307.331054688 1876.36230469 307.331054688 1876.36230469 313.119140625 1867.95996094 c 0,6,7
 321.297851562 1853.28222656 321.297851562 1853.28222656 321.319335938 1822.04003906 c 0,8,9
 320.848632812 1760.11230469 320.848632812 1760.11230469 314.759765625 1738.40039062 c 0,10,11
 306.142578125 1703.93261719 306.142578125 1703.93261719 292.158203125 1704.03710938 c 1,12,13
 285.907226562 1707.11425781 285.907226562 1707.11425781 281.959960938 1713.79980469 c 1,12,13
 268.104492188 1698.9921875 268.104492188 1698.9921875 259 1713.79980469 c 1,14,15
 250.181640625 1704.01855469 250.181640625 1704.01855469 244.239257812 1703.95996094 c 1,16,17
 240.635742188 1706.29492188 240.635742188 1706.29492188 229.479492188 1723.63964844 c 0,18,19
 219.16015625 1739.359375 219.16015625 1739.359375 201.599609375 1749.87988281 c 1,20,21
 184.651367188 1756.16113281 184.651367188 1756.16113281 175.359375 1748.24023438 c 0,22,23
 173.719726562 1746.59960938 173.719726562 1746.59960938 172.899414062 1743.3203125 c 0,24,25
 172.079101562 1740.04003906 172.079101562 1740.04003906 172.899414062 1736.75976562 c 0,26,27
 173.719726562 1733.48046875 173.719726562 1733.48046875 176.1796875 1730.20019531 c 0,28,29
 178.639648438 1726.91992188 178.639648438 1726.91992188 181.099609375 1723.63964844 c 0,30,31
 183.559570312 1720.36035156 183.559570312 1720.36035156 186.83984375 1717.08007812 c 0,32,33
 190.119140625 1713.79980469 190.119140625 1713.79980469 194.219726562 1710.51953125 c 0,34,35
 198.319335938 1707.24023438 198.319335938 1707.24023438 199.959960938 1705.59960938 c 0,36,37
 201.599609375 1703.95996094 201.599609375 1703.95996094 205.69921875 1700.6796875 c 2,38,-1
 209.799804688 1697.40039062 l 1,24,25
 250.9375 1668.61132812 250.9375 1668.61132812 273.759765625 1666.24023438 c 0,26,27
 285.85546875 1665.03027344 285.85546875 1665.03027344 349.19921875 1677.87890625 c 0,28,29
 362.111328125 1680.49804688 362.111328125 1680.49804688 372.159179688 1681 c 1,28,-1
 370.51953125 1677.71972656 l 1,29,-1
 395.119140625 1681 l 1,30,-1
 393.479492188 1677.71972656 l 1,31,-1
 418.079101562 1681 l 1,32,-1
 408.239257812 1656.40039062 l 1,33,-1
 418.079101562 1658.04003906 l 1,34,-1
 408.239257812 1633.44042969 l 1,35,-1
 418.079101562 1635.08007812 l 1,36,-1
 388.559570312 1567.83984375 l 1,37,-1
 375.439453125 1541.59960938 l 1,38,-1
 344.279296875 1535.04003906 l 1,39,-1
 273.759765625 1521.91992188 l 1,40,-1
 152.399414062 1494.04003906 l 1,41,-1
 58.919921875 1461.24023438 l 1,42,-1
 62.19921875 1471.08007812 l 1,43,-1
 35.9599609375 1461.24023438 l 1,44,-1
 39.2392578125 1471.08007812 l 1,45,-1
 13 1461.24023438 l 1,46,-1
 21.19921875 1487.48046875 l 1,47,-1
 13 1484.20019531 l 1,48,-1
 21.19921875 1510.44042969 l 1,49,-1
 13 1507.16015625 l 1,50,51
 26.1826171875 1562.52832031 26.1826171875 1562.52832031 72.09375 1588.66015625 c 0,52,53
 78.609375 1592.07617188 78.609375 1592.07617188 83.51953125 1594.08007812 c 1,52,-1
 83.51953125 1595.71972656 l 1,0,1
268.83984375 1781.04003906 m 1,53,54
 271.997070312 1809.51074219 271.997070312 1809.51074219 270.479492188 1813.83984375 c 0,55,56
 255.712890625 1858.140625 255.712890625 1858.140625 203.489257812 1831.27636719 c 0,57,58
 182.3359375 1819.46191406 182.3359375 1819.46191406 170.439453125 1804 c 1,57,58
 236.795898438 1802.87109375 236.795898438 1802.87109375 268.83984375 1781.04003906 c 1,53,54
117.959960938 1743.3203125 m 1,59,60
 108.587890625 1732.91992188 108.587890625 1732.91992188 103.19921875 1720.36035156 c 0,61,62
 89.5888671875 1691.31347656 89.5888671875 1691.31347656 90.0791015625 1682.63964844 c 0,63,64
 93.359375 1651.48046875 93.359375 1651.48046875 166.984375 1617.88574219 c 2,65,-1
 168.799804688 1617.04003906 l 1,65,-1
 168.799804688 1615.40039062 l 1,66,-1
 147.479492188 1607.20019531 l 1,67,-1
 147.479492188 1605.55957031 l 1,68,-1
 168.799804688 1594.08007812 l 1,69,-1
 168.799804688 1592.44042969 l 1,70,-1
 147.479492188 1584.24023438 l 1,71,-1
 147.479492188 1582.59960938 l 1,72,-1
 168.799804688 1571.12011719 l 1,73,-1
 168.799804688 1569.48046875 l 1,74,-1
 124.51953125 1546.51953125 l 1,75,-1
 124.51953125 1544.87988281 l 1,76,77
 158.604492188 1555.98730469 158.604492188 1555.98730469 262.279296875 1574.40039062 c 0,78,79
 268.046875 1575.44824219 268.046875 1575.44824219 282.693359375 1576.57324219 c 0,80,81
 316.661132812 1579.79394531 316.661132812 1579.79394531 327.879882812 1585.87988281 c 1,80,81
 336.525390625 1592.73925781 336.525390625 1592.73925781 345.919921875 1621.95996094 c 1,82,83
 246.67578125 1617.44921875 246.67578125 1617.44921875 218.567382812 1624.71679688 c 0,84,85
 181.364257812 1635.37402344 181.364257812 1635.37402344 152.399414062 1661.3203125 c 1,84,85
 129.396484375 1685.24609375 129.396484375 1685.24609375 124.51953125 1694.12011719 c 0,86,87
 120.42578125 1705.05371094 120.42578125 1705.05371094 117.959960938 1743.3203125 c 1,59,60
EndSplineSet
EndChar

StartChar: uniFE85
Encoding: 1572 1572 341
AltUni2: 00fe85.ffffffff.0
Width: 965
VWidth: 1639
GlyphClass: 2
Flags: W
LayerCount: 2
Fore
SplineSet
684.83984375 109.879882812 m 1,0,1
 624.458007812 85.7158203125 624.458007812 85.7158203125 596.280273438 85.2802734375 c 0,2,3
 515.706054688 85.2802734375 515.706054688 85.2802734375 487.319335938 99.75 c 0,4,5
 481.864257812 102.716796875 481.864257812 102.716796875 478.200195312 104.959960938 c 0,4,5
 408.463867188 151.78125 408.463867188 151.78125 407.6796875 259.120117188 c 0,6,7
 408.4765625 384.658203125 408.4765625 384.658203125 471.639648438 511.6796875 c 0,8,9
 508.045898438 582.47265625 508.045898438 582.47265625 543.799804688 610.080078125 c 0,10,11
 547.080078125 613.360351562 547.080078125 613.360351562 551.1796875 615.8203125 c 0,12,13
 555.280273438 618.280273438 555.280273438 618.280273438 559.379882812 619.919921875 c 0,14,15
 563.48046875 621.559570312 563.48046875 621.559570312 566.759765625 622.379882812 c 0,16,17
 570.040039062 623.200195312 570.040039062 623.200195312 575.780273438 624.01953125 c 0,18,19
 581.520507812 624.83984375 581.520507812 624.83984375 583.98046875 625.66015625 c 0,20,21
 586.440429688 626.48046875 586.440429688 626.48046875 593 626.48046875 c 0,22,23
 599.559570312 626.48046875 599.559570312 626.48046875 601.200195312 626.48046875 c 0,24,25
 602.83984375 626.48046875 602.83984375 626.48046875 611.040039062 626.48046875 c 2,26,-1
 619.240234375 626.48046875 l 2,12,13
 659.927734375 625.888671875 659.927734375 625.888671875 671.719726562 621.559570312 c 0,14,15
 716.475585938 603.6484375 716.475585938 603.6484375 750.440429688 542.83984375 c 0,16,17
 807.413085938 441.48828125 807.413085938 441.48828125 807.83984375 308.3203125 c 0,18,19
 807.575195312 156.63671875 807.575195312 156.63671875 798 96.759765625 c 1,20,21
 753.407226562 -133.469726562 753.407226562 -133.469726562 583.16015625 -323.080078125 c 1,22,23
 441.478515625 -478.08203125 441.478515625 -478.08203125 240.400390625 -478.879882812 c 0,24,25
 177.533203125 -478.456054688 177.533203125 -478.456054688 146.919921875 -470.6796875 c 0,26,27
 11.6083984375 -433.985351562 11.6083984375 -433.985351562 -92.95703125 -310.366210938 c 0,28,29
 -99.255859375 -302.8125 -99.255859375 -302.8125 -104 -296.83984375 c 1,28,-1
 -94.16015625 -295.200195312 l 1,29,-1
 -94.16015625 -296.83984375 l 1,30,31
 -96.4931640625 -302.673828125 -96.4931640625 -302.673828125 -85.669921875 -305.795898438 c 0,32,33
 -83.341796875 -306.392578125 -83.341796875 -306.392578125 -74.4794921875 -308.3203125 c 1,32,-1
 -104 -275.51953125 l 1,33,-1
 -104 -273.879882812 l 1,34,-1
 -94.16015625 -272.240234375 l 1,35,-1
 -94.16015625 -273.879882812 l 1,36,37
 -96.4931640625 -279.713867188 -96.4931640625 -279.713867188 -85.669921875 -282.8359375 c 0,38,39
 -83.341796875 -283.432617188 -83.341796875 -283.432617188 -74.4794921875 -285.360351562 c 1,38,-1
 -104 -252.559570312 l 1,39,-1
 -104 -250.919921875 l 1,40,-1
 -94.16015625 -249.280273438 l 1,41,-1
 -94.16015625 -250.919921875 l 1,42,43
 -95.7998046875 -255.83984375 -95.7998046875 -255.83984375 -88.419921875 -259.120117188 c 0,44,45
 -81.0400390625 -262.400390625 -81.0400390625 -262.400390625 -73.9619140625 -263.396484375 c 2,46,-1
 -71.2001953125 -264.040039062 l 1,44,-1
 -81.0400390625 -252.559570312 l 1,45,-1
 -81.0400390625 -250.919921875 l 1,46,-1
 -71.2001953125 -249.280273438 l 1,47,-1
 -71.2001953125 -250.919921875 l 1,48,49
 -72.83984375 -255.83984375 -72.83984375 -255.83984375 -65.4599609375 -259.120117188 c 0,50,51
 -58.080078125 -262.400390625 -58.080078125 -262.400390625 -51.001953125 -263.396484375 c 2,52,-1
 -48.240234375 -264.040039062 l 1,50,-1
 -58.080078125 -252.559570312 l 1,51,-1
 -58.080078125 -250.919921875 l 1,52,-1
 -48.240234375 -249.280273438 l 1,53,-1
 -48.240234375 -250.919921875 l 1,54,55
 -49.8798828125 -254.200195312 -49.8798828125 -254.200195312 -48.240234375 -255.83984375 c 0,56,57
 -46.599609375 -257.48046875 -46.599609375 -257.48046875 -38.0283203125 -259.916992188 c 2,58,-1
 -35.1201171875 -260.759765625 l 2,56,57
 -14.1494140625 -266.8828125 -14.1494140625 -266.8828125 12.4404296875 -272.240234375 c 0,58,59
 149.358398438 -308.271484375 149.358398438 -308.271484375 203.1328125 -303.12890625 c 0,60,61
 209.545898438 -302.427734375 209.545898438 -302.427734375 214.16015625 -301.759765625 c 0,60,61
 347.1015625 -279.369140625 347.1015625 -279.369140625 488.040039062 -162.360351562 c 1,62,63
 561.581054688 -104.330078125 561.581054688 -104.330078125 606.120117188 -42.6396484375 c 1,64,65
 676.927734375 50.8662109375 676.927734375 50.8662109375 684.83984375 109.879882812 c 1,0,1
734.040039062 67.240234375 m 1,66,67
 759.14453125 183.196289062 759.14453125 183.196289062 761.919921875 226.3203125 c 0,68,69
 769.107421875 353.009765625 769.107421875 353.009765625 720.919921875 465.759765625 c 0,70,71
 695.51953125 522.8828125 695.51953125 522.8828125 656.959960938 557.599609375 c 1,72,73
 632.849609375 576.264648438 632.849609375 576.264648438 615.959960938 577.280273438 c 1,74,75
 590.499023438 573.984375 590.499023438 573.984375 558.559570312 534.639648438 c 0,76,77
 504.30078125 466.770507812 504.30078125 466.770507812 470 346.040039062 c 0,78,79
 454.439453125 289.611328125 454.439453125 289.611328125 455.240234375 272.240234375 c 0,80,81
 459.125976562 204.2421875 459.125976562 204.2421875 510.211914062 158.698242188 c 0,82,83
 538.432617188 135.064453125 538.432617188 135.064453125 568.400390625 132.83984375 c 1,82,83
 609.083984375 133.666015625 609.083984375 133.666015625 676.639648438 177.120117188 c 1,84,-1
 679.919921875 165.639648438 l 1,85,-1
 699.599609375 177.120117188 l 1,86,-1
 702.879882812 165.639648438 l 1,87,-1
 722.559570312 177.120117188 l 1,88,89
 732.396484375 137.657226562 732.396484375 137.657226562 732.400390625 67.240234375 c 1,90,-1
 734.040039062 67.240234375 l 1,66,67
555.280273438 462.48046875 m 0,91,92
 559.955078125 464.350585938 559.955078125 464.350585938 568.314453125 463.8203125 c 0,93,94
 575.375 463.76171875 575.375 463.76171875 578.240234375 464.120117188 c 0,93,94
 621.002929688 463.5625 621.002929688 463.5625 634 459.200195312 c 0,95,96
 686.837890625 437.712890625 686.837890625 437.712890625 711.080078125 360.799804688 c 0,97,98
 716.158203125 342.606445312 716.158203125 342.606445312 716 293.559570312 c 0,99,100
 714.98046875 269.912109375 714.98046875 269.912109375 711.080078125 264.040039062 c 0,101,102
 701.956054688 252.55859375 701.956054688 252.55859375 679.919921875 246 c 0,103,104
 657.634765625 240.834960938 657.634765625 240.834960938 579.879882812 241.080078125 c 0,105,106
 535.413085938 242.6328125 535.413085938 242.6328125 519.200195312 260.759765625 c 1,107,108
 499.534179688 286.958984375 499.534179688 286.958984375 499.520507812 350.959960938 c 0,109,110
 500.375 402.239257812 500.375 402.239257812 512.639648438 424.759765625 c 1,111,112
 534.376953125 457.694335938 534.376953125 457.694335938 555.280273438 462.48046875 c 0,91,92
588.080078125 410 m 0,113,114
 584.799804688 410 584.799804688 410 582.33984375 408.360351562 c 0,115,116
 579.879882812 406.719726562 579.879882812 406.719726562 577.419921875 404.259765625 c 0,117,118
 574.959960938 401.799804688 574.959960938 401.799804688 573.3203125 400.16015625 c 0,119,120
 571.6796875 398.51953125 571.6796875 398.51953125 569.219726562 394.419921875 c 2,121,-1
 566.759765625 390.3203125 l 1,115,116
 542.302734375 353.112304688 542.302734375 353.112304688 555.280273438 321.440429688 c 1,117,118
 576.397460938 281.654296875 576.397460938 281.654296875 629.080078125 291.919921875 c 0,119,120
 656.428710938 297.716796875 656.428710938 297.716796875 663.520507812 308.3203125 c 1,121,122
 665.073242188 313.831054688 665.073242188 313.831054688 660.240234375 329.639648438 c 1,123,124
 649.231445312 354.657226562 649.231445312 354.657226562 627.440429688 382.120117188 c 0,125,126
 605.866210938 411.686523438 605.866210938 411.686523438 588.080078125 410 c 0,113,114
732.400390625 63.9599609375 m 1,127,-1
 730.759765625 63.9599609375 l 1,128,-1
 732.400390625 63.9599609375 l 1,127,-1
730.759765625 57.400390625 m 1,129,-1
 729.120117188 55.759765625 l 1,130,-1
 730.759765625 57.400390625 l 1,129,-1
722.559570312 32.7998046875 m 1,131,-1
 720.919921875 31.16015625 l 1,132,-1
 722.559570312 32.7998046875 l 1,131,-1
720.919921875 27.8798828125 m 1,133,-1
 719.280273438 26.240234375 l 1,134,-1
 720.919921875 27.8798828125 l 1,133,-1
719.280273438 24.599609375 m 1,135,-1
 717.639648438 22.9599609375 l 1,136,-1
 719.280273438 24.599609375 l 1,135,-1
717.639648438 19.6796875 m 1,137,-1
 716 18.0400390625 l 1,138,-1
 717.639648438 19.6796875 l 1,137,-1
716 14.759765625 m 1,139,-1
 714.360351562 14.759765625 l 1,140,-1
 716 14.759765625 l 1,139,-1
714.360351562 11.48046875 m 1,141,-1
 712.719726562 9.83984375 l 1,142,-1
 714.360351562 11.48046875 l 1,141,-1
712.719726562 8.2001953125 m 1,143,144
 706.260742188 -0.1044921875 706.260742188 -0.1044921875 696.5546875 -19.6337890625 c 0,145,146
 688.728515625 -34.9111328125 688.728515625 -34.9111328125 684.83984375 -41 c 0,145,146
 657.73046875 -85.4384765625 657.73046875 -85.4384765625 614.3203125 -134.48046875 c 1,147,148
 435.061523438 -324.329101562 435.061523438 -324.329101562 246.959960938 -349.3203125 c 1,149,150
 159.561523438 -358.318359375 159.561523438 -358.318359375 23.919921875 -331.280273438 c 1,151,-1
 23.919921875 -332.919921875 l 1,152,153
 127.508789062 -399.323242188 127.508789062 -399.323242188 129.750976562 -400.51953125 c 0,154,155
 182.838867188 -428.01171875 182.838867188 -428.01171875 228.919921875 -431.3203125 c 0,154,155
 286.203125 -434.66796875 286.203125 -434.66796875 368.3203125 -400.16015625 c 0,156,157
 526.928710938 -330.09765625 526.928710938 -330.09765625 645.48046875 -129.559570312 c 0,158,159
 702.068359375 -34.244140625 702.068359375 -34.244140625 712.719726562 8.2001953125 c 1,143,144
-72.83984375 -285.360351562 m 1,160,-1
 -74.4794921875 -287 l 1,161,-1
 -72.83984375 -285.360351562 l 1,160,-1
-72.83984375 -308.3203125 m 1,162,-1
 -74.4794921875 -309.959960938 l 1,163,-1
 -72.83984375 -308.3203125 l 1,162,-1
474.919921875 844.599609375 m 1,0,1
 432.259765625 860.78125 432.259765625 860.78125 432.13671875 928.776367188 c 0,2,3
 432.12890625 932.732421875 432.12890625 932.732421875 432.208984375 940.612304688 c 0,4,5
 432.271484375 948.239257812 432.271484375 948.239257812 432.280273438 951.200195312 c 0,2,3
 432.280273438 1029.90625 432.280273438 1029.90625 506.049804688 1093.93945312 c 0,4,5
 559.668945312 1139.00683594 559.668945312 1139.00683594 614.3203125 1139.79980469 c 0,4,5
 674.158203125 1139.79980469 674.158203125 1139.79980469 688.103515625 1132.28808594 c 0,6,7
 698.731445312 1125.2421875 698.731445312 1125.2421875 704.520507812 1116.83984375 c 0,6,7
 712.698242188 1102.16210938 712.698242188 1102.16210938 712.719726562 1070.91992188 c 0,8,9
 712.249023438 1008.9921875 712.249023438 1008.9921875 706.16015625 987.280273438 c 0,10,11
 697.54296875 952.8125 697.54296875 952.8125 683.55859375 952.916992188 c 1,12,13
 677.307617188 955.994140625 677.307617188 955.994140625 673.360351562 962.6796875 c 1,12,13
 659.504882812 947.872070312 659.504882812 947.872070312 650.400390625 962.6796875 c 1,14,15
 641.58203125 952.8984375 641.58203125 952.8984375 635.639648438 952.83984375 c 1,16,17
 632.036132812 955.174804688 632.036132812 955.174804688 620.879882812 972.51953125 c 0,18,19
 610.560546875 988.240234375 610.560546875 988.240234375 593 998.759765625 c 1,20,21
 576.051757812 1005.04101562 576.051757812 1005.04101562 566.759765625 997.120117188 c 0,22,23
 565.120117188 995.48046875 565.120117188 995.48046875 564.299804688 992.200195312 c 0,24,25
 563.48046875 988.919921875 563.48046875 988.919921875 564.299804688 985.639648438 c 0,26,27
 565.120117188 982.360351562 565.120117188 982.360351562 567.580078125 979.080078125 c 0,28,29
 570.040039062 975.799804688 570.040039062 975.799804688 572.5 972.51953125 c 0,30,31
 574.959960938 969.240234375 574.959960938 969.240234375 578.240234375 965.959960938 c 0,32,33
 581.520507812 962.6796875 581.520507812 962.6796875 585.620117188 959.400390625 c 0,34,35
 589.719726562 956.120117188 589.719726562 956.120117188 591.360351562 954.48046875 c 0,36,37
 593 952.83984375 593 952.83984375 597.099609375 949.559570312 c 2,38,-1
 601.200195312 946.280273438 l 1,24,25
 642.337890625 917.491210938 642.337890625 917.491210938 665.16015625 915.120117188 c 0,26,27
 677.255859375 913.91015625 677.255859375 913.91015625 740.599609375 926.758789062 c 0,28,29
 754.16796875 929.272460938 754.16796875 929.272460938 763.559570312 929.879882812 c 1,28,-1
 761.919921875 926.599609375 l 1,29,-1
 786.520507812 929.879882812 l 1,30,-1
 784.879882812 926.599609375 l 1,31,-1
 809.48046875 929.879882812 l 1,32,-1
 799.639648438 905.280273438 l 1,33,-1
 809.48046875 906.919921875 l 1,34,-1
 799.639648438 882.3203125 l 1,35,-1
 809.48046875 883.959960938 l 1,36,-1
 779.959960938 816.719726562 l 1,37,-1
 766.83984375 790.48046875 l 1,38,-1
 735.6796875 783.919921875 l 1,39,-1
 665.16015625 770.799804688 l 1,40,-1
 543.799804688 742.919921875 l 1,41,-1
 450.3203125 710.120117188 l 1,42,-1
 453.599609375 719.959960938 l 1,43,-1
 427.360351562 710.120117188 l 1,44,-1
 430.639648438 719.959960938 l 1,45,-1
 404.400390625 710.120117188 l 1,46,-1
 412.599609375 736.360351562 l 1,47,-1
 404.400390625 733.080078125 l 1,48,-1
 412.599609375 759.3203125 l 1,49,-1
 404.400390625 756.040039062 l 1,50,51
 417.583007812 811.408203125 417.583007812 811.408203125 463.495117188 837.540039062 c 0,52,53
 470.009765625 840.956054688 470.009765625 840.956054688 474.919921875 842.959960938 c 1,52,-1
 474.919921875 844.599609375 l 1,0,1
660.240234375 1029.91992188 m 1,53,54
 663.397460938 1058.390625 663.397460938 1058.390625 661.879882812 1062.71972656 c 0,55,56
 647.11328125 1107.02148438 647.11328125 1107.02148438 594.890625 1080.15625 c 0,57,58
 573.736328125 1068.34179688 573.736328125 1068.34179688 561.83984375 1052.87988281 c 1,57,58
 628.196289062 1051.75097656 628.196289062 1051.75097656 660.240234375 1029.91992188 c 1,53,54
509.360351562 992.200195312 m 1,59,60
 499.98828125 981.799804688 499.98828125 981.799804688 494.599609375 969.240234375 c 0,61,62
 480.989257812 940.193359375 480.989257812 940.193359375 481.48046875 931.51953125 c 0,63,64
 484.759765625 900.360351562 484.759765625 900.360351562 558.385742188 866.765625 c 2,65,-1
 560.200195312 865.919921875 l 1,65,-1
 560.200195312 864.280273438 l 1,66,-1
 538.879882812 856.080078125 l 1,67,-1
 538.879882812 854.440429688 l 1,68,-1
 560.200195312 842.959960938 l 1,69,-1
 560.200195312 841.3203125 l 1,70,-1
 538.879882812 833.120117188 l 1,71,-1
 538.879882812 831.48046875 l 1,72,-1
 560.200195312 820 l 1,73,-1
 560.200195312 818.360351562 l 1,74,-1
 515.919921875 795.400390625 l 1,75,-1
 515.919921875 793.759765625 l 1,76,77
 550.004882812 804.8671875 550.004882812 804.8671875 653.6796875 823.280273438 c 0,78,79
 659.447265625 824.328125 659.447265625 824.328125 674.09375 825.453125 c 0,80,81
 708.061523438 828.673828125 708.061523438 828.673828125 719.280273438 834.759765625 c 1,80,81
 727.92578125 841.619140625 727.92578125 841.619140625 737.3203125 870.83984375 c 1,82,83
 638.076171875 866.329101562 638.076171875 866.329101562 609.967773438 873.59765625 c 0,84,85
 572.764648438 884.25390625 572.764648438 884.25390625 543.799804688 910.200195312 c 1,84,85
 520.797851562 934.125976562 520.797851562 934.125976562 515.919921875 943 c 0,86,87
 511.826171875 953.93359375 511.826171875 953.93359375 509.360351562 992.200195312 c 1,59,60
EndSplineSet
AlternateSubs2: "gsub_alternate_dfl_aalt_arab_FAR_Lookup_01_Subtable_01" uniFE86 uniFE85
Substitution2: "gsub_single_rtl_fina_arab_FAR_Lookup_01_Subtable_01" uniFE86
EndChar

StartChar: uniFE86
Encoding: 65158 65158 342
Width: 854
VWidth: 1639
GlyphClass: 2
Flags: W
LayerCount: 2
Fore
SplineSet
627.919921875 -19.6796875 m 1,0,1
 537.21875 -19.501953125 537.21875 -19.501953125 493.439453125 -14.759765625 c 0,2,3
 427.01171875 -7.6337890625 427.01171875 -7.6337890625 395.0390625 19.6796875 c 1,4,5
 360.448242188 52.74609375 360.448242188 52.74609375 363.879882812 142.6796875 c 0,6,7
 366.8046875 251.076171875 366.8046875 251.076171875 434.399414062 375.559570312 c 1,8,9
 474.502929688 444.6953125 474.502929688 444.6953125 501.639648438 472.3203125 c 0,10,11
 543.40625 512.026367188 543.40625 512.026367188 606.599609375 510.040039062 c 0,12,13
 636.739257812 509.26171875 636.739257812 509.26171875 645.959960938 505.120117188 c 0,14,15
 649.239257812 503.48046875 649.239257812 503.48046875 652.51953125 501.01953125 c 0,16,17
 655.799804688 498.559570312 655.799804688 498.559570312 658.259765625 496.919921875 c 0,18,19
 660.719726562 495.280273438 660.719726562 495.280273438 663.1796875 492 c 0,20,21
 665.639648438 488.719726562 665.639648438 488.719726562 668.099609375 486.259765625 c 0,22,23
 670.559570312 483.799804688 670.559570312 483.799804688 673.01953125 479.700195312 c 0,24,25
 675.479492188 475.599609375 675.479492188 475.599609375 677.119140625 473.959960938 c 0,26,27
 678.759765625 472.3203125 678.759765625 472.3203125 681.219726562 467.400390625 c 0,28,29
 683.6796875 462.48046875 683.6796875 462.48046875 684.5 461.66015625 c 0,30,31
 685.319335938 460.83984375 685.319335938 460.83984375 688.599609375 455.099609375 c 2,32,-1
 691.879882812 449.360351562 l 1,16,17
 713.447265625 405.3828125 713.447265625 405.3828125 731.239257812 334.559570312 c 1,18,19
 754.338867188 256.254882812 754.338867188 256.254882812 759.119140625 185.3203125 c 1,20,-1
 885.399414062 186.959960938 l 1,21,-1
 885.399414062 141.040039062 l 1,22,-1
 713.19921875 139.400390625 l 1,23,24
 691.043945312 300.266601562 691.043945312 300.266601562 650.879882812 388.6796875 c 0,25,26
 636.458007812 421.640625 636.458007812 421.640625 616.439453125 444.440429688 c 1,27,28
 602.627929688 456.658203125 602.627929688 456.658203125 598.399414062 457.559570312 c 0,29,30
 592.249023438 456.890625 592.249023438 456.890625 572.159179688 446.080078125 c 1,31,32
 545.87890625 425.141601562 545.87890625 425.141601562 516.399414062 387.040039062 c 1,33,34
 489.504882812 349.264648438 489.504882812 349.264648438 480.319335938 326.360351562 c 1,35,36
 499.303710938 343.446289062 499.303710938 343.446289062 539.359375 346.040039062 c 0,37,38
 578.396484375 348.905273438 578.396484375 348.905273438 596.759765625 342.759765625 c 1,39,40
 669.7265625 306.033203125 669.7265625 306.033203125 670.559570312 157.440429688 c 1,41,42
 580.703125 136.8671875 580.703125 136.8671875 498.359375 145.959960938 c 0,43,44
 455.461914062 150.25 455.461914062 150.25 450.64453125 152.825195312 c 0,45,46
 445.442382812 156.346679688 445.442382812 156.346679688 442.599609375 159.080078125 c 0,45,46
 438.581054688 165.791992188 438.581054688 165.791992188 439.319335938 188.599609375 c 2,47,48
 439.319335938 239.440429688 l 1,49,-1
 437.6796875 239.440429688 l 1,50,51
 435.190429688 225.75 435.190429688 225.75 425.458007812 198.279296875 c 0,52,53
 409.91796875 152.379882812 409.91796875 152.379882812 411.439453125 129.559570312 c 0,52,53
 419.506835938 29.5224609375 419.506835938 29.5224609375 598.180664062 26.419921875 c 0,54,55
 609.790039062 26.2451171875 609.790039062 26.2451171875 624.639648438 26.240234375 c 2,54,-1
 673.83984375 26.240234375 l 1,55,56
 673.83984375 -69.84375 673.83984375 -69.84375 670.350585938 -87.2099609375 c 0,57,58
 668.749023438 -94.5791015625 668.749023438 -94.5791015625 667.279296875 -100.040039062 c 0,57,58
 642.264648438 -184.330078125 642.264648438 -184.330078125 552.479492188 -280.440429688 c 0,59,60
 419.06640625 -423.625976562 419.06640625 -423.625976562 268.759765625 -464.120117188 c 0,61,62
 140.506835938 -497.020507812 140.506835938 -497.020507812 -36.2802734375 -462.48046875 c 1,63,64
 74.576171875 -558.48046875 74.576171875 -558.48046875 170.359375 -565.799804688 c 1,65,66
 250.307617188 -569.544921875 250.307617188 -569.544921875 344.19921875 -521.51953125 c 0,67,68
 526.889648438 -431.201171875 526.889648438 -431.201171875 639.633789062 -186.35546875 c 0,69,70
 648.397460938 -167.151367188 648.397460938 -167.151367188 655.799804688 -149.240234375 c 0,69,70
 699.79296875 -30.4248046875 699.79296875 -30.4248046875 701.719726562 22.9599609375 c 1,71,-1
 885.399414062 22.9599609375 l 1,72,-1
 885.399414062 -22.9599609375 l 1,73,-1
 747.639648438 -22.9599609375 l 1,74,75
 746.958984375 -97.4521484375 746.958984375 -97.4521484375 688.599609375 -224.6796875 c 0,76,77
 574.400390625 -476.870117188 574.400390625 -476.870117188 388.533203125 -568.942382812 c 0,78,79
 331.249023438 -596.74609375 331.249023438 -596.74609375 272.0390625 -606.799804688 c 0,78,79
 171.3203125 -623.934570312 171.3203125 -623.934570312 96.5595703125 -606.799804688 c 0,80,81
 21.2412109375 -589.283203125 21.2412109375 -589.283203125 -64.16015625 -524.799804688 c 0,82,83
 -124.526367188 -478.637695312 -124.526367188 -478.637695312 -136.23828125 -463.221679688 c 0,84,85
 -145.877929688 -449.474609375 -145.877929688 -449.474609375 -149.440429688 -437.879882812 c 1,84,-1
 -133.040039062 -441.16015625 l 1,85,-1
 -141.240234375 -429.6796875 l 1,86,87
 -152.482421875 -434.301757812 -152.482421875 -434.301757812 -156 -431.3203125 c 1,88,-1
 -142.880859375 -429.6796875 l 1,89,-1
 -149.440429688 -414.919921875 l 1,90,-1
 -133.040039062 -418.200195312 l 1,91,-1
 -141.240234375 -406.719726562 l 1,92,93
 -152.482421875 -411.341796875 -152.482421875 -411.341796875 -156 -408.360351562 c 1,94,-1
 -142.880859375 -406.719726562 l 1,95,-1
 -149.440429688 -391.959960938 l 1,96,-1
 -124.840820312 -398.51953125 l 1,97,-1
 -126.48046875 -391.959960938 l 1,98,-1
 -101.880859375 -398.51953125 l 1,99,-1
 -103.520507812 -391.959960938 l 1,100,101
 -74.84765625 -396.141601562 -74.84765625 -396.141601562 -16.9287109375 -410.630859375 c 0,102,103
 85.3779296875 -435.71875 85.3779296875 -435.71875 135.919921875 -432.959960938 c 0,102,103
 337.916015625 -417.875976562 337.916015625 -417.875976562 504.919921875 -234.51953125 c 1,104,105
 600.635742188 -126.765625 600.635742188 -126.765625 627.919921875 -19.6796875 c 1,0,1
480.319335938 326.360351562 m 1,106,-1
 477.0390625 323.080078125 l 1,107,-1
 480.319335938 326.360351562 l 1,106,-1
550.83984375 295.200195312 m 1,108,109
 521.55859375 293.638671875 521.55859375 293.638671875 495.079101562 231.240234375 c 1,110,111
 489.791015625 206.499023438 489.791015625 206.499023438 490.159179688 205 c 0,112,113
 499.555664062 190.2734375 499.555664062 190.2734375 552.479492188 190.240234375 c 0,114,115
 570.484375 190.568359375 570.484375 190.568359375 601.6796875 196.799804688 c 1,116,117
 615.999023438 202.78125 615.999023438 202.78125 616.439453125 203.360351562 c 0,118,119
 619.719726562 211.559570312 619.719726562 211.559570312 610.791992188 227.799804688 c 2,120,-1
 609.879882812 229.599609375 l 1,120,121
 583.588867188 292.625 583.588867188 292.625 550.83984375 295.200195312 c 1,108,109
-156 -385.400390625 m 1,122,-1
 -142.880859375 -385.400390625 l 1,123,124
 -152.000976562 -389.064453125 -152.000976562 -389.064453125 -156 -385.400390625 c 1,122,-1
-133.040039062 -385.400390625 m 1,125,-1
 -119.920898438 -385.400390625 l 1,126,127
 -129.041015625 -389.064453125 -129.041015625 -389.064453125 -133.040039062 -385.400390625 c 1,125,-1
-110.080078125 -385.400390625 m 1,128,-1
 -96.9609375 -385.400390625 l 1,129,130
 -106.081054688 -389.064453125 -106.081054688 -389.064453125 -110.080078125 -385.400390625 c 1,128,-1
-131.400390625 -418.200195312 m 1,131,-1
 -133.040039062 -419.83984375 l 1,132,-1
 -131.400390625 -418.200195312 l 1,131,-1
-131.400390625 -441.16015625 m 1,133,-1
 -133.040039062 -442.799804688 l 1,134,-1
 -131.400390625 -441.16015625 l 1,133,-1
550.83984375 728.16015625 m 1,0,1
 508.178710938 744.341796875 508.178710938 744.341796875 508.055664062 812.3359375 c 0,2,3
 508.048828125 816.291992188 508.048828125 816.291992188 508.127929688 824.171875 c 0,4,5
 508.19921875 831.270507812 508.19921875 831.270507812 508.19921875 834.759765625 c 0,2,3
 508.19921875 913.465820312 508.19921875 913.465820312 581.96875 977.5 c 0,4,5
 635.587890625 1022.56640625 635.587890625 1022.56640625 690.239257812 1023.36035156 c 0,4,5
 750.077148438 1023.36035156 750.077148438 1023.36035156 764.022460938 1015.84863281 c 0,6,7
 774.650390625 1008.80273438 774.650390625 1008.80273438 780.439453125 1000.40039062 c 0,6,7
 788.618164062 985.721679688 788.618164062 985.721679688 788.639648438 954.48046875 c 0,8,9
 788.16796875 892.552734375 788.16796875 892.552734375 782.079101562 870.83984375 c 0,10,11
 773.462890625 836.372070312 773.462890625 836.372070312 759.478515625 836.4765625 c 1,12,13
 753.2265625 839.553710938 753.2265625 839.553710938 749.279296875 846.240234375 c 1,12,13
 735.423828125 831.432617188 735.423828125 831.432617188 726.319335938 846.240234375 c 1,14,15
 717.501953125 836.458007812 717.501953125 836.458007812 711.559570312 836.400390625 c 1,16,17
 707.955078125 838.735351562 707.955078125 838.735351562 696.799804688 856.080078125 c 0,18,19
 686.479492188 871.799804688 686.479492188 871.799804688 668.919921875 882.3203125 c 1,20,21
 651.971679688 888.6015625 651.971679688 888.6015625 642.6796875 880.6796875 c 0,22,23
 641.0390625 879.040039062 641.0390625 879.040039062 640.219726562 875.759765625 c 0,24,25
 639.399414062 872.48046875 639.399414062 872.48046875 640.219726562 869.200195312 c 0,26,27
 641.0390625 865.919921875 641.0390625 865.919921875 643.5 862.639648438 c 0,28,29
 645.959960938 859.360351562 645.959960938 859.360351562 648.419921875 856.080078125 c 0,30,31
 650.879882812 852.799804688 650.879882812 852.799804688 654.159179688 849.51953125 c 0,32,33
 657.439453125 846.240234375 657.439453125 846.240234375 661.5390625 842.959960938 c 0,34,35
 665.639648438 839.6796875 665.639648438 839.6796875 667.279296875 838.040039062 c 0,36,37
 668.919921875 836.400390625 668.919921875 836.400390625 673.01953125 833.120117188 c 2,38,-1
 677.119140625 829.83984375 l 1,24,25
 718.256835938 801.05078125 718.256835938 801.05078125 741.079101562 798.6796875 c 0,26,27
 753.17578125 797.470703125 753.17578125 797.470703125 816.51953125 810.318359375 c 0,28,29
 830.087890625 812.83203125 830.087890625 812.83203125 839.479492188 813.440429688 c 1,28,-1
 837.83984375 810.16015625 l 1,29,-1
 862.439453125 813.440429688 l 1,30,-1
 860.799804688 810.16015625 l 1,31,-1
 885.399414062 813.440429688 l 1,32,-1
 875.559570312 788.83984375 l 1,33,-1
 885.399414062 790.48046875 l 1,34,-1
 875.559570312 765.879882812 l 1,35,-1
 885.399414062 767.51953125 l 1,36,-1
 855.879882812 700.280273438 l 1,37,-1
 842.759765625 674.040039062 l 1,38,-1
 811.599609375 667.48046875 l 1,39,-1
 741.079101562 654.360351562 l 1,40,-1
 619.719726562 626.48046875 l 1,41,-1
 526.239257812 593.6796875 l 1,42,-1
 529.51953125 603.51953125 l 1,43,-1
 503.279296875 593.6796875 l 1,44,-1
 506.559570312 603.51953125 l 1,45,-1
 480.319335938 593.6796875 l 1,46,-1
 488.51953125 619.919921875 l 1,47,-1
 480.319335938 616.639648438 l 1,48,-1
 488.51953125 642.879882812 l 1,49,-1
 480.319335938 639.599609375 l 1,50,51
 493.501953125 694.967773438 493.501953125 694.967773438 539.4140625 721.100585938 c 0,52,53
 545.9296875 724.516601562 545.9296875 724.516601562 550.83984375 726.51953125 c 1,52,-1
 550.83984375 728.16015625 l 1,0,1
736.159179688 913.48046875 m 1,53,54
 739.31640625 941.951171875 739.31640625 941.951171875 737.799804688 946.280273438 c 0,55,56
 723.032226562 990.581054688 723.032226562 990.581054688 670.809570312 963.715820312 c 0,57,58
 649.65625 951.901367188 649.65625 951.901367188 637.759765625 936.440429688 c 1,57,58
 704.116210938 935.310546875 704.116210938 935.310546875 736.159179688 913.48046875 c 1,53,54
585.279296875 875.759765625 m 1,59,60
 575.907226562 865.359375 575.907226562 865.359375 570.51953125 852.799804688 c 0,61,62
 556.908203125 823.75390625 556.908203125 823.75390625 557.399414062 815.080078125 c 0,63,64
 560.6796875 783.919921875 560.6796875 783.919921875 634.3046875 750.326171875 c 2,65,-1
 636.119140625 749.48046875 l 1,65,-1
 636.119140625 747.83984375 l 1,66,-1
 614.799804688 739.639648438 l 1,67,-1
 614.799804688 738 l 1,68,-1
 636.119140625 726.51953125 l 1,69,-1
 636.119140625 724.879882812 l 1,70,-1
 614.799804688 716.6796875 l 1,71,-1
 614.799804688 715.040039062 l 1,72,-1
 636.119140625 703.559570312 l 1,73,-1
 636.119140625 701.919921875 l 1,74,-1
 591.83984375 678.959960938 l 1,75,-1
 591.83984375 677.3203125 l 1,76,77
 625.924804688 688.426757812 625.924804688 688.426757812 729.599609375 706.83984375 c 0,78,79
 735.3671875 707.888671875 735.3671875 707.888671875 750.013671875 709.012695312 c 0,80,81
 783.98046875 712.233398438 783.98046875 712.233398438 795.19921875 718.3203125 c 1,80,81
 803.844726562 725.1796875 803.844726562 725.1796875 813.239257812 754.400390625 c 1,82,83
 713.99609375 749.888671875 713.99609375 749.888671875 685.887695312 757.157226562 c 0,84,85
 648.684570312 767.813476562 648.684570312 767.813476562 619.719726562 793.759765625 c 1,84,85
 596.716796875 817.686523438 596.716796875 817.686523438 591.83984375 826.559570312 c 0,86,87
 587.745117188 837.493164062 587.745117188 837.493164062 585.279296875 875.759765625 c 1,59,60
EndSplineSet
EndChar

